<ttFont>
<head>
    <!-- Most of this table will be recalculated by the compiler -->
    <tableVersion value="1.0"/>
    <fontRevision value="1.0"/>
    <checkSumAdjustment value="0x4b101015"/>
    <magicNumber value="0x5f0f3cf5"/>
    <flags value="00000000 00011011"/>
    <unitsPerEm value="1000"/>
    <created value="Tue Jan  8 12:46:00 2013"/>
    <modified value="Thu Nov  6 12:31:57 2014"/>
    <xMin value="-59"/>
    <yMin value="-323"/>
    <xMax value="1349"/>
    <yMax value="1144"/>
    <macStyle value="00000000 00000000"/>
    <lowestRecPPEM value="9"/>
    <fontDirectionHint value="2"/>
    <indexToLocFormat value="0"/>
    <glyphDataFormat value="0"/>
  </head>
    <TTGlyph name=".notdef" xMin="65" yMin="0" xMax="529" yMax="650">
      <contour>
        <pt x="65" y="650" on="1"/>
        <pt x="529" y="650" on="1"/>
        <pt x="529" y="0" on="1"/>
        <pt x="65" y="0" on="1"/>
      </contour>
      <contour>
        <pt x="455" y="604" on="1"/>
        <pt x="139" y="604" on="1"/>
        <pt x="298" y="367" on="1"/>
      </contour>
      <contour>
        <pt x="483" y="88" on="1"/>
        <pt x="483" y="562" on="1"/>
        <pt x="325" y="325" on="1"/>
      </contour>
      <contour>
        <pt x="455" y="47" on="1"/>
        <pt x="298" y="283" on="1"/>
        <pt x="139" y="47" on="1"/>
      </contour>
      <contour>
        <pt x="112" y="88" on="1"/>
        <pt x="269" y="325" on="1"/>
        <pt x="112" y="562" on="1"/>
      </contour>
    </TTGlyph>
    <TTGlyph name="A" xMin="8" yMin="0" xMax="718" yMax="663">
      <contour>
        <pt x="256" y="663" on="1"/>
        <pt x="433" y="663" on="1"/>
        <pt x="442" y="663" on="0"/>
        <pt x="450" y="659" on="0"/>
        <pt x="454" y="648" on="1"/>
        <pt x="718" y="0" on="1"/>
        <pt x="548" y="0" on="1"/>
        <pt x="539" y="0" on="0"/>
        <pt x="530" y="5" on="0"/>
        <pt x="526" y="15" on="1"/>
        <pt x="490" y="110" on="1"/>
        <pt x="225" y="110" on="1"/>
        <pt x="193" y="15" on="1"/>
        <pt x="190" y="5" on="0"/>
        <pt x="181" y="0" on="0"/>
        <pt x="172" y="0" on="1"/>
        <pt x="8" y="0" on="1"/>
      </contour>
      <contour>
        <pt x="352" y="494" on="1"/>
        <pt x="351" y="494" on="1"/>
        <pt x="346" y="467" on="0"/>
        <pt x="316" y="374" on="0"/>
        <pt x="292" y="305" on="1"/>
        <pt x="274" y="249" on="1"/>
        <pt x="436" y="249" on="1"/>
        <pt x="416" y="305" on="1"/>
        <pt x="388" y="379" on="0"/>
        <pt x="358" y="466" on="0"/>
      </contour>
    </TTGlyph>
    <TTGlyph name="AE" xMin="-4" yMin="0" xMax="1027" yMax="663">
      <contour>
        <pt x="201" y="14" on="1"/>
        <pt x="194" y="3" on="0"/>
        <pt x="185" y="0" on="0"/>
        <pt x="173" y="0" on="1"/>
        <pt x="-4" y="0" on="1"/>
        <pt x="426" y="663" on="1"/>
        <pt x="1018" y="663" on="1"/>
        <pt x="1018" y="516" on="1"/>
        <pt x="681" y="516" on="1"/>
        <pt x="681" y="407" on="1"/>
        <pt x="988" y="407" on="1"/>
        <pt x="988" y="263" on="1"/>
        <pt x="681" y="263" on="1"/>
        <pt x="681" y="147" on="1"/>
        <pt x="1027" y="147" on="1"/>
        <pt x="1027" y="0" on="1"/>
        <pt x="503" y="0" on="1"/>
        <pt x="503" y="110" on="1"/>
        <pt x="264" y="110" on="1"/>
      </contour>
      <contour>
        <pt x="503" y="508" on="1"/>
        <pt x="352" y="249" on="1"/>
        <pt x="503" y="249" on="1"/>
      </contour>
    </TTGlyph>
    <TTGlyph name="AEacute" xMin="-4" yMin="0" xMax="1027" yMax="941">
      <component glyphName="AE" x="0" y="0" flags="0x204"/>
      <component glyphName="acute.cap" x="448" y="0" flags="0x4"/>
    </TTGlyph>
    <TTGlyph name="Aacute" xMin="8" yMin="0" xMax="718" yMax="941">
      <component glyphName="A" x="0" y="0" flags="0x204"/>
      <component glyphName="acute.cap" x="138" y="0" flags="0x4"/>
    </TTGlyph>
    <TTGlyph name="Abreve" xMin="8" yMin="0" xMax="718" yMax="908">
      <component glyphName="A" x="0" y="0" flags="0x204"/>
      <component glyphName="breve.cap" x="134" y="0" flags="0x4"/>
    </TTGlyph>
    <TTGlyph name="Acaron" xMin="8" yMin="0" xMax="718" yMax="936">
      <component glyphName="A" x="0" y="0" flags="0x204"/>
      <component glyphName="caron.cap" x="136" y="0" flags="0x4"/>
    </TTGlyph>
    <TTGlyph name="Acircumflex" xMin="8" yMin="0" xMax="718" yMax="923">
      <component glyphName="A" x="0" y="0" flags="0x204"/>
      <component glyphName="circumflex.cap" x="136" y="0" flags="0x4"/>
    </TTGlyph>
    <TTGlyph name="Adieresis" xMin="8" yMin="0" xMax="718" yMax="884">
      <component glyphName="A" x="0" y="0" flags="0x204"/>
      <component glyphName="dieresis.cap" x="134" y="0" flags="0x4"/>
    </TTGlyph>
    <TTGlyph name="Agrave" xMin="8" yMin="0" xMax="718" yMax="941">
      <component glyphName="A" x="0" y="0" flags="0x204"/>
      <component glyphName="grave.cap" x="137" y="0" flags="0x4"/>
    </TTGlyph>
    <TTGlyph name="Amacron" xMin="8" yMin="0" xMax="718" yMax="873">
      <component glyphName="A" x="0" y="0" flags="0x204"/>
      <component glyphName="macron.cap" x="134" y="0" flags="0x4"/>
    </TTGlyph>
    <TTGlyph name="Aogonek" xMin="8" yMin="-229" xMax="723" yMax="663">
      <contour>
        <pt x="490" y="110" on="1"/>
        <pt x="225" y="110" on="1"/>
        <pt x="193" y="15" on="1"/>
        <pt x="190" y="5" on="0"/>
        <pt x="181" y="0" on="0"/>
        <pt x="172" y="0" on="1"/>
        <pt x="8" y="0" on="1"/>
        <pt x="256" y="663" on="1"/>
        <pt x="433" y="663" on="1"/>
        <pt x="442" y="663" on="0"/>
        <pt x="450" y="659" on="0"/>
        <pt x="454" y="648" on="1"/>
        <pt x="718" y="0" on="1"/>
        <pt x="664" y="0" on="1"/>
        <pt x="624" y="0" on="0"/>
        <pt x="604" y="-17" on="1"/>
        <pt x="579" y="-39" on="0"/>
        <pt x="579" y="-75" on="1"/>
        <pt x="579" y="-100" on="0"/>
        <pt x="611" y="-123" on="0"/>
        <pt x="639" y="-123" on="1"/>
        <pt x="650" y="-123" on="0"/>
        <pt x="683" y="-119" on="0"/>
        <pt x="700" y="-117" on="1"/>
        <pt x="723" y="-199" on="1"/>
        <pt x="700" y="-213" on="0"/>
        <pt x="636" y="-229" on="0"/>
        <pt x="608" y="-229" on="1"/>
        <pt x="540" y="-229" on="0"/>
        <pt x="460" y="-165" on="0"/>
        <pt x="460" y="-112" on="1"/>
        <pt x="460" y="-70" on="0"/>
        <pt x="499" y="-6" on="0"/>
        <pt x="525" y="17" on="1"/>
      </contour>
      <contour>
        <pt x="351" y="494" on="1"/>
        <pt x="346" y="467" on="0"/>
        <pt x="316" y="374" on="0"/>
        <pt x="292" y="305" on="1"/>
        <pt x="274" y="249" on="1"/>
        <pt x="436" y="249" on="1"/>
        <pt x="416" y="305" on="1"/>
        <pt x="388" y="379" on="0"/>
        <pt x="358" y="466" on="0"/>
        <pt x="352" y="494" on="1"/>
      </contour>
    </TTGlyph>
    <TTGlyph name="Aring" xMin="8" yMin="0" xMax="718" yMax="905">
      <contour>
        <pt x="8" y="0" on="1"/>
        <pt x="256" y="665" on="1"/>
        <pt x="233" y="682" on="0"/>
        <pt x="208" y="736" on="0"/>
        <pt x="208" y="770" on="1"/>
        <pt x="208" y="832" on="0"/>
        <pt x="287" y="905" on="0"/>
        <pt x="350" y="905" on="1"/>
        <pt x="413" y="905" on="0"/>
        <pt x="492" y="832" on="0"/>
        <pt x="492" y="770" on="1"/>
        <pt x="492" y="736" on="0"/>
        <pt x="468" y="684" on="0"/>
        <pt x="446" y="666" on="1"/>
        <pt x="718" y="0" on="1"/>
        <pt x="548" y="0" on="1"/>
        <pt x="539" y="0" on="0"/>
        <pt x="530" y="5" on="0"/>
        <pt x="526" y="15" on="1"/>
        <pt x="490" y="110" on="1"/>
        <pt x="225" y="110" on="1"/>
        <pt x="193" y="15" on="1"/>
        <pt x="190" y="5" on="0"/>
        <pt x="181" y="0" on="0"/>
        <pt x="172" y="0" on="1"/>
      </contour>
      <contour>
        <pt x="351" y="494" on="1"/>
        <pt x="346" y="467" on="0"/>
        <pt x="316" y="374" on="0"/>
        <pt x="292" y="305" on="1"/>
        <pt x="274" y="249" on="1"/>
        <pt x="436" y="249" on="1"/>
        <pt x="416" y="305" on="1"/>
        <pt x="388" y="379" on="0"/>
        <pt x="358" y="466" on="0"/>
        <pt x="352" y="494" on="1"/>
      </contour>
      <contour>
        <pt x="399" y="770" on="1"/>
        <pt x="399" y="792" on="0"/>
        <pt x="377" y="817" on="0"/>
        <pt x="350" y="817" on="1"/>
        <pt x="323" y="817" on="0"/>
        <pt x="301" y="792" on="0"/>
        <pt x="301" y="770" on="1"/>
        <pt x="301" y="748" on="0"/>
        <pt x="323" y="723" on="0"/>
        <pt x="350" y="723" on="1"/>
        <pt x="377" y="723" on="0"/>
        <pt x="399" y="748" on="0"/>
      </contour>
    </TTGlyph>
    <TTGlyph name="Aringacute" xMin="8" yMin="0" xMax="718" yMax="1144">
      <contour>
        <pt x="548" y="0" on="1"/>
        <pt x="539" y="0" on="0"/>
        <pt x="530" y="5" on="0"/>
        <pt x="526" y="15" on="1"/>
        <pt x="490" y="110" on="1"/>
        <pt x="225" y="110" on="1"/>
        <pt x="193" y="15" on="1"/>
        <pt x="190" y="5" on="0"/>
        <pt x="181" y="0" on="0"/>
        <pt x="172" y="0" on="1"/>
        <pt x="8" y="0" on="1"/>
        <pt x="257" y="665" on="1"/>
        <pt x="234" y="682" on="0"/>
        <pt x="209" y="736" on="0"/>
        <pt x="209" y="770" on="1"/>
        <pt x="209" y="832" on="0"/>
        <pt x="288" y="905" on="0"/>
        <pt x="351" y="905" on="1"/>
        <pt x="414" y="905" on="0"/>
        <pt x="493" y="832" on="0"/>
        <pt x="493" y="770" on="1"/>
        <pt x="493" y="736" on="0"/>
        <pt x="469" y="684" on="0"/>
        <pt x="447" y="666" on="1"/>
        <pt x="718" y="0" on="1"/>
      </contour>
      <contour>
        <pt x="352" y="494" on="1"/>
        <pt x="351" y="494" on="1"/>
        <pt x="346" y="467" on="0"/>
        <pt x="315" y="376" on="0"/>
        <pt x="292" y="305" on="1"/>
        <pt x="274" y="249" on="1"/>
        <pt x="436" y="249" on="1"/>
        <pt x="416" y="305" on="1"/>
        <pt x="389" y="380" on="0"/>
        <pt x="358" y="466" on="0"/>
      </contour>
      <contour>
        <pt x="400" y="770" on="1"/>
        <pt x="400" y="792" on="0"/>
        <pt x="378" y="817" on="0"/>
        <pt x="351" y="817" on="1"/>
        <pt x="324" y="817" on="0"/>
        <pt x="302" y="792" on="0"/>
        <pt x="302" y="770" on="1"/>
        <pt x="302" y="748" on="0"/>
        <pt x="324" y="723" on="0"/>
        <pt x="351" y="723" on="1"/>
        <pt x="378" y="723" on="0"/>
        <pt x="400" y="748" on="0"/>
      </contour>
      <contour>
        <pt x="259" y="920" on="1"/>
        <pt x="212" y="988" on="1"/>
        <pt x="387" y="1133" on="1"/>
        <pt x="401" y="1144" on="0"/>
        <pt x="408" y="1144" on="1"/>
        <pt x="419" y="1144" on="0"/>
        <pt x="431" y="1126" on="1"/>
        <pt x="494" y="1034" on="1"/>
      </contour>
    </TTGlyph>
    <TTGlyph name="Atilde" xMin="8" yMin="0" xMax="718" yMax="904">
      <component glyphName="A" x="0" y="0" flags="0x204"/>
      <component glyphName="tilde.cap" x="135" y="0" flags="0x4"/>
    </TTGlyph>
    <TTGlyph name="B" xMin="61" yMin="0" xMax="650" yMax="663">
      <contour>
        <pt x="61" y="663" on="1"/>
        <pt x="372" y="663" on="1"/>
        <pt x="445" y="663" on="0"/>
        <pt x="534" y="639" on="0"/>
        <pt x="563" y="610" on="1"/>
        <pt x="585" y="589" on="0"/>
        <pt x="608" y="528" on="0"/>
        <pt x="608" y="495" on="1"/>
        <pt x="608" y="455" on="0"/>
        <pt x="573" y="384" on="0"/>
        <pt x="547" y="360" on="1"/>
        <pt x="593" y="340" on="0"/>
        <pt x="650" y="262" on="0"/>
        <pt x="650" y="204" on="1"/>
        <pt x="650" y="158" on="0"/>
        <pt x="622" y="88" on="0"/>
        <pt x="596" y="63" on="1"/>
        <pt x="532" y="0" on="0"/>
        <pt x="383" y="0" on="1"/>
        <pt x="61" y="0" on="1"/>
      </contour>
      <contour>
        <pt x="239" y="145" on="1"/>
        <pt x="395" y="145" on="1"/>
        <pt x="439" y="145" on="0"/>
        <pt x="454" y="160" on="1"/>
        <pt x="469" y="175" on="0"/>
        <pt x="469" y="210" on="1"/>
        <pt x="469" y="239" on="0"/>
        <pt x="455" y="253" on="1"/>
        <pt x="447" y="261" on="0"/>
        <pt x="419" y="268" on="0"/>
        <pt x="395" y="268" on="1"/>
        <pt x="239" y="268" on="1"/>
      </contour>
      <contour>
        <pt x="396" y="398" on="1"/>
        <pt x="405" y="398" on="0"/>
        <pt x="417" y="402" on="0"/>
        <pt x="422" y="410" on="1"/>
        <pt x="427" y="418" on="0"/>
        <pt x="433" y="449" on="0"/>
        <pt x="433" y="461" on="1"/>
        <pt x="433" y="491" on="0"/>
        <pt x="420" y="504" on="1"/>
        <pt x="412" y="512" on="0"/>
        <pt x="385" y="518" on="0"/>
        <pt x="364" y="518" on="1"/>
        <pt x="239" y="518" on="1"/>
        <pt x="239" y="398" on="1"/>
      </contour>
    </TTGlyph>
    <TTGlyph name="C" xMin="31" yMin="-10" xMax="678" yMax="673">
      <contour>
        <pt x="678" y="147" on="1"/>
        <pt x="654" y="114" on="0"/>
        <pt x="583" y="57" on="0"/>
        <pt x="498" y="14" on="0"/>
        <pt x="405" y="-10" on="0"/>
        <pt x="358" y="-10" on="1"/>
        <pt x="282" y="-10" on="0"/>
        <pt x="161" y="43" on="0"/>
        <pt x="76" y="135" on="0"/>
        <pt x="31" y="259" on="0"/>
        <pt x="31" y="331" on="1"/>
        <pt x="31" y="410" on="0"/>
        <pt x="83" y="537" on="0"/>
        <pt x="173" y="626" on="0"/>
        <pt x="295" y="673" on="0"/>
        <pt x="366" y="673" on="1"/>
        <pt x="471" y="673" on="0"/>
        <pt x="625" y="565" on="0"/>
        <pt x="663" y="469" on="1"/>
        <pt x="553" y="398" on="1"/>
        <pt x="458" y="468" on="1"/>
        <pt x="427" y="491" on="0"/>
        <pt x="383" y="509" on="0"/>
        <pt x="355" y="509" on="1"/>
        <pt x="324" y="509" on="0"/>
        <pt x="273" y="483" on="0"/>
        <pt x="237" y="437" on="0"/>
        <pt x="217" y="373" on="0"/>
        <pt x="217" y="335" on="1"/>
        <pt x="217" y="252" on="0"/>
        <pt x="305" y="162" on="0"/>
        <pt x="377" y="162" on="1"/>
        <pt x="409" y="162" on="0"/>
        <pt x="469" y="177" on="0"/>
        <pt x="505" y="194" on="1"/>
        <pt x="613" y="243" on="1"/>
      </contour>
    </TTGlyph>
    <TTGlyph name="Cacute" xMin="31" yMin="-10" xMax="678" yMax="941">
      <component glyphName="C" x="0" y="0" flags="0x204"/>
      <component glyphName="acute.cap" x="157" y="0" flags="0x4"/>
    </TTGlyph>
    <TTGlyph name="Ccaron" xMin="31" yMin="-10" xMax="678" yMax="936">
      <component glyphName="C" x="0" y="0" flags="0x204"/>
      <component glyphName="caron.cap" x="148" y="0" flags="0x4"/>
    </TTGlyph>
    <TTGlyph name="Ccedilla" xMin="31" yMin="-248" xMax="678" yMax="673">
      <contour>
        <pt x="678" y="147" on="1"/>
        <pt x="656" y="117" on="0"/>
        <pt x="595" y="65" on="0"/>
        <pt x="522" y="25" on="0"/>
        <pt x="440" y="-3" on="0"/>
        <pt x="398" y="-7" on="1"/>
        <pt x="388" y="-20" on="0"/>
        <pt x="388" y="-31" on="1"/>
        <pt x="388" y="-41" on="0"/>
        <pt x="420" y="-51" on="0"/>
        <pt x="459" y="-67" on="0"/>
        <pt x="492" y="-96" on="0"/>
        <pt x="492" y="-125" on="1"/>
        <pt x="492" y="-182" on="0"/>
        <pt x="392" y="-248" on="0"/>
        <pt x="291" y="-248" on="1"/>
        <pt x="274" y="-161" on="1"/>
        <pt x="327" y="-153" on="1"/>
        <pt x="359" y="-149" on="0"/>
        <pt x="359" y="-135" on="1"/>
        <pt x="359" y="-128" on="0"/>
        <pt x="331" y="-118" on="0"/>
        <pt x="297" y="-104" on="0"/>
        <pt x="269" y="-82" on="0"/>
        <pt x="269" y="-63" on="1"/>
        <pt x="269" y="-49" on="0"/>
        <pt x="286" y="-19" on="0"/>
        <pt x="300" y="-5" on="1"/>
        <pt x="237" y="4" on="0"/>
        <pt x="137" y="63" on="0"/>
        <pt x="68" y="152" on="0"/>
        <pt x="31" y="266" on="0"/>
        <pt x="31" y="331" on="1"/>
        <pt x="31" y="410" on="0"/>
        <pt x="83" y="537" on="0"/>
        <pt x="173" y="626" on="0"/>
        <pt x="295" y="673" on="0"/>
        <pt x="366" y="673" on="1"/>
        <pt x="471" y="673" on="0"/>
        <pt x="625" y="565" on="0"/>
        <pt x="663" y="469" on="1"/>
        <pt x="553" y="398" on="1"/>
        <pt x="458" y="468" on="1"/>
        <pt x="427" y="491" on="0"/>
        <pt x="383" y="509" on="0"/>
        <pt x="355" y="509" on="1"/>
        <pt x="324" y="509" on="0"/>
        <pt x="273" y="483" on="0"/>
        <pt x="237" y="437" on="0"/>
        <pt x="217" y="373" on="0"/>
        <pt x="217" y="335" on="1"/>
        <pt x="217" y="252" on="0"/>
        <pt x="305" y="162" on="0"/>
        <pt x="377" y="162" on="1"/>
        <pt x="409" y="162" on="0"/>
        <pt x="469" y="177" on="0"/>
        <pt x="505" y="194" on="1"/>
        <pt x="613" y="243" on="1"/>
      </contour>
    </TTGlyph>
    <TTGlyph name="Ccircumflex" xMin="31" yMin="-10" xMax="678" yMax="923">
      <component glyphName="C" x="0" y="0" flags="0x204"/>
      <component glyphName="circumflex.cap" x="149" y="0" flags="0x4"/>
    </TTGlyph>
    <TTGlyph name="Cdotaccent" xMin="31" yMin="-10" xMax="678" yMax="883">
      <component glyphName="C" x="0" y="0" flags="0x204"/>
      <component glyphName="dotaccent.cap" x="148" y="0" flags="0x4"/>
    </TTGlyph>
    <TTGlyph name="D" xMin="61" yMin="0" xMax="699" yMax="663">
      <contour>
        <pt x="298" y="153" on="1"/>
        <pt x="356" y="153" on="0"/>
        <pt x="438" y="169" on="0"/>
        <pt x="465" y="193" on="1"/>
        <pt x="488" y="213" on="0"/>
        <pt x="514" y="280" on="0"/>
        <pt x="514" y="331" on="1"/>
        <pt x="514" y="382" on="0"/>
        <pt x="488" y="450" on="0"/>
        <pt x="465" y="470" on="1"/>
        <pt x="438" y="494" on="0"/>
        <pt x="356" y="510" on="0"/>
        <pt x="298" y="510" on="1"/>
        <pt x="239" y="510" on="1"/>
        <pt x="239" y="153" on="1"/>
      </contour>
      <contour>
        <pt x="61" y="0" on="1"/>
        <pt x="61" y="663" on="1"/>
        <pt x="303" y="663" on="1"/>
        <pt x="406" y="663" on="0"/>
        <pt x="562" y="617" on="0"/>
        <pt x="615" y="564" on="1"/>
        <pt x="655" y="524" on="0"/>
        <pt x="699" y="408" on="0"/>
        <pt x="699" y="331" on="1"/>
        <pt x="699" y="254" on="0"/>
        <pt x="655" y="139" on="0"/>
        <pt x="615" y="99" on="1"/>
        <pt x="562" y="46" on="0"/>
        <pt x="406" y="0" on="0"/>
        <pt x="303" y="0" on="1"/>
      </contour>
    </TTGlyph>
    <TTGlyph name="Dcaron" xMin="61" yMin="0" xMax="699" yMax="936">
      <component glyphName="D" x="0" y="0" flags="0x4"/>
      <component glyphName="caron.cap" x="148" y="0" flags="0x4"/>
    </TTGlyph>
    <TTGlyph name="Dcroat" xMin="16" yMin="0" xMax="718" yMax="663">
      <contour>
        <pt x="80" y="0" on="1"/>
        <pt x="80" y="271" on="1"/>
        <pt x="16" y="271" on="1"/>
        <pt x="16" y="404" on="1"/>
        <pt x="80" y="404" on="1"/>
        <pt x="80" y="663" on="1"/>
        <pt x="322" y="663" on="1"/>
        <pt x="425" y="663" on="0"/>
        <pt x="581" y="617" on="0"/>
        <pt x="634" y="564" on="1"/>
        <pt x="674" y="524" on="0"/>
        <pt x="718" y="408" on="0"/>
        <pt x="718" y="331" on="1"/>
        <pt x="718" y="254" on="0"/>
        <pt x="674" y="139" on="0"/>
        <pt x="634" y="99" on="1"/>
        <pt x="581" y="46" on="0"/>
        <pt x="425" y="0" on="0"/>
        <pt x="322" y="0" on="1"/>
      </contour>
      <contour>
        <pt x="317" y="153" on="1"/>
        <pt x="375" y="153" on="0"/>
        <pt x="457" y="169" on="0"/>
        <pt x="484" y="193" on="1"/>
        <pt x="507" y="213" on="0"/>
        <pt x="533" y="280" on="0"/>
        <pt x="533" y="331" on="1"/>
        <pt x="533" y="382" on="0"/>
        <pt x="507" y="450" on="0"/>
        <pt x="484" y="470" on="1"/>
        <pt x="457" y="494" on="0"/>
        <pt x="375" y="510" on="0"/>
        <pt x="317" y="510" on="1"/>
        <pt x="258" y="510" on="1"/>
        <pt x="258" y="404" on="1"/>
        <pt x="403" y="404" on="1"/>
        <pt x="403" y="271" on="1"/>
        <pt x="258" y="271" on="1"/>
        <pt x="258" y="153" on="1"/>
      </contour>
    </TTGlyph>
    <TTGlyph name="Delta" xMin="28" yMin="0" xMax="652" yMax="663">
      <contour>
        <pt x="396" y="305" on="1"/>
        <pt x="368" y="379" on="0"/>
        <pt x="338" y="476" on="0"/>
        <pt x="332" y="504" on="1"/>
        <pt x="331" y="504" on="1"/>
        <pt x="326" y="477" on="0"/>
        <pt x="296" y="374" on="0"/>
        <pt x="272" y="305" on="1"/>
        <pt x="241" y="214" on="1"/>
        <pt x="235" y="196" on="0"/>
        <pt x="219" y="155" on="0"/>
        <pt x="214" y="147" on="1"/>
        <pt x="226" y="149" on="0"/>
        <pt x="265" y="151" on="0"/>
        <pt x="290" y="151" on="1"/>
        <pt x="381" y="151" on="1"/>
        <pt x="406" y="151" on="0"/>
        <pt x="446" y="149" on="0"/>
        <pt x="458" y="147" on="1"/>
        <pt x="453" y="155" on="0"/>
        <pt x="438" y="191" on="0"/>
        <pt x="430" y="214" on="1"/>
      </contour>
      <contour>
        <pt x="652" y="0" on="1"/>
        <pt x="28" y="0" on="1"/>
        <pt x="28" y="87" on="1"/>
        <pt x="28" y="104" on="0"/>
        <pt x="39" y="142" on="0"/>
        <pt x="52" y="175" on="1"/>
        <pt x="235" y="663" on="1"/>
        <pt x="414" y="663" on="1"/>
        <pt x="423" y="663" on="0"/>
        <pt x="430" y="659" on="0"/>
        <pt x="435" y="648" on="1"/>
        <pt x="628" y="175" on="1"/>
        <pt x="642" y="142" on="0"/>
        <pt x="652" y="104" on="0"/>
        <pt x="652" y="87" on="1"/>
      </contour>
    </TTGlyph>
    <TTGlyph name="E" xMin="61" yMin="0" xMax="585" yMax="663">
      <contour>
        <pt x="576" y="663" on="1"/>
        <pt x="576" y="516" on="1"/>
        <pt x="239" y="516" on="1"/>
        <pt x="239" y="407" on="1"/>
        <pt x="546" y="407" on="1"/>
        <pt x="546" y="263" on="1"/>
        <pt x="239" y="263" on="1"/>
        <pt x="239" y="147" on="1"/>
        <pt x="585" y="147" on="1"/>
        <pt x="585" y="0" on="1"/>
        <pt x="61" y="0" on="1"/>
        <pt x="61" y="663" on="1"/>
      </contour>
    </TTGlyph>
    <TTGlyph name="Eacute" xMin="61" yMin="0" xMax="585" yMax="941">
      <component glyphName="E" x="0" y="0" flags="0x204"/>
      <component glyphName="acute.cap" x="114" y="0" flags="0x4"/>
    </TTGlyph>
    <TTGlyph name="Ebreve" xMin="61" yMin="0" xMax="585" yMax="908">
      <component glyphName="E" x="0" y="0" flags="0x204"/>
      <component glyphName="breve.cap" x="107" y="0" flags="0x4"/>
    </TTGlyph>
    <TTGlyph name="Ecaron" xMin="61" yMin="0" xMax="585" yMax="936">
      <component glyphName="E" x="0" y="0" flags="0x204"/>
      <component glyphName="caron.cap" x="104" y="0" flags="0x4"/>
    </TTGlyph>
    <TTGlyph name="Ecircumflex" xMin="61" yMin="0" xMax="585" yMax="923">
      <component glyphName="E" x="0" y="0" flags="0x204"/>
      <component glyphName="circumflex.cap" x="104" y="0" flags="0x4"/>
    </TTGlyph>
    <TTGlyph name="Edieresis" xMin="61" yMin="0" xMax="585" yMax="884">
      <component glyphName="E" x="0" y="0" flags="0x204"/>
      <component glyphName="dieresis.cap" x="110" y="0" flags="0x4"/>
    </TTGlyph>
    <TTGlyph name="Edotaccent" xMin="61" yMin="0" xMax="585" yMax="883">
      <component glyphName="E" x="0" y="0" flags="0x204"/>
      <component glyphName="dotaccent.cap" x="107" y="0" flags="0x4"/>
    </TTGlyph>
    <TTGlyph name="Egrave" xMin="61" yMin="0" xMax="585" yMax="941">
      <component glyphName="E" x="0" y="0" flags="0x204"/>
      <component glyphName="grave.cap" x="114" y="0" flags="0x4"/>
    </TTGlyph>
    <TTGlyph name="Emacron" xMin="61" yMin="0" xMax="585" yMax="873">
      <component glyphName="E" x="0" y="0" flags="0x204"/>
      <component glyphName="macron.cap" x="106" y="0" flags="0x4"/>
    </TTGlyph>
    <TTGlyph name="Eng" xMin="61" yMin="-238" xMax="689" yMax="663">
      <contour>
        <pt x="333" y="258" on="1"/>
        <pt x="301" y="297" on="0"/>
        <pt x="243" y="372" on="0"/>
        <pt x="228" y="394" on="1"/>
        <pt x="227" y="394" on="1"/>
        <pt x="227" y="0" on="1"/>
        <pt x="61" y="0" on="1"/>
        <pt x="61" y="663" on="1"/>
        <pt x="192" y="663" on="1"/>
        <pt x="204" y="663" on="0"/>
        <pt x="216" y="658" on="0"/>
        <pt x="223" y="650" on="1"/>
        <pt x="413" y="413" on="1"/>
        <pt x="428" y="394" on="0"/>
        <pt x="460" y="353" on="0"/>
        <pt x="490" y="314" on="0"/>
        <pt x="515" y="281" on="0"/>
        <pt x="522" y="271" on="1"/>
        <pt x="523" y="271" on="1"/>
        <pt x="523" y="663" on="1"/>
        <pt x="689" y="663" on="1"/>
        <pt x="689" y="-23" on="1"/>
        <pt x="689" y="-129" on="0"/>
        <pt x="638" y="-183" on="1"/>
        <pt x="613" y="-209" on="0"/>
        <pt x="537" y="-238" on="0"/>
        <pt x="486" y="-238" on="1"/>
        <pt x="462" y="-238" on="0"/>
        <pt x="411" y="-229" on="0"/>
        <pt x="364" y="-214" on="0"/>
        <pt x="326" y="-196" on="0"/>
        <pt x="314" y="-187" on="1"/>
        <pt x="345" y="-73" on="1"/>
        <pt x="358" y="-75" on="0"/>
        <pt x="389" y="-79" on="0"/>
        <pt x="420" y="-83" on="0"/>
        <pt x="448" y="-85" on="0"/>
        <pt x="457" y="-85" on="1"/>
        <pt x="497" y="-85" on="0"/>
        <pt x="511" y="-71" on="1"/>
        <pt x="523" y="-59" on="0"/>
        <pt x="523" y="-28" on="1"/>
        <pt x="523" y="22" on="1"/>
      </contour>
    </TTGlyph>
    <TTGlyph name="Eogonek" xMin="61" yMin="-229" xMax="585" yMax="663">
      <contour>
        <pt x="576" y="663" on="1"/>
        <pt x="576" y="516" on="1"/>
        <pt x="239" y="516" on="1"/>
        <pt x="239" y="407" on="1"/>
        <pt x="546" y="407" on="1"/>
        <pt x="546" y="263" on="1"/>
        <pt x="239" y="263" on="1"/>
        <pt x="239" y="147" on="1"/>
        <pt x="585" y="147" on="1"/>
        <pt x="585" y="0" on="1"/>
        <pt x="495" y="0" on="1"/>
        <pt x="482" y="0" on="0"/>
        <pt x="468" y="-8" on="0"/>
        <pt x="460" y="-19" on="1"/>
        <pt x="441" y="-50" on="0"/>
        <pt x="441" y="-76" on="1"/>
        <pt x="441" y="-102" on="0"/>
        <pt x="475" y="-123" on="0"/>
        <pt x="501" y="-123" on="1"/>
        <pt x="512" y="-123" on="0"/>
        <pt x="545" y="-119" on="0"/>
        <pt x="562" y="-117" on="1"/>
        <pt x="585" y="-199" on="1"/>
        <pt x="562" y="-213" on="0"/>
        <pt x="498" y="-229" on="0"/>
        <pt x="470" y="-229" on="1"/>
        <pt x="403" y="-229" on="0"/>
        <pt x="322" y="-165" on="0"/>
        <pt x="322" y="-112" on="1"/>
        <pt x="322" y="-80" on="0"/>
        <pt x="349" y="-25" on="0"/>
        <pt x="371" y="0" on="1"/>
        <pt x="61" y="0" on="1"/>
        <pt x="61" y="663" on="1"/>
      </contour>
    </TTGlyph>
    <TTGlyph name="Eth" xMin="16" yMin="0" xMax="718" yMax="663">
      <contour>
        <pt x="80" y="0" on="1"/>
        <pt x="80" y="271" on="1"/>
        <pt x="16" y="271" on="1"/>
        <pt x="16" y="404" on="1"/>
        <pt x="80" y="404" on="1"/>
        <pt x="80" y="663" on="1"/>
        <pt x="322" y="663" on="1"/>
        <pt x="425" y="663" on="0"/>
        <pt x="581" y="617" on="0"/>
        <pt x="634" y="564" on="1"/>
        <pt x="674" y="524" on="0"/>
        <pt x="718" y="408" on="0"/>
        <pt x="718" y="331" on="1"/>
        <pt x="718" y="254" on="0"/>
        <pt x="674" y="139" on="0"/>
        <pt x="634" y="99" on="1"/>
        <pt x="581" y="46" on="0"/>
        <pt x="425" y="0" on="0"/>
        <pt x="322" y="0" on="1"/>
      </contour>
      <contour>
        <pt x="317" y="153" on="1"/>
        <pt x="375" y="153" on="0"/>
        <pt x="457" y="169" on="0"/>
        <pt x="484" y="193" on="1"/>
        <pt x="507" y="213" on="0"/>
        <pt x="533" y="280" on="0"/>
        <pt x="533" y="331" on="1"/>
        <pt x="533" y="382" on="0"/>
        <pt x="507" y="450" on="0"/>
        <pt x="484" y="470" on="1"/>
        <pt x="457" y="494" on="0"/>
        <pt x="375" y="510" on="0"/>
        <pt x="317" y="510" on="1"/>
        <pt x="258" y="510" on="1"/>
        <pt x="258" y="404" on="1"/>
        <pt x="403" y="404" on="1"/>
        <pt x="403" y="271" on="1"/>
        <pt x="258" y="271" on="1"/>
        <pt x="258" y="153" on="1"/>
      </contour>
    </TTGlyph>
    <TTGlyph name="Euro" xMin="30" yMin="-10" xMax="664" yMax="673">
      <contour>
        <pt x="297" y="232" on="1"/>
        <pt x="311" y="198" on="0"/>
        <pt x="368" y="156" on="0"/>
        <pt x="412" y="156" on="1"/>
        <pt x="444" y="156" on="0"/>
        <pt x="504" y="170" on="0"/>
        <pt x="546" y="188" on="1"/>
        <pt x="599" y="211" on="1"/>
        <pt x="664" y="118" on="1"/>
        <pt x="641" y="89" on="0"/>
        <pt x="578" y="42" on="0"/>
        <pt x="506" y="9" on="0"/>
        <pt x="430" y="-10" on="0"/>
        <pt x="394" y="-10" on="1"/>
        <pt x="282" y="-10" on="0"/>
        <pt x="131" y="114" on="0"/>
        <pt x="109" y="232" on="1"/>
        <pt x="30" y="232" on="1"/>
        <pt x="30" y="291" on="1"/>
        <pt x="100" y="309" on="1"/>
        <pt x="100" y="348" on="1"/>
        <pt x="30" y="348" on="1"/>
        <pt x="30" y="407" on="1"/>
        <pt x="109" y="427" on="1"/>
        <pt x="132" y="543" on="0"/>
        <pt x="285" y="673" on="0"/>
        <pt x="401" y="673" on="1"/>
        <pt x="484" y="673" on="0"/>
        <pt x="613" y="592" on="0"/>
        <pt x="651" y="511" on="1"/>
        <pt x="548" y="437" on="1"/>
        <pt x="497" y="474" on="1"/>
        <pt x="462" y="500" on="0"/>
        <pt x="419" y="516" on="0"/>
        <pt x="394" y="516" on="1"/>
        <pt x="355" y="516" on="0"/>
        <pt x="303" y="467" on="0"/>
        <pt x="292" y="429" on="1"/>
        <pt x="449" y="429" on="1"/>
        <pt x="449" y="348" on="1"/>
        <pt x="282" y="348" on="1"/>
        <pt x="282" y="313" on="1"/>
        <pt x="449" y="313" on="1"/>
        <pt x="449" y="232" on="1"/>
      </contour>
    </TTGlyph>
    <TTGlyph name="Euro.lprop" xMin="45" yMin="-10" xMax="679" yMax="673">
      <component glyphName="Euro" x="15" y="0" flags="0x4"/>
    </TTGlyph>
    <TTGlyph name="Euro.oprop" xMin="55" yMin="-8" xMax="609" yMax="496">
      <contour>
        <pt x="303" y="174" on="1"/>
        <pt x="313" y="153" on="0"/>
        <pt x="351" y="133" on="0"/>
        <pt x="383" y="133" on="1"/>
        <pt x="407" y="133" on="0"/>
        <pt x="452" y="143" on="0"/>
        <pt x="478" y="151" on="1"/>
        <pt x="560" y="176" on="1"/>
        <pt x="609" y="92" on="1"/>
        <pt x="590" y="72" on="0"/>
        <pt x="537" y="36" on="0"/>
        <pt x="475" y="8" on="0"/>
        <pt x="408" y="-8" on="0"/>
        <pt x="374" y="-8" on="1"/>
        <pt x="280" y="-8" on="0"/>
        <pt x="150" y="88" on="0"/>
        <pt x="129" y="174" on="1"/>
        <pt x="55" y="174" on="1"/>
        <pt x="55" y="217" on="1"/>
        <pt x="121" y="228" on="1"/>
        <pt x="121" y="254" on="1"/>
        <pt x="55" y="254" on="1"/>
        <pt x="55" y="297" on="1"/>
        <pt x="128" y="309" on="1"/>
        <pt x="138" y="353" on="0"/>
        <pt x="185" y="423" on="0"/>
        <pt x="250" y="471" on="0"/>
        <pt x="329" y="496" on="0"/>
        <pt x="371" y="496" on="1"/>
        <pt x="417" y="496" on="0"/>
        <pt x="494" y="467" on="0"/>
        <pt x="552" y="418" on="0"/>
        <pt x="592" y="351" on="0"/>
        <pt x="601" y="314" on="1"/>
        <pt x="500" y="270" on="1"/>
        <pt x="458" y="312" on="1"/>
        <pt x="433" y="336" on="0"/>
        <pt x="392" y="355" on="0"/>
        <pt x="370" y="355" on="1"/>
        <pt x="342" y="355" on="0"/>
        <pt x="309" y="332" on="0"/>
        <pt x="301" y="311" on="1"/>
        <pt x="402" y="311" on="1"/>
        <pt x="402" y="254" on="1"/>
        <pt x="292" y="254" on="1"/>
        <pt x="292" y="231" on="1"/>
        <pt x="402" y="231" on="1"/>
        <pt x="402" y="174" on="1"/>
      </contour>
    </TTGlyph>
    <TTGlyph name="Euro.otab" xMin="50" yMin="-8" xMax="604" yMax="496">
      <contour>
        <pt x="298" y="174" on="1"/>
        <pt x="308" y="153" on="0"/>
        <pt x="346" y="133" on="0"/>
        <pt x="378" y="133" on="1"/>
        <pt x="402" y="133" on="0"/>
        <pt x="447" y="143" on="0"/>
        <pt x="473" y="151" on="1"/>
        <pt x="555" y="176" on="1"/>
        <pt x="604" y="92" on="1"/>
        <pt x="585" y="72" on="0"/>
        <pt x="532" y="36" on="0"/>
        <pt x="470" y="8" on="0"/>
        <pt x="403" y="-8" on="0"/>
        <pt x="369" y="-8" on="1"/>
        <pt x="275" y="-8" on="0"/>
        <pt x="145" y="88" on="0"/>
        <pt x="124" y="174" on="1"/>
        <pt x="50" y="174" on="1"/>
        <pt x="50" y="217" on="1"/>
        <pt x="116" y="228" on="1"/>
        <pt x="116" y="254" on="1"/>
        <pt x="50" y="254" on="1"/>
        <pt x="50" y="297" on="1"/>
        <pt x="123" y="309" on="1"/>
        <pt x="133" y="353" on="0"/>
        <pt x="180" y="423" on="0"/>
        <pt x="245" y="471" on="0"/>
        <pt x="324" y="496" on="0"/>
        <pt x="366" y="496" on="1"/>
        <pt x="412" y="496" on="0"/>
        <pt x="489" y="467" on="0"/>
        <pt x="547" y="418" on="0"/>
        <pt x="587" y="351" on="0"/>
        <pt x="596" y="314" on="1"/>
        <pt x="495" y="270" on="1"/>
        <pt x="453" y="312" on="1"/>
        <pt x="428" y="336" on="0"/>
        <pt x="387" y="355" on="0"/>
        <pt x="365" y="355" on="1"/>
        <pt x="337" y="355" on="0"/>
        <pt x="304" y="332" on="0"/>
        <pt x="296" y="311" on="1"/>
        <pt x="397" y="311" on="1"/>
        <pt x="397" y="254" on="1"/>
        <pt x="287" y="254" on="1"/>
        <pt x="287" y="231" on="1"/>
        <pt x="397" y="231" on="1"/>
        <pt x="397" y="174" on="1"/>
      </contour>
    </TTGlyph>
    <TTGlyph name="F" xMin="61" yMin="0" xMax="567" yMax="663">
      <contour>
        <pt x="567" y="663" on="1"/>
        <pt x="567" y="516" on="1"/>
        <pt x="239" y="516" on="1"/>
        <pt x="239" y="372" on="1"/>
        <pt x="535" y="372" on="1"/>
        <pt x="535" y="228" on="1"/>
        <pt x="239" y="228" on="1"/>
        <pt x="239" y="0" on="1"/>
        <pt x="61" y="0" on="1"/>
        <pt x="61" y="663" on="1"/>
      </contour>
    </TTGlyph>
    <TTGlyph name="G" xMin="31" yMin="-10" xMax="694" yMax="673">
      <contour>
        <pt x="568" y="418" on="1"/>
        <pt x="465" y="481" on="1"/>
        <pt x="438" y="498" on="0"/>
        <pt x="392" y="512" on="0"/>
        <pt x="363" y="512" on="1"/>
        <pt x="333" y="512" on="0"/>
        <pt x="280" y="488" on="0"/>
        <pt x="240" y="442" on="0"/>
        <pt x="217" y="377" on="0"/>
        <pt x="217" y="335" on="1"/>
        <pt x="217" y="250" on="0"/>
        <pt x="306" y="157" on="0"/>
        <pt x="389" y="157" on="1"/>
        <pt x="391" y="157" on="1"/>
        <pt x="406" y="157" on="0"/>
        <pt x="439" y="159" on="0"/>
        <pt x="471" y="163" on="0"/>
        <pt x="500" y="169" on="0"/>
        <pt x="511" y="172" on="1"/>
        <pt x="517" y="174" on="0"/>
        <pt x="520" y="181" on="0"/>
        <pt x="520" y="186" on="1"/>
        <pt x="520" y="243" on="1"/>
        <pt x="428" y="243" on="1"/>
        <pt x="428" y="358" on="1"/>
        <pt x="663" y="358" on="1"/>
        <pt x="681" y="358" on="0"/>
        <pt x="694" y="347" on="0"/>
        <pt x="694" y="331" on="1"/>
        <pt x="694" y="0" on="1"/>
        <pt x="571" y="0" on="1"/>
        <pt x="543" y="57" on="1"/>
        <pt x="494" y="29" on="1"/>
        <pt x="458" y="8" on="0"/>
        <pt x="390" y="-10" on="0"/>
        <pt x="351" y="-10" on="1"/>
        <pt x="277" y="-10" on="0"/>
        <pt x="159" y="43" on="0"/>
        <pt x="76" y="134" on="0"/>
        <pt x="31" y="259" on="0"/>
        <pt x="31" y="331" on="1"/>
        <pt x="31" y="410" on="0"/>
        <pt x="85" y="537" on="0"/>
        <pt x="179" y="626" on="0"/>
        <pt x="305" y="673" on="0"/>
        <pt x="376" y="673" on="1"/>
        <pt x="428" y="673" on="0"/>
        <pt x="522" y="646" on="0"/>
        <pt x="600" y="598" on="0"/>
        <pt x="658" y="532" on="0"/>
        <pt x="673" y="493" on="1"/>
      </contour>
    </TTGlyph>
    <TTGlyph name="Gbreve" xMin="31" yMin="-10" xMax="694" yMax="908">
      <component glyphName="G" x="0" y="0" flags="0x204"/>
      <component glyphName="breve.cap" x="159" y="0" flags="0x4"/>
    </TTGlyph>
    <TTGlyph name="Gcircumflex" xMin="31" yMin="-10" xMax="694" yMax="923">
      <component glyphName="G" x="0" y="0" flags="0x204"/>
      <component glyphName="circumflex.cap" x="157" y="0" flags="0x4"/>
    </TTGlyph>
    <TTGlyph name="Gcommaaccent" xMin="31" yMin="-323" xMax="694" yMax="673">
      <component glyphName="G" x="0" y="0" flags="0x204"/>
      <component glyphName="commaaccent" x="153" y="0" flags="0x4"/>
    </TTGlyph>
    <TTGlyph name="Gdotaccent" xMin="31" yMin="-10" xMax="694" yMax="883">
      <component glyphName="G" x="0" y="0" flags="0x204"/>
      <component glyphName="dotaccent.cap" x="157" y="0" flags="0x4"/>
    </TTGlyph>
    <TTGlyph name="H" xMin="61" yMin="0" xMax="682" yMax="663">
      <contour>
        <pt x="504" y="263" on="1"/>
        <pt x="239" y="263" on="1"/>
        <pt x="239" y="0" on="1"/>
        <pt x="61" y="0" on="1"/>
        <pt x="61" y="663" on="1"/>
        <pt x="239" y="663" on="1"/>
        <pt x="239" y="416" on="1"/>
        <pt x="504" y="416" on="1"/>
        <pt x="504" y="663" on="1"/>
        <pt x="682" y="663" on="1"/>
        <pt x="682" y="0" on="1"/>
        <pt x="504" y="0" on="1"/>
      </contour>
    </TTGlyph>
    <TTGlyph name="Hbar" xMin="14" yMin="0" xMax="771" yMax="663">
      <contour>
        <pt x="525" y="263" on="1"/>
        <pt x="260" y="263" on="1"/>
        <pt x="260" y="0" on="1"/>
        <pt x="82" y="0" on="1"/>
        <pt x="82" y="484" on="1"/>
        <pt x="14" y="484" on="1"/>
        <pt x="14" y="590" on="1"/>
        <pt x="82" y="590" on="1"/>
        <pt x="82" y="663" on="1"/>
        <pt x="260" y="663" on="1"/>
        <pt x="260" y="590" on="1"/>
        <pt x="525" y="590" on="1"/>
        <pt x="525" y="663" on="1"/>
        <pt x="703" y="663" on="1"/>
        <pt x="703" y="590" on="1"/>
        <pt x="771" y="590" on="1"/>
        <pt x="771" y="484" on="1"/>
        <pt x="703" y="484" on="1"/>
        <pt x="703" y="0" on="1"/>
        <pt x="525" y="0" on="1"/>
      </contour>
      <contour>
        <pt x="525" y="416" on="1"/>
        <pt x="525" y="484" on="1"/>
        <pt x="260" y="484" on="1"/>
        <pt x="260" y="416" on="1"/>
      </contour>
    </TTGlyph>
    <TTGlyph name="Hcircumflex" xMin="61" yMin="0" xMax="682" yMax="923">
      <component glyphName="H" x="0" y="0" flags="0x204"/>
      <component glyphName="circumflex.cap" x="155" y="0" flags="0x4"/>
    </TTGlyph>
    <TTGlyph name="I" xMin="63" yMin="0" xMax="241" yMax="663">
      <contour>
        <pt x="241" y="0" on="1"/>
        <pt x="63" y="0" on="1"/>
        <pt x="63" y="663" on="1"/>
        <pt x="241" y="663" on="1"/>
      </contour>
    </TTGlyph>
    <TTGlyph name="IJ" xMin="63" yMin="-10" xMax="788" yMax="663">
      <component glyphName="I" x="0" y="0" flags="0x4"/>
      <component glyphName="J" x="309" y="0" flags="0x4"/>
    </TTGlyph>
    <TTGlyph name="Iacute" xMin="11" yMin="0" xMax="293" yMax="941">
      <component glyphName="I" x="0" y="0" flags="0x204"/>
      <component glyphName="acute.cap" x="-65" y="0" flags="0x4"/>
    </TTGlyph>
    <TTGlyph name="Ibreve" xMin="-27" yMin="0" xMax="331" yMax="908">
      <component glyphName="I" x="0" y="0" flags="0x204"/>
      <component glyphName="breve.cap" x="-65" y="0" flags="0x4"/>
    </TTGlyph>
    <TTGlyph name="Icircumflex" xMin="-38" yMin="0" xMax="341" yMax="923">
      <component glyphName="I" x="0" y="0" flags="0x204"/>
      <component glyphName="circumflex.cap" x="-65" y="0" flags="0x4"/>
    </TTGlyph>
    <TTGlyph name="Idieresis" xMin="-34" yMin="0" xMax="338" yMax="884">
      <component glyphName="I" x="0" y="0" flags="0x204"/>
      <component glyphName="dieresis.cap" x="-65" y="0" flags="0x4"/>
    </TTGlyph>
    <TTGlyph name="Idotaccent" xMin="63" yMin="0" xMax="241" yMax="883">
      <component glyphName="I" x="0" y="0" flags="0x204"/>
      <component glyphName="dotaccent.cap" x="-61" y="0" flags="0x4"/>
    </TTGlyph>
    <TTGlyph name="Igrave" xMin="11" yMin="0" xMax="293" yMax="941">
      <component glyphName="I" x="0" y="0" flags="0x204"/>
      <component glyphName="grave.cap" x="-65" y="0" flags="0x4"/>
    </TTGlyph>
    <TTGlyph name="Imacron" xMin="-14" yMin="0" xMax="318" yMax="873">
      <component glyphName="I" x="0" y="0" flags="0x204"/>
      <component glyphName="macron.cap" x="-65" y="0" flags="0x4"/>
    </TTGlyph>
    <TTGlyph name="Iogonek" xMin="14" yMin="-229" xMax="277" yMax="663">
      <contour>
        <pt x="63" y="663" on="1"/>
        <pt x="241" y="663" on="1"/>
        <pt x="241" y="0" on="1"/>
        <pt x="187" y="0" on="1"/>
        <pt x="174" y="0" on="0"/>
        <pt x="160" y="-8" on="0"/>
        <pt x="152" y="-19" on="1"/>
        <pt x="133" y="-50" on="0"/>
        <pt x="133" y="-76" on="1"/>
        <pt x="133" y="-102" on="0"/>
        <pt x="167" y="-123" on="0"/>
        <pt x="193" y="-123" on="1"/>
        <pt x="204" y="-123" on="0"/>
        <pt x="237" y="-119" on="0"/>
        <pt x="254" y="-117" on="1"/>
        <pt x="277" y="-199" on="1"/>
        <pt x="254" y="-213" on="0"/>
        <pt x="190" y="-229" on="0"/>
        <pt x="162" y="-229" on="1"/>
        <pt x="95" y="-229" on="0"/>
        <pt x="14" y="-165" on="0"/>
        <pt x="14" y="-112" on="1"/>
        <pt x="14" y="-80" on="0"/>
        <pt x="41" y="-25" on="0"/>
        <pt x="63" y="0" on="1"/>
      </contour>
    </TTGlyph>
    <TTGlyph name="Itilde" xMin="-45" yMin="0" xMax="349" yMax="904">
      <component glyphName="I" x="0" y="0" flags="0x204"/>
      <component glyphName="tilde.cap" x="-65" y="0" flags="0x4"/>
    </TTGlyph>
    <TTGlyph name="J" xMin="16" yMin="-10" xMax="479" yMax="663">
      <contour>
        <pt x="48" y="170" on="1"/>
        <pt x="124" y="161" on="1"/>
        <pt x="153" y="158" on="0"/>
        <pt x="206" y="154" on="0"/>
        <pt x="224" y="154" on="1"/>
        <pt x="246" y="154" on="0"/>
        <pt x="276" y="160" on="0"/>
        <pt x="286" y="169" on="1"/>
        <pt x="301" y="184" on="0"/>
        <pt x="301" y="228" on="1"/>
        <pt x="301" y="663" on="1"/>
        <pt x="479" y="663" on="1"/>
        <pt x="479" y="232" on="1"/>
        <pt x="479" y="172" on="0"/>
        <pt x="449" y="80" on="0"/>
        <pt x="417" y="48" on="1"/>
        <pt x="390" y="21" on="0"/>
        <pt x="310" y="-10" on="0"/>
        <pt x="257" y="-10" on="1"/>
        <pt x="188" y="-10" on="0"/>
        <pt x="69" y="24" on="0"/>
        <pt x="16" y="56" on="1"/>
      </contour>
    </TTGlyph>
    <TTGlyph name="Jcircumflex" xMin="16" yMin="-10" xMax="574" yMax="923">
      <component glyphName="J" x="0" y="0" flags="0x204"/>
      <component glyphName="circumflex.cap" x="168" y="0" flags="0x4"/>
    </TTGlyph>
    <TTGlyph name="K" xMin="61" yMin="0" xMax="700" yMax="671">
      <contour>
        <pt x="330" y="278" on="1"/>
        <pt x="311" y="264" on="0"/>
        <pt x="260" y="240" on="0"/>
        <pt x="240" y="235" on="1"/>
        <pt x="240" y="0" on="1"/>
        <pt x="61" y="0" on="1"/>
        <pt x="61" y="663" on="1"/>
        <pt x="240" y="663" on="1"/>
        <pt x="240" y="379" on="1"/>
        <pt x="563" y="671" on="1"/>
        <pt x="666" y="566" on="1"/>
        <pt x="460" y="385" on="1"/>
        <pt x="700" y="0" on="1"/>
        <pt x="524" y="0" on="1"/>
        <pt x="510" y="0" on="0"/>
        <pt x="495" y="5" on="0"/>
        <pt x="487" y="19" on="1"/>
      </contour>
    </TTGlyph>
    <TTGlyph name="Kcommaaccent" xMin="61" yMin="-323" xMax="700" yMax="671">
      <component glyphName="K" x="0" y="0" flags="0x204"/>
      <component glyphName="commaaccent" x="134" y="0" flags="0x4"/>
    </TTGlyph>
    <TTGlyph name="L" xMin="64" yMin="0" xMax="567" yMax="663">
      <contour>
        <pt x="64" y="663" on="1"/>
        <pt x="242" y="663" on="1"/>
        <pt x="242" y="147" on="1"/>
        <pt x="567" y="147" on="1"/>
        <pt x="567" y="0" on="1"/>
        <pt x="64" y="0" on="1"/>
      </contour>
    </TTGlyph>
    <TTGlyph name="Lacute" xMin="26" yMin="0" xMax="566" yMax="941">
      <component glyphName="L" x="-1" y="0" flags="0x4"/>
      <component glyphName="acute.cap" x="-50" y="0" flags="0x4"/>
    </TTGlyph>
    <TTGlyph name="Lcaron" xMin="64" yMin="0" xMax="567" yMax="663">
      <component glyphName="L" x="0" y="0" flags="0x204"/>
      <component glyphName="commaaccent" x="193" y="721" flags="0x4"/>
    </TTGlyph>
    <TTGlyph name="Lcommaaccent" xMin="64" yMin="-323" xMax="567" yMax="663">
      <component glyphName="L" x="0" y="0" flags="0x204"/>
      <component glyphName="commaaccent" x="111" y="0" flags="0x4"/>
    </TTGlyph>
    <TTGlyph name="Ldot" xMin="64" yMin="0" xMax="567" yMax="663">
      <component glyphName="L" x="0" y="0" flags="0x204"/>
      <component glyphName="dotaccent" x="230" y="-276" flags="0x4"/>
    </TTGlyph>
    <TTGlyph name="Lslash" xMin="4" yMin="0" xMax="642" yMax="663">
      <contour>
        <pt x="139" y="663" on="1"/>
        <pt x="317" y="663" on="1"/>
        <pt x="317" y="484" on="1"/>
        <pt x="445" y="566" on="1"/>
        <pt x="523" y="448" on="1"/>
        <pt x="317" y="314" on="1"/>
        <pt x="317" y="147" on="1"/>
        <pt x="642" y="147" on="1"/>
        <pt x="642" y="0" on="1"/>
        <pt x="139" y="0" on="1"/>
        <pt x="139" y="215" on="1"/>
        <pt x="82" y="179" on="1"/>
        <pt x="4" y="297" on="1"/>
        <pt x="139" y="385" on="1"/>
      </contour>
    </TTGlyph>
    <TTGlyph name="M" xMin="61" yMin="0" xMax="802" yMax="663">
      <contour>
        <pt x="630" y="646" on="1"/>
        <pt x="639" y="657" on="0"/>
        <pt x="652" y="663" on="0"/>
        <pt x="667" y="663" on="1"/>
        <pt x="802" y="663" on="1"/>
        <pt x="802" y="0" on="1"/>
        <pt x="631" y="0" on="1"/>
        <pt x="631" y="409" on="1"/>
        <pt x="630" y="409" on="1"/>
        <pt x="489" y="234" on="1"/>
        <pt x="390" y="234" on="1"/>
        <pt x="379" y="234" on="0"/>
        <pt x="366" y="239" on="0"/>
        <pt x="360" y="247" on="1"/>
        <pt x="232" y="409" on="1"/>
        <pt x="231" y="409" on="1"/>
        <pt x="231" y="0" on="1"/>
        <pt x="61" y="0" on="1"/>
        <pt x="61" y="663" on="1"/>
        <pt x="205" y="663" on="1"/>
        <pt x="220" y="663" on="0"/>
        <pt x="233" y="657" on="0"/>
        <pt x="242" y="646" on="1"/>
        <pt x="435" y="405" on="1"/>
        <pt x="438" y="405" on="1"/>
      </contour>
    </TTGlyph>
    <TTGlyph name="N" xMin="61" yMin="0" xMax="689" yMax="663">
      <contour>
        <pt x="191" y="663" on="1"/>
        <pt x="203" y="663" on="0"/>
        <pt x="215" y="658" on="0"/>
        <pt x="222" y="650" on="1"/>
        <pt x="413" y="412" on="1"/>
        <pt x="448" y="368" on="0"/>
        <pt x="508" y="290" on="0"/>
        <pt x="522" y="270" on="1"/>
        <pt x="523" y="270" on="1"/>
        <pt x="523" y="663" on="1"/>
        <pt x="689" y="663" on="1"/>
        <pt x="689" y="0" on="1"/>
        <pt x="562" y="0" on="1"/>
        <pt x="550" y="0" on="0"/>
        <pt x="538" y="5" on="0"/>
        <pt x="531" y="13" on="1"/>
        <pt x="338" y="253" on="1"/>
        <pt x="322" y="272" on="0"/>
        <pt x="289" y="314" on="0"/>
        <pt x="259" y="352" on="0"/>
        <pt x="235" y="384" on="0"/>
        <pt x="228" y="395" on="1"/>
        <pt x="227" y="395" on="1"/>
        <pt x="227" y="0" on="1"/>
        <pt x="61" y="0" on="1"/>
        <pt x="61" y="663" on="1"/>
      </contour>
    </TTGlyph>
    <TTGlyph name="Nacute" xMin="61" yMin="0" xMax="689" yMax="941">
      <component glyphName="N" x="0" y="0" flags="0x204"/>
      <component glyphName="acute.cap" x="166" y="0" flags="0x4"/>
    </TTGlyph>
    <TTGlyph name="Ncaron" xMin="61" yMin="0" xMax="689" yMax="936">
      <component glyphName="N" x="0" y="0" flags="0x204"/>
      <component glyphName="caron.cap" x="156" y="0" flags="0x4"/>
    </TTGlyph>
    <TTGlyph name="Ncommaaccent" xMin="61" yMin="-323" xMax="689" yMax="663">
      <component glyphName="N" x="0" y="0" flags="0x204"/>
      <component glyphName="commaaccent" x="173" y="0" flags="0x4"/>
    </TTGlyph>
    <TTGlyph name="Ntilde" xMin="61" yMin="0" xMax="689" yMax="904">
      <component glyphName="N" x="0" y="0" flags="0x204"/>
      <component glyphName="tilde.cap" x="156" y="0" flags="0x4"/>
    </TTGlyph>
    <TTGlyph name="O" xMin="31" yMin="-10" xMax="715" yMax="673">
      <contour>
        <pt x="715" y="331" on="1"/>
        <pt x="715" y="253" on="0"/>
        <pt x="660" y="127" on="0"/>
        <pt x="567" y="38" on="0"/>
        <pt x="443" y="-10" on="0"/>
        <pt x="373" y="-10" on="1"/>
        <pt x="303" y="-10" on="0"/>
        <pt x="179" y="38" on="0"/>
        <pt x="86" y="127" on="0"/>
        <pt x="31" y="253" on="0"/>
        <pt x="31" y="331" on="1"/>
        <pt x="31" y="409" on="0"/>
        <pt x="86" y="535" on="0"/>
        <pt x="179" y="624" on="0"/>
        <pt x="303" y="673" on="0"/>
        <pt x="373" y="673" on="1"/>
        <pt x="443" y="673" on="0"/>
        <pt x="567" y="624" on="0"/>
        <pt x="660" y="535" on="0"/>
        <pt x="715" y="409" on="0"/>
      </contour>
      <contour>
        <pt x="529" y="331" on="1"/>
        <pt x="529" y="410" on="0"/>
        <pt x="448" y="499" on="0"/>
        <pt x="373" y="499" on="1"/>
        <pt x="298" y="499" on="0"/>
        <pt x="217" y="410" on="0"/>
        <pt x="217" y="331" on="1"/>
        <pt x="217" y="252" on="0"/>
        <pt x="298" y="164" on="0"/>
        <pt x="373" y="164" on="1"/>
        <pt x="448" y="164" on="0"/>
        <pt x="529" y="252" on="0"/>
      </contour>
    </TTGlyph>
    <TTGlyph name="OE" xMin="31" yMin="-10" xMax="1048" yMax="673">
      <contour>
        <pt x="1039" y="663" on="1"/>
        <pt x="1039" y="516" on="1"/>
        <pt x="702" y="516" on="1"/>
        <pt x="702" y="407" on="1"/>
        <pt x="1009" y="407" on="1"/>
        <pt x="1009" y="263" on="1"/>
        <pt x="702" y="263" on="1"/>
        <pt x="702" y="147" on="1"/>
        <pt x="1048" y="147" on="1"/>
        <pt x="1048" y="0" on="1"/>
        <pt x="524" y="0" on="1"/>
        <pt x="524" y="53" on="1"/>
        <pt x="447" y="-10" on="0"/>
        <pt x="343" y="-10" on="1"/>
        <pt x="283" y="-10" on="0"/>
        <pt x="170" y="38" on="0"/>
        <pt x="83" y="127" on="0"/>
        <pt x="31" y="253" on="0"/>
        <pt x="31" y="331" on="1"/>
        <pt x="31" y="409" on="0"/>
        <pt x="83" y="535" on="0"/>
        <pt x="170" y="624" on="0"/>
        <pt x="283" y="673" on="0"/>
        <pt x="343" y="673" on="1"/>
        <pt x="447" y="673" on="0"/>
        <pt x="524" y="610" on="1"/>
        <pt x="524" y="663" on="1"/>
      </contour>
      <contour>
        <pt x="524" y="331" on="1"/>
        <pt x="524" y="410" on="0"/>
        <pt x="448" y="499" on="0"/>
        <pt x="373" y="499" on="1"/>
        <pt x="298" y="499" on="0"/>
        <pt x="217" y="410" on="0"/>
        <pt x="217" y="331" on="1"/>
        <pt x="217" y="252" on="0"/>
        <pt x="298" y="164" on="0"/>
        <pt x="373" y="164" on="1"/>
        <pt x="448" y="164" on="0"/>
        <pt x="524" y="252" on="0"/>
      </contour>
    </TTGlyph>
    <TTGlyph name="Oacute" xMin="31" yMin="-10" xMax="715" yMax="941">
      <component glyphName="O" x="0" y="0" flags="0x204"/>
      <component glyphName="acute.cap" x="156" y="0" flags="0x4"/>
    </TTGlyph>
    <TTGlyph name="Obreve" xMin="31" yMin="-10" xMax="715" yMax="908">
      <component glyphName="O" x="0" y="0" flags="0x204"/>
      <component glyphName="breve.cap" x="156" y="0" flags="0x4"/>
    </TTGlyph>
    <TTGlyph name="Ocircumflex" xMin="31" yMin="-10" xMax="715" yMax="923">
      <component glyphName="O" x="0" y="0" flags="0x204"/>
      <component glyphName="circumflex.cap" x="156" y="0" flags="0x4"/>
    </TTGlyph>
    <TTGlyph name="Odieresis" xMin="31" yMin="-10" xMax="715" yMax="884">
      <component glyphName="O" x="0" y="0" flags="0x204"/>
      <component glyphName="dieresis.cap" x="156" y="0" flags="0x4"/>
    </TTGlyph>
    <TTGlyph name="Ograve" xMin="31" yMin="-10" xMax="715" yMax="941">
      <component glyphName="O" x="0" y="0" flags="0x204"/>
      <component glyphName="grave.cap" x="156" y="0" flags="0x4"/>
    </TTGlyph>
    <TTGlyph name="Ohungarumlaut" xMin="31" yMin="-10" xMax="715" yMax="999">
      <component glyphName="O" x="0" y="0" flags="0x204"/>
      <component glyphName="hungarumlaut.cap" x="165" y="0" flags="0x4"/>
    </TTGlyph>
    <TTGlyph name="Omacron" xMin="31" yMin="-10" xMax="715" yMax="873">
      <component glyphName="O" x="0" y="0" flags="0x204"/>
      <component glyphName="macron.cap" x="156" y="0" flags="0x4"/>
    </TTGlyph>
    <TTGlyph name="Omega" xMin="51" yMin="0" xMax="721" yMax="673">
      <contour>
        <pt x="420" y="70" on="1"/>
        <pt x="420" y="83" on="0"/>
        <pt x="424" y="97" on="0"/>
        <pt x="432" y="111" on="1"/>
        <pt x="475" y="188" on="1"/>
        <pt x="491" y="217" on="0"/>
        <pt x="515" y="265" on="0"/>
        <pt x="530" y="307" on="0"/>
        <pt x="538" y="348" on="0"/>
        <pt x="538" y="370" on="1"/>
        <pt x="538" y="405" on="0"/>
        <pt x="514" y="456" on="0"/>
        <pt x="473" y="489" on="0"/>
        <pt x="418" y="504" on="0"/>
        <pt x="386" y="504" on="1"/>
        <pt x="354" y="504" on="0"/>
        <pt x="299" y="489" on="0"/>
        <pt x="258" y="456" on="0"/>
        <pt x="234" y="405" on="0"/>
        <pt x="234" y="370" on="1"/>
        <pt x="234" y="348" on="0"/>
        <pt x="242" y="307" on="0"/>
        <pt x="257" y="265" on="0"/>
        <pt x="281" y="217" on="0"/>
        <pt x="297" y="188" on="1"/>
        <pt x="340" y="111" on="1"/>
        <pt x="348" y="97" on="0"/>
        <pt x="352" y="83" on="0"/>
        <pt x="352" y="70" on="1"/>
        <pt x="352" y="0" on="1"/>
        <pt x="53" y="0" on="1"/>
        <pt x="53" y="142" on="1"/>
        <pt x="166" y="142" on="1"/>
        <pt x="112" y="198" on="0"/>
        <pt x="51" y="322" on="0"/>
        <pt x="51" y="389" on="1"/>
        <pt x="51" y="452" on="0"/>
        <pt x="100" y="557" on="0"/>
        <pt x="188" y="632" on="0"/>
        <pt x="311" y="673" on="0"/>
        <pt x="386" y="673" on="1"/>
        <pt x="461" y="673" on="0"/>
        <pt x="584" y="632" on="0"/>
        <pt x="672" y="557" on="0"/>
        <pt x="721" y="452" on="0"/>
        <pt x="721" y="389" on="1"/>
        <pt x="721" y="320" on="0"/>
        <pt x="658" y="198" on="0"/>
        <pt x="605" y="142" on="1"/>
        <pt x="719" y="142" on="1"/>
        <pt x="719" y="0" on="1"/>
        <pt x="420" y="0" on="1"/>
      </contour>
    </TTGlyph>
    <TTGlyph name="Oslash" xMin="31" yMin="-52" xMax="715" yMax="723">
      <contour>
        <pt x="715" y="331" on="1"/>
        <pt x="715" y="253" on="0"/>
        <pt x="660" y="127" on="0"/>
        <pt x="567" y="38" on="0"/>
        <pt x="443" y="-10" on="0"/>
        <pt x="373" y="-10" on="1"/>
        <pt x="328" y="-10" on="0"/>
        <pt x="244" y="10" on="0"/>
        <pt x="207" y="29" on="1"/>
        <pt x="143" y="-52" on="1"/>
        <pt x="52" y="20" on="1"/>
        <pt x="115" y="100" on="1"/>
        <pt x="76" y="144" on="0"/>
        <pt x="31" y="260" on="0"/>
        <pt x="31" y="331" on="1"/>
        <pt x="31" y="409" on="0"/>
        <pt x="86" y="535" on="0"/>
        <pt x="179" y="624" on="0"/>
        <pt x="303" y="673" on="0"/>
        <pt x="373" y="673" on="1"/>
        <pt x="462" y="673" on="0"/>
        <pt x="536" y="635" on="1"/>
        <pt x="605" y="723" on="1"/>
        <pt x="696" y="651" on="1"/>
        <pt x="628" y="565" on="1"/>
        <pt x="669" y="520" on="0"/>
        <pt x="715" y="403" on="0"/>
      </contour>
      <contour>
        <pt x="529" y="335" on="1"/>
        <pt x="529" y="361" on="0"/>
        <pt x="521" y="405" on="0"/>
        <pt x="513" y="419" on="1"/>
        <pt x="319" y="171" on="1"/>
        <pt x="339" y="164" on="0"/>
        <pt x="371" y="164" on="1"/>
        <pt x="451" y="164" on="0"/>
        <pt x="529" y="251" on="0"/>
      </contour>
      <contour>
        <pt x="217" y="327" on="1"/>
        <pt x="217" y="281" on="0"/>
        <pt x="231" y="248" on="1"/>
        <pt x="425" y="494" on="1"/>
        <pt x="405" y="500" on="0"/>
        <pt x="377" y="500" on="1"/>
        <pt x="296" y="500" on="0"/>
        <pt x="217" y="412" on="0"/>
      </contour>
    </TTGlyph>
    <TTGlyph name="Oslashacute" xMin="31" yMin="-52" xMax="715" yMax="941">
      <component glyphName="Oslash" x="0" y="0" flags="0x204"/>
      <component glyphName="acute.cap" x="156" y="0" flags="0x4"/>
    </TTGlyph>
    <TTGlyph name="Otilde" xMin="31" yMin="-10" xMax="715" yMax="904">
      <component glyphName="O" x="0" y="0" flags="0x204"/>
      <component glyphName="tilde.cap" x="156" y="0" flags="0x4"/>
    </TTGlyph>
    <TTGlyph name="P" xMin="61" yMin="0" xMax="632" yMax="663">
      <contour>
        <pt x="239" y="195" on="1"/>
        <pt x="239" y="0" on="1"/>
        <pt x="61" y="0" on="1"/>
        <pt x="61" y="663" on="1"/>
        <pt x="347" y="663" on="1"/>
        <pt x="430" y="663" on="0"/>
        <pt x="540" y="631" on="0"/>
        <pt x="575" y="596" on="1"/>
        <pt x="632" y="539" on="0"/>
        <pt x="632" y="433" on="1"/>
        <pt x="632" y="376" on="0"/>
        <pt x="601" y="289" on="0"/>
        <pt x="572" y="260" on="1"/>
        <pt x="539" y="227" on="0"/>
        <pt x="444" y="195" on="0"/>
        <pt x="369" y="195" on="1"/>
      </contour>
      <contour>
        <pt x="403" y="338" on="1"/>
        <pt x="416" y="338" on="0"/>
        <pt x="430" y="345" on="0"/>
        <pt x="437" y="356" on="1"/>
        <pt x="445" y="369" on="0"/>
        <pt x="452" y="414" on="0"/>
        <pt x="452" y="432" on="1"/>
        <pt x="452" y="451" on="0"/>
        <pt x="442" y="485" on="0"/>
        <pt x="433" y="494" on="1"/>
        <pt x="421" y="506" on="0"/>
        <pt x="380" y="514" on="0"/>
        <pt x="345" y="514" on="1"/>
        <pt x="239" y="514" on="1"/>
        <pt x="239" y="338" on="1"/>
      </contour>
    </TTGlyph>
    <TTGlyph name="Q" xMin="31" yMin="-206" xMax="715" yMax="673">
      <contour>
        <pt x="715" y="331" on="1"/>
        <pt x="715" y="229" on="0"/>
        <pt x="623" y="77" on="0"/>
        <pt x="549" y="35" on="1"/>
        <pt x="680" y="-126" on="1"/>
        <pt x="499" y="-206" on="1"/>
        <pt x="391" y="-9" on="1"/>
        <pt x="386" y="-10" on="0"/>
        <pt x="378" y="-10" on="0"/>
        <pt x="373" y="-10" on="1"/>
        <pt x="303" y="-10" on="0"/>
        <pt x="179" y="38" on="0"/>
        <pt x="86" y="127" on="0"/>
        <pt x="31" y="253" on="0"/>
        <pt x="31" y="331" on="1"/>
        <pt x="31" y="409" on="0"/>
        <pt x="86" y="535" on="0"/>
        <pt x="179" y="624" on="0"/>
        <pt x="303" y="673" on="0"/>
        <pt x="373" y="673" on="1"/>
        <pt x="443" y="673" on="0"/>
        <pt x="567" y="624" on="0"/>
        <pt x="660" y="535" on="0"/>
        <pt x="715" y="409" on="0"/>
      </contour>
      <contour>
        <pt x="529" y="331" on="1"/>
        <pt x="529" y="410" on="0"/>
        <pt x="448" y="499" on="0"/>
        <pt x="373" y="499" on="1"/>
        <pt x="298" y="499" on="0"/>
        <pt x="217" y="410" on="0"/>
        <pt x="217" y="331" on="1"/>
        <pt x="217" y="252" on="0"/>
        <pt x="298" y="164" on="0"/>
        <pt x="373" y="164" on="1"/>
        <pt x="448" y="164" on="0"/>
        <pt x="529" y="252" on="0"/>
      </contour>
    </TTGlyph>
    <TTGlyph name="R" xMin="61" yMin="0" xMax="677" yMax="663">
      <contour>
        <pt x="239" y="0" on="1"/>
        <pt x="61" y="0" on="1"/>
        <pt x="61" y="663" on="1"/>
        <pt x="351" y="663" on="1"/>
        <pt x="435" y="663" on="0"/>
        <pt x="546" y="634" on="0"/>
        <pt x="581" y="600" on="1"/>
        <pt x="608" y="573" on="0"/>
        <pt x="638" y="495" on="0"/>
        <pt x="638" y="445" on="1"/>
        <pt x="638" y="374" on="0"/>
        <pt x="574" y="269" on="0"/>
        <pt x="528" y="240" on="1"/>
        <pt x="677" y="0" on="1"/>
        <pt x="500" y="0" on="1"/>
        <pt x="488" y="0" on="0"/>
        <pt x="477" y="6" on="0"/>
        <pt x="470" y="17" on="1"/>
        <pt x="369" y="189" on="1"/>
        <pt x="361" y="203" on="0"/>
        <pt x="351" y="209" on="0"/>
        <pt x="337" y="209" on="1"/>
        <pt x="239" y="209" on="1"/>
      </contour>
      <contour>
        <pt x="407" y="350" on="1"/>
        <pt x="420" y="350" on="0"/>
        <pt x="435" y="357" on="0"/>
        <pt x="443" y="368" on="1"/>
        <pt x="451" y="381" on="0"/>
        <pt x="458" y="421" on="0"/>
        <pt x="458" y="436" on="1"/>
        <pt x="458" y="454" on="0"/>
        <pt x="447" y="487" on="0"/>
        <pt x="439" y="495" on="1"/>
        <pt x="427" y="506" on="0"/>
        <pt x="387" y="514" on="0"/>
        <pt x="354" y="514" on="1"/>
        <pt x="239" y="514" on="1"/>
        <pt x="239" y="350" on="1"/>
      </contour>
    </TTGlyph>
    <TTGlyph name="Racute" xMin="61" yMin="0" xMax="677" yMax="941">
      <component glyphName="R" x="0" y="0" flags="0x204"/>
      <component glyphName="acute.cap" x="139" y="0" flags="0x4"/>
    </TTGlyph>
    <TTGlyph name="Rcaron" xMin="61" yMin="0" xMax="677" yMax="936">
      <component glyphName="R" x="0" y="0" flags="0x204"/>
      <component glyphName="caron.cap" x="132" y="0" flags="0x4"/>
    </TTGlyph>
    <TTGlyph name="Rcommaaccent" xMin="61" yMin="-323" xMax="677" yMax="663">
      <component glyphName="R" x="0" y="0" flags="0x204"/>
      <component glyphName="commaaccent" x="145" y="0" flags="0x4"/>
    </TTGlyph>
    <TTGlyph name="S" xMin="24" yMin="-10" xMax="596" yMax="673">
      <contour>
        <pt x="136" y="170" on="1"/>
        <pt x="192" y="159" on="0"/>
        <pt x="285" y="147" on="0"/>
        <pt x="317" y="147" on="1"/>
        <pt x="422" y="147" on="0"/>
        <pt x="422" y="201" on="1"/>
        <pt x="422" y="224" on="0"/>
        <pt x="379" y="245" on="0"/>
        <pt x="328" y="257" on="1"/>
        <pt x="262" y="273" on="1"/>
        <pt x="209" y="286" on="0"/>
        <pt x="125" y="319" on="0"/>
        <pt x="66" y="367" on="0"/>
        <pt x="35" y="433" on="0"/>
        <pt x="35" y="478" on="1"/>
        <pt x="35" y="529" on="0"/>
        <pt x="78" y="602" on="0"/>
        <pt x="153" y="650" on="0"/>
        <pt x="256" y="673" on="0"/>
        <pt x="317" y="673" on="1"/>
        <pt x="377" y="673" on="0"/>
        <pt x="508" y="647" on="0"/>
        <pt x="561" y="622" on="1"/>
        <pt x="532" y="500" on="1"/>
        <pt x="451" y="508" on="1"/>
        <pt x="418" y="511" on="0"/>
        <pt x="345" y="516" on="0"/>
        <pt x="317" y="516" on="1"/>
        <pt x="260" y="516" on="0"/>
        <pt x="207" y="504" on="0"/>
        <pt x="207" y="482" on="1"/>
        <pt x="207" y="465" on="0"/>
        <pt x="247" y="445" on="0"/>
        <pt x="294" y="434" on="1"/>
        <pt x="356" y="419" on="1"/>
        <pt x="419" y="404" on="0"/>
        <pt x="510" y="369" on="0"/>
        <pt x="569" y="323" on="0"/>
        <pt x="596" y="260" on="0"/>
        <pt x="596" y="215" on="1"/>
        <pt x="596" y="161" on="0"/>
        <pt x="556" y="78" on="0"/>
        <pt x="483" y="20" on="0"/>
        <pt x="381" y="-10" on="0"/>
        <pt x="320" y="-10" on="1"/>
        <pt x="239" y="-10" on="0"/>
        <pt x="83" y="33" on="0"/>
        <pt x="24" y="66" on="1"/>
        <pt x="66" y="184" on="1"/>
      </contour>
    </TTGlyph>
    <TTGlyph name="Sacute" xMin="24" yMin="-10" xMax="596" yMax="941">
      <component glyphName="S" x="0" y="0" flags="0x204"/>
      <component glyphName="acute.cap" x="103" y="0" flags="0x4"/>
    </TTGlyph>
    <TTGlyph name="Scaron" xMin="24" yMin="-10" xMax="596" yMax="936">
      <component glyphName="S" x="0" y="0" flags="0x204"/>
      <component glyphName="caron.cap" x="98" y="0" flags="0x4"/>
    </TTGlyph>
    <TTGlyph name="Scedilla" xMin="24" yMin="-248" xMax="596" yMax="673">
      <contour>
        <pt x="136" y="170" on="1"/>
        <pt x="192" y="159" on="0"/>
        <pt x="285" y="147" on="0"/>
        <pt x="317" y="147" on="1"/>
        <pt x="422" y="147" on="0"/>
        <pt x="422" y="201" on="1"/>
        <pt x="422" y="224" on="0"/>
        <pt x="379" y="245" on="0"/>
        <pt x="328" y="257" on="1"/>
        <pt x="262" y="273" on="1"/>
        <pt x="209" y="286" on="0"/>
        <pt x="125" y="319" on="0"/>
        <pt x="66" y="367" on="0"/>
        <pt x="35" y="433" on="0"/>
        <pt x="35" y="478" on="1"/>
        <pt x="35" y="529" on="0"/>
        <pt x="78" y="602" on="0"/>
        <pt x="153" y="650" on="0"/>
        <pt x="256" y="673" on="0"/>
        <pt x="317" y="673" on="1"/>
        <pt x="377" y="673" on="0"/>
        <pt x="508" y="647" on="0"/>
        <pt x="561" y="622" on="1"/>
        <pt x="532" y="500" on="1"/>
        <pt x="451" y="508" on="1"/>
        <pt x="418" y="511" on="0"/>
        <pt x="345" y="516" on="0"/>
        <pt x="317" y="516" on="1"/>
        <pt x="260" y="516" on="0"/>
        <pt x="207" y="504" on="0"/>
        <pt x="207" y="482" on="1"/>
        <pt x="207" y="465" on="0"/>
        <pt x="247" y="445" on="0"/>
        <pt x="294" y="434" on="1"/>
        <pt x="356" y="419" on="1"/>
        <pt x="419" y="404" on="0"/>
        <pt x="510" y="369" on="0"/>
        <pt x="569" y="323" on="0"/>
        <pt x="596" y="260" on="0"/>
        <pt x="596" y="215" on="1"/>
        <pt x="596" y="164" on="0"/>
        <pt x="560" y="83" on="0"/>
        <pt x="494" y="26" on="0"/>
        <pt x="402" y="-6" on="0"/>
        <pt x="346" y="-9" on="1"/>
        <pt x="338" y="-22" on="0"/>
        <pt x="338" y="-31" on="1"/>
        <pt x="338" y="-41" on="0"/>
        <pt x="370" y="-51" on="0"/>
        <pt x="409" y="-67" on="0"/>
        <pt x="442" y="-96" on="0"/>
        <pt x="442" y="-125" on="1"/>
        <pt x="442" y="-182" on="0"/>
        <pt x="342" y="-248" on="0"/>
        <pt x="241" y="-248" on="1"/>
        <pt x="224" y="-161" on="1"/>
        <pt x="277" y="-153" on="1"/>
        <pt x="309" y="-149" on="0"/>
        <pt x="309" y="-135" on="1"/>
        <pt x="309" y="-128" on="0"/>
        <pt x="281" y="-118" on="0"/>
        <pt x="247" y="-104" on="0"/>
        <pt x="219" y="-82" on="0"/>
        <pt x="219" y="-63" on="1"/>
        <pt x="219" y="-49" on="0"/>
        <pt x="235" y="-19" on="0"/>
        <pt x="249" y="-5" on="1"/>
        <pt x="186" y="2" on="0"/>
        <pt x="70" y="40" on="0"/>
        <pt x="24" y="66" on="1"/>
        <pt x="66" y="184" on="1"/>
      </contour>
    </TTGlyph>
    <TTGlyph name="Scircumflex" xMin="24" yMin="-10" xMax="596" yMax="923">
      <component glyphName="S" x="0" y="0" flags="0x204"/>
      <component glyphName="circumflex.cap" x="102" y="0" flags="0x4"/>
    </TTGlyph>
    <TTGlyph name="Scommaaccent" xMin="24" yMin="-323" xMax="596" yMax="673">
      <component glyphName="S" x="0" y="0" flags="0x204"/>
      <component glyphName="commaaccent" x="96" y="0" flags="0x4"/>
    </TTGlyph>
    <TTGlyph name="T" xMin="16" yMin="0" xMax="638" yMax="663">
      <contour>
        <pt x="238" y="516" on="1"/>
        <pt x="16" y="516" on="1"/>
        <pt x="16" y="663" on="1"/>
        <pt x="638" y="663" on="1"/>
        <pt x="638" y="516" on="1"/>
        <pt x="416" y="516" on="1"/>
        <pt x="416" y="0" on="1"/>
        <pt x="238" y="0" on="1"/>
      </contour>
    </TTGlyph>
    <TTGlyph name="Tbar" xMin="16" yMin="0" xMax="638" yMax="663">
      <contour>
        <pt x="238" y="516" on="1"/>
        <pt x="16" y="516" on="1"/>
        <pt x="16" y="663" on="1"/>
        <pt x="638" y="663" on="1"/>
        <pt x="638" y="516" on="1"/>
        <pt x="416" y="516" on="1"/>
        <pt x="416" y="376" on="1"/>
        <pt x="544" y="376" on="1"/>
        <pt x="544" y="253" on="1"/>
        <pt x="416" y="253" on="1"/>
        <pt x="416" y="0" on="1"/>
        <pt x="238" y="0" on="1"/>
        <pt x="238" y="253" on="1"/>
        <pt x="110" y="253" on="1"/>
        <pt x="110" y="376" on="1"/>
        <pt x="238" y="376" on="1"/>
      </contour>
    </TTGlyph>
    <TTGlyph name="Tcaron" xMin="16" yMin="0" xMax="638" yMax="936">
      <component glyphName="T" x="0" y="0" flags="0x204"/>
      <component glyphName="caron.cap" x="110" y="0" flags="0x4"/>
    </TTGlyph>
    <TTGlyph name="Tcommaaccent" xMin="16" yMin="-323" xMax="638" yMax="663">
      <component glyphName="T" x="0" y="0" flags="0x204"/>
      <component glyphName="commaaccent" x="110" y="0" flags="0x4"/>
    </TTGlyph>
    <TTGlyph name="Thorn" xMin="61" yMin="0" xMax="632" yMax="663">
      <contour>
        <pt x="239" y="98" on="1"/>
        <pt x="239" y="0" on="1"/>
        <pt x="61" y="0" on="1"/>
        <pt x="61" y="663" on="1"/>
        <pt x="239" y="663" on="1"/>
        <pt x="239" y="565" on="1"/>
        <pt x="347" y="565" on="1"/>
        <pt x="430" y="565" on="0"/>
        <pt x="540" y="533" on="0"/>
        <pt x="575" y="498" on="1"/>
        <pt x="632" y="441" on="0"/>
        <pt x="632" y="335" on="1"/>
        <pt x="632" y="278" on="0"/>
        <pt x="601" y="192" on="0"/>
        <pt x="572" y="163" on="1"/>
        <pt x="539" y="130" on="0"/>
        <pt x="444" y="98" on="0"/>
        <pt x="369" y="98" on="1"/>
      </contour>
      <contour>
        <pt x="403" y="240" on="1"/>
        <pt x="416" y="240" on="0"/>
        <pt x="430" y="247" on="0"/>
        <pt x="437" y="258" on="1"/>
        <pt x="445" y="271" on="0"/>
        <pt x="452" y="316" on="0"/>
        <pt x="452" y="334" on="1"/>
        <pt x="452" y="353" on="0"/>
        <pt x="442" y="386" on="0"/>
        <pt x="433" y="395" on="1"/>
        <pt x="421" y="407" on="0"/>
        <pt x="380" y="415" on="0"/>
        <pt x="345" y="415" on="1"/>
        <pt x="239" y="415" on="1"/>
        <pt x="239" y="240" on="1"/>
      </contour>
    </TTGlyph>
    <TTGlyph name="U" xMin="51" yMin="-10" xMax="668" yMax="663">
      <contour>
        <pt x="668" y="286" on="1"/>
        <pt x="668" y="213" on="0"/>
        <pt x="632" y="106" on="0"/>
        <pt x="593" y="68" on="1"/>
        <pt x="555" y="31" on="0"/>
        <pt x="438" y="-10" on="0"/>
        <pt x="360" y="-10" on="1"/>
        <pt x="282" y="-10" on="0"/>
        <pt x="165" y="31" on="0"/>
        <pt x="127" y="68" on="1"/>
        <pt x="88" y="106" on="0"/>
        <pt x="51" y="213" on="0"/>
        <pt x="51" y="286" on="1"/>
        <pt x="51" y="663" on="1"/>
        <pt x="229" y="663" on="1"/>
        <pt x="229" y="273" on="1"/>
        <pt x="229" y="216" on="0"/>
        <pt x="256" y="192" on="1"/>
        <pt x="272" y="178" on="0"/>
        <pt x="328" y="162" on="0"/>
        <pt x="362" y="162" on="1"/>
        <pt x="396" y="162" on="0"/>
        <pt x="450" y="178" on="0"/>
        <pt x="466" y="192" on="1"/>
        <pt x="493" y="216" on="0"/>
        <pt x="493" y="273" on="1"/>
        <pt x="493" y="663" on="1"/>
        <pt x="668" y="663" on="1"/>
      </contour>
    </TTGlyph>
    <TTGlyph name="Uacute" xMin="51" yMin="-10" xMax="668" yMax="941">
      <component glyphName="U" x="0" y="0" flags="0x204"/>
      <component glyphName="acute.cap" x="152" y="0" flags="0x4"/>
    </TTGlyph>
    <TTGlyph name="Ubreve" xMin="51" yMin="-10" xMax="668" yMax="908">
      <component glyphName="U" x="0" y="0" flags="0x204"/>
      <component glyphName="breve.cap" x="142" y="0" flags="0x4"/>
    </TTGlyph>
    <TTGlyph name="Ucircumflex" xMin="51" yMin="-10" xMax="668" yMax="923">
      <component glyphName="U" x="0" y="0" flags="0x204"/>
      <component glyphName="circumflex.cap" x="143" y="0" flags="0x4"/>
    </TTGlyph>
    <TTGlyph name="Udieresis" xMin="51" yMin="-10" xMax="668" yMax="884">
      <component glyphName="U" x="0" y="0" flags="0x204"/>
      <component glyphName="dieresis.cap" x="142" y="0" flags="0x4"/>
    </TTGlyph>
    <TTGlyph name="Ugrave" xMin="51" yMin="-10" xMax="668" yMax="941">
      <component glyphName="U" x="0" y="0" flags="0x204"/>
      <component glyphName="grave.cap" x="132" y="0" flags="0x4"/>
    </TTGlyph>
    <TTGlyph name="Uhungarumlaut" xMin="51" yMin="-10" xMax="668" yMax="999">
      <component glyphName="U" x="0" y="0" flags="0x204"/>
      <component glyphName="hungarumlaut.cap" x="162" y="0" flags="0x4"/>
    </TTGlyph>
    <TTGlyph name="Umacron" xMin="51" yMin="-10" xMax="668" yMax="873">
      <component glyphName="U" x="0" y="0" flags="0x204"/>
      <component glyphName="macron.cap" x="142" y="0" flags="0x4"/>
    </TTGlyph>
    <TTGlyph name="Uogonek" xMin="51" yMin="-229" xMax="668" yMax="663">
      <contour>
        <pt x="668" y="286" on="1"/>
        <pt x="668" y="213" on="0"/>
        <pt x="632" y="106" on="0"/>
        <pt x="593" y="68" on="1"/>
        <pt x="567" y="43" on="0"/>
        <pt x="497" y="12" on="0"/>
        <pt x="432" y="-16" on="0"/>
        <pt x="387" y="-49" on="0"/>
        <pt x="387" y="-76" on="1"/>
        <pt x="387" y="-100" on="0"/>
        <pt x="421" y="-123" on="0"/>
        <pt x="447" y="-123" on="1"/>
        <pt x="458" y="-123" on="0"/>
        <pt x="491" y="-119" on="0"/>
        <pt x="508" y="-117" on="1"/>
        <pt x="531" y="-199" on="1"/>
        <pt x="508" y="-213" on="0"/>
        <pt x="444" y="-229" on="0"/>
        <pt x="416" y="-229" on="1"/>
        <pt x="348" y="-229" on="0"/>
        <pt x="268" y="-165" on="0"/>
        <pt x="268" y="-112" on="1"/>
        <pt x="268" y="-80" on="0"/>
        <pt x="298" y="-26" on="0"/>
        <pt x="322" y="-8" on="1"/>
        <pt x="258" y="-3" on="0"/>
        <pt x="160" y="36" on="0"/>
        <pt x="127" y="68" on="1"/>
        <pt x="88" y="106" on="0"/>
        <pt x="51" y="213" on="0"/>
        <pt x="51" y="286" on="1"/>
        <pt x="51" y="663" on="1"/>
        <pt x="229" y="663" on="1"/>
        <pt x="229" y="273" on="1"/>
        <pt x="229" y="216" on="0"/>
        <pt x="256" y="192" on="1"/>
        <pt x="272" y="178" on="0"/>
        <pt x="328" y="162" on="0"/>
        <pt x="362" y="162" on="1"/>
        <pt x="396" y="162" on="0"/>
        <pt x="450" y="178" on="0"/>
        <pt x="466" y="192" on="1"/>
        <pt x="493" y="216" on="0"/>
        <pt x="493" y="273" on="1"/>
        <pt x="493" y="663" on="1"/>
        <pt x="668" y="663" on="1"/>
      </contour>
    </TTGlyph>
    <TTGlyph name="Uring" xMin="51" yMin="-10" xMax="668" yMax="997">
      <component glyphName="U" x="0" y="0" flags="0x204"/>
      <component glyphName="ring.cap" x="142" y="0" flags="0x4"/>
    </TTGlyph>
    <TTGlyph name="Utilde" xMin="51" yMin="-10" xMax="668" yMax="904">
      <component glyphName="U" x="0" y="0" flags="0x204"/>
      <component glyphName="tilde.cap" x="148" y="0" flags="0x4"/>
    </TTGlyph>
    <TTGlyph name="V" xMin="-4" yMin="0" xMax="697" yMax="663">
      <contour>
        <pt x="507" y="651" on="1"/>
        <pt x="509" y="659" on="0"/>
        <pt x="515" y="663" on="0"/>
        <pt x="523" y="663" on="1"/>
        <pt x="697" y="663" on="1"/>
        <pt x="458" y="0" on="1"/>
        <pt x="263" y="0" on="1"/>
        <pt x="252" y="0" on="0"/>
        <pt x="241" y="9" on="0"/>
        <pt x="237" y="19" on="1"/>
        <pt x="-4" y="663" on="1"/>
        <pt x="178" y="663" on="1"/>
        <pt x="186" y="663" on="0"/>
        <pt x="191" y="660" on="0"/>
        <pt x="194" y="651" on="1"/>
        <pt x="269" y="432" on="1"/>
        <pt x="301" y="338" on="0"/>
        <pt x="343" y="200" on="0"/>
        <pt x="353" y="150" on="1"/>
        <pt x="354" y="150" on="1"/>
        <pt x="365" y="193" on="0"/>
        <pt x="404" y="338" on="0"/>
        <pt x="433" y="427" on="1"/>
      </contour>
    </TTGlyph>
    <TTGlyph name="W" xMin="-4" yMin="0" xMax="1036" yMax="663">
      <contour>
        <pt x="649" y="474" on="1"/>
        <pt x="674" y="391" on="0"/>
        <pt x="711" y="239" on="0"/>
        <pt x="724" y="174" on="1"/>
        <pt x="725" y="174" on="1"/>
        <pt x="739" y="234" on="0"/>
        <pt x="779" y="392" on="0"/>
        <pt x="806" y="482" on="1"/>
        <pt x="857" y="651" on="1"/>
        <pt x="859" y="659" on="0"/>
        <pt x="865" y="663" on="0"/>
        <pt x="873" y="663" on="1"/>
        <pt x="1036" y="663" on="1"/>
        <pt x="837" y="0" on="1"/>
        <pt x="641" y="0" on="1"/>
        <pt x="628" y="0" on="0"/>
        <pt x="619" y="5" on="0"/>
        <pt x="616" y="16" on="1"/>
        <pt x="594" y="101" on="1"/>
        <pt x="583" y="141" on="0"/>
        <pt x="561" y="229" on="0"/>
        <pt x="540" y="315" on="0"/>
        <pt x="522" y="394" on="0"/>
        <pt x="516" y="425" on="1"/>
        <pt x="515" y="425" on="1"/>
        <pt x="510" y="396" on="0"/>
        <pt x="493" y="319" on="0"/>
        <pt x="473" y="234" on="0"/>
        <pt x="451" y="148" on="0"/>
        <pt x="441" y="111" on="1"/>
        <pt x="410" y="0" on="1"/>
        <pt x="213" y="0" on="1"/>
        <pt x="200" y="0" on="0"/>
        <pt x="190" y="5" on="0"/>
        <pt x="187" y="16" on="1"/>
        <pt x="-4" y="663" on="1"/>
        <pt x="168" y="663" on="1"/>
        <pt x="176" y="663" on="0"/>
        <pt x="182" y="659" on="0"/>
        <pt x="185" y="650" on="1"/>
        <pt x="234" y="482" on="1"/>
        <pt x="245" y="445" on="0"/>
        <pt x="268" y="360" on="0"/>
        <pt x="289" y="277" on="0"/>
        <pt x="306" y="201" on="0"/>
        <pt x="311" y="174" on="1"/>
        <pt x="312" y="174" on="1"/>
        <pt x="324" y="230" on="0"/>
        <pt x="358" y="378" on="0"/>
        <pt x="387" y="474" on="1"/>
        <pt x="443" y="663" on="1"/>
        <pt x="579" y="663" on="1"/>
        <pt x="588" y="663" on="0"/>
        <pt x="595" y="657" on="0"/>
        <pt x="597" y="649" on="1"/>
      </contour>
    </TTGlyph>
    <TTGlyph name="Wacute" xMin="-4" yMin="0" xMax="1036" yMax="941">
      <component glyphName="W" x="0" y="0" flags="0x204"/>
      <component glyphName="acute.cap" x="299" y="0" flags="0x4"/>
    </TTGlyph>
    <TTGlyph name="Wcircumflex" xMin="-4" yMin="0" xMax="1036" yMax="923">
      <component glyphName="W" x="0" y="0" flags="0x204"/>
      <component glyphName="circumflex.cap" x="299" y="0" flags="0x4"/>
    </TTGlyph>
    <TTGlyph name="Wdieresis" xMin="-4" yMin="0" xMax="1036" yMax="884">
      <component glyphName="W" x="0" y="0" flags="0x204"/>
      <component glyphName="dieresis.cap" x="299" y="0" flags="0x4"/>
    </TTGlyph>
    <TTGlyph name="Wgrave" xMin="-4" yMin="0" xMax="1036" yMax="941">
      <component glyphName="W" x="0" y="0" flags="0x204"/>
      <component glyphName="grave.cap" x="299" y="0" flags="0x4"/>
    </TTGlyph>
    <TTGlyph name="X" xMin="1" yMin="0" xMax="738" yMax="663">
      <contour>
        <pt x="476" y="337" on="1"/>
        <pt x="738" y="0" on="1"/>
        <pt x="543" y="0" on="1"/>
        <pt x="534" y="0" on="0"/>
        <pt x="525" y="5" on="0"/>
        <pt x="519" y="13" on="1"/>
        <pt x="363" y="220" on="1"/>
        <pt x="207" y="9" on="1"/>
        <pt x="202" y="3" on="0"/>
        <pt x="195" y="0" on="0"/>
        <pt x="188" y="0" on="1"/>
        <pt x="1" y="0" on="1"/>
        <pt x="260" y="346" on="1"/>
        <pt x="17" y="663" on="1"/>
        <pt x="212" y="663" on="1"/>
        <pt x="221" y="663" on="0"/>
        <pt x="230" y="658" on="0"/>
        <pt x="236" y="650" on="1"/>
        <pt x="376" y="464" on="1"/>
        <pt x="518" y="650" on="1"/>
        <pt x="524" y="658" on="0"/>
        <pt x="533" y="663" on="0"/>
        <pt x="542" y="663" on="1"/>
        <pt x="721" y="663" on="1"/>
      </contour>
    </TTGlyph>
    <TTGlyph name="Y" xMin="-10" yMin="0" xMax="723" yMax="663">
      <contour>
        <pt x="363" y="347" on="1"/>
        <pt x="379" y="386" on="0"/>
        <pt x="425" y="477" on="0"/>
        <pt x="457" y="537" on="1"/>
        <pt x="518" y="651" on="1"/>
        <pt x="523" y="659" on="0"/>
        <pt x="530" y="663" on="0"/>
        <pt x="538" y="663" on="1"/>
        <pt x="723" y="663" on="1"/>
        <pt x="448" y="200" on="1"/>
        <pt x="448" y="0" on="1"/>
        <pt x="270" y="0" on="1"/>
        <pt x="270" y="200" on="1"/>
        <pt x="-10" y="663" on="1"/>
        <pt x="183" y="663" on="1"/>
        <pt x="191" y="663" on="0"/>
        <pt x="198" y="659" on="0"/>
        <pt x="203" y="651" on="1"/>
        <pt x="269" y="533" on="1"/>
        <pt x="287" y="500" on="0"/>
        <pt x="315" y="449" on="0"/>
        <pt x="336" y="406" on="0"/>
        <pt x="354" y="367" on="0"/>
        <pt x="362" y="347" on="1"/>
      </contour>
    </TTGlyph>
    <TTGlyph name="Yacute" xMin="-10" yMin="0" xMax="723" yMax="941">
      <component glyphName="Y" x="0" y="0" flags="0x204"/>
      <component glyphName="acute.cap" x="171" y="0" flags="0x4"/>
    </TTGlyph>
    <TTGlyph name="Ycircumflex" xMin="-10" yMin="0" xMax="723" yMax="923">
      <component glyphName="Y" x="0" y="0" flags="0x204"/>
      <component glyphName="circumflex.cap" x="143" y="0" flags="0x4"/>
    </TTGlyph>
    <TTGlyph name="Ydieresis" xMin="-10" yMin="0" xMax="723" yMax="884">
      <component glyphName="Y" x="0" y="0" flags="0x204"/>
      <component glyphName="dieresis.cap" x="143" y="0" flags="0x4"/>
    </TTGlyph>
    <TTGlyph name="Ygrave" xMin="-10" yMin="0" xMax="723" yMax="941">
      <component glyphName="Y" x="0" y="0" flags="0x204"/>
      <component glyphName="grave.cap" x="111" y="0" flags="0x4"/>
    </TTGlyph>
    <TTGlyph name="Z" xMin="35" yMin="0" xMax="608" yMax="663">
      <contour>
        <pt x="235" y="366" on="1"/>
        <pt x="253" y="388" on="0"/>
        <pt x="291" y="433" on="0"/>
        <pt x="328" y="473" on="0"/>
        <pt x="359" y="506" on="0"/>
        <pt x="370" y="516" on="1"/>
        <pt x="38" y="516" on="1"/>
        <pt x="38" y="663" on="1"/>
        <pt x="604" y="663" on="1"/>
        <pt x="604" y="563" on="1"/>
        <pt x="604" y="549" on="0"/>
        <pt x="597" y="532" on="0"/>
        <pt x="586" y="518" on="1"/>
        <pt x="401" y="297" on="1"/>
        <pt x="384" y="277" on="0"/>
        <pt x="347" y="234" on="0"/>
        <pt x="311" y="194" on="0"/>
        <pt x="280" y="159" on="0"/>
        <pt x="268" y="147" on="1"/>
        <pt x="608" y="147" on="1"/>
        <pt x="608" y="0" on="1"/>
        <pt x="35" y="0" on="1"/>
        <pt x="35" y="100" on="1"/>
        <pt x="35" y="114" on="0"/>
        <pt x="42" y="131" on="0"/>
        <pt x="53" y="145" on="1"/>
      </contour>
    </TTGlyph>
    <TTGlyph name="Zacute" xMin="35" yMin="0" xMax="608" yMax="941">
      <component glyphName="Z" x="0" y="0" flags="0x204"/>
      <component glyphName="acute.cap" x="117" y="0" flags="0x4"/>
    </TTGlyph>
    <TTGlyph name="Zcaron" xMin="35" yMin="0" xMax="608" yMax="936">
      <component glyphName="Z" x="0" y="0" flags="0x204"/>
      <component glyphName="caron.cap" x="113" y="0" flags="0x4"/>
    </TTGlyph>
    <TTGlyph name="Zdotaccent" xMin="35" yMin="0" xMax="608" yMax="883">
      <component glyphName="Z" x="0" y="0" flags="0x204"/>
      <component glyphName="dotaccent.cap" x="110" y="0" flags="0x4"/>
    </TTGlyph>
    <TTGlyph name="a" xMin="20" yMin="-8" xMax="551" yMax="496">
      <contour>
        <pt x="317" y="310" on="1"/>
        <pt x="317" y="325" on="0"/>
        <pt x="309" y="343" on="0"/>
        <pt x="302" y="348" on="1"/>
        <pt x="292" y="356" on="0"/>
        <pt x="263" y="360" on="0"/>
        <pt x="246" y="360" on="1"/>
        <pt x="222" y="360" on="0"/>
        <pt x="166" y="351" on="0"/>
        <pt x="130" y="340" on="1"/>
        <pt x="89" y="328" on="1"/>
        <pt x="42" y="415" on="1"/>
        <pt x="88" y="453" on="0"/>
        <pt x="207" y="496" on="0"/>
        <pt x="267" y="496" on="1"/>
        <pt x="317" y="496" on="0"/>
        <pt x="405" y="468" on="0"/>
        <pt x="436" y="438" on="1"/>
        <pt x="459" y="415" on="0"/>
        <pt x="485" y="349" on="0"/>
        <pt x="485" y="301" on="1"/>
        <pt x="485" y="124" on="1"/>
        <pt x="551" y="108" on="1"/>
        <pt x="551" y="24" on="1"/>
        <pt x="531" y="13" on="0"/>
        <pt x="475" y="-3" on="0"/>
        <pt x="452" y="-3" on="1"/>
        <pt x="423" y="-3" on="0"/>
        <pt x="375" y="18" on="0"/>
        <pt x="348" y="41" on="1"/>
        <pt x="316" y="23" on="1"/>
        <pt x="290" y="9" on="0"/>
        <pt x="230" y="-8" on="0"/>
        <pt x="201" y="-8" on="1"/>
        <pt x="161" y="-8" on="0"/>
        <pt x="95" y="16" on="0"/>
        <pt x="47" y="59" on="0"/>
        <pt x="20" y="119" on="0"/>
        <pt x="20" y="155" on="1"/>
        <pt x="20" y="191" on="0"/>
        <pt x="47" y="245" on="0"/>
        <pt x="92" y="281" on="0"/>
        <pt x="153" y="298" on="0"/>
        <pt x="187" y="298" on="1"/>
        <pt x="221" y="298" on="0"/>
        <pt x="289" y="282" on="0"/>
        <pt x="317" y="268" on="1"/>
      </contour>
      <contour>
        <pt x="317" y="179" on="1"/>
        <pt x="317" y="184" on="0"/>
        <pt x="314" y="186" on="0"/>
        <pt x="308" y="186" on="1"/>
        <pt x="200" y="186" on="1"/>
        <pt x="185" y="186" on="0"/>
        <pt x="179" y="179" on="1"/>
        <pt x="175" y="174" on="0"/>
        <pt x="175" y="163" on="1"/>
        <pt x="175" y="143" on="0"/>
        <pt x="206" y="114" on="0"/>
        <pt x="235" y="114" on="1"/>
        <pt x="252" y="114" on="0"/>
        <pt x="296" y="124" on="0"/>
        <pt x="309" y="130" on="1"/>
        <pt x="317" y="134" on="0"/>
        <pt x="317" y="142" on="1"/>
      </contour>
    </TTGlyph>
    <TTGlyph name="aacute" xMin="20" yMin="-8" xMax="551" yMax="771">
      <component glyphName="a" x="0" y="0" flags="0x204"/>
      <component glyphName="acute" x="51" y="0" flags="0x4"/>
    </TTGlyph>
    <TTGlyph name="abreve" xMin="20" yMin="-8" xMax="551" yMax="738">
      <component glyphName="a" x="0" y="0" flags="0x204"/>
      <component glyphName="breve" x="51" y="0" flags="0x4"/>
    </TTGlyph>
    <TTGlyph name="acaron" xMin="20" yMin="-8" xMax="551" yMax="766">
      <component glyphName="a" x="0" y="0" flags="0x204"/>
      <component glyphName="caron" x="53" y="0" flags="0x4"/>
    </TTGlyph>
    <TTGlyph name="acircumflex" xMin="20" yMin="-8" xMax="551" yMax="753">
      <component glyphName="a" x="0" y="0" flags="0x204"/>
      <component glyphName="circumflex" x="51" y="0" flags="0x4"/>
    </TTGlyph>
    <TTGlyph name="acute" xMin="76" yMin="547" xMax="358" yMax="771">
      <contour>
        <pt x="123" y="547" on="1"/>
        <pt x="76" y="615" on="1"/>
        <pt x="251" y="760" on="1"/>
        <pt x="265" y="771" on="0"/>
        <pt x="272" y="771" on="1"/>
        <pt x="283" y="771" on="0"/>
        <pt x="295" y="753" on="1"/>
        <pt x="358" y="661" on="1"/>
      </contour>
    </TTGlyph>
    <TTGlyph name="acute.cap" xMin="76" yMin="717" xMax="358" yMax="941">
      <contour>
        <pt x="123" y="717" on="1"/>
        <pt x="76" y="785" on="1"/>
        <pt x="251" y="930" on="1"/>
        <pt x="265" y="941" on="0"/>
        <pt x="272" y="941" on="1"/>
        <pt x="283" y="941" on="0"/>
        <pt x="295" y="923" on="1"/>
        <pt x="358" y="831" on="1"/>
      </contour>
    </TTGlyph>
    <TTGlyph name="adieresis" xMin="20" yMin="-8" xMax="551" yMax="714">
      <component glyphName="a" x="0" y="0" flags="0x204"/>
      <component glyphName="dieresis" x="51" y="0" flags="0x4"/>
    </TTGlyph>
    <TTGlyph name="ae" xMin="25" yMin="-8" xMax="818" yMax="496">
      <contour>
        <pt x="580" y="-8" on="1"/>
        <pt x="526" y="-8" on="0"/>
        <pt x="432" y="24" on="0"/>
        <pt x="397" y="54" on="1"/>
        <pt x="358" y="34" on="1"/>
        <pt x="321" y="14" on="0"/>
        <pt x="257" y="-8" on="0"/>
        <pt x="218" y="-8" on="1"/>
        <pt x="175" y="-8" on="0"/>
        <pt x="104" y="17" on="0"/>
        <pt x="53" y="60" on="0"/>
        <pt x="25" y="121" on="0"/>
        <pt x="25" y="157" on="1"/>
        <pt x="25" y="193" on="0"/>
        <pt x="51" y="248" on="0"/>
        <pt x="96" y="285" on="0"/>
        <pt x="157" y="303" on="0"/>
        <pt x="191" y="303" on="1"/>
        <pt x="225" y="303" on="0"/>
        <pt x="289" y="287" on="0"/>
        <pt x="317" y="273" on="1"/>
        <pt x="317" y="312" on="1"/>
        <pt x="317" y="327" on="0"/>
        <pt x="309" y="343" on="0"/>
        <pt x="302" y="348" on="1"/>
        <pt x="292" y="356" on="0"/>
        <pt x="263" y="360" on="0"/>
        <pt x="246" y="360" on="1"/>
        <pt x="222" y="360" on="0"/>
        <pt x="166" y="351" on="0"/>
        <pt x="130" y="340" on="1"/>
        <pt x="89" y="328" on="1"/>
        <pt x="42" y="413" on="1"/>
        <pt x="88" y="451" on="0"/>
        <pt x="207" y="496" on="0"/>
        <pt x="267" y="496" on="1"/>
        <pt x="309" y="496" on="0"/>
        <pt x="383" y="471" on="0"/>
        <pt x="413" y="445" on="1"/>
        <pt x="445" y="470" on="0"/>
        <pt x="526" y="496" on="0"/>
        <pt x="569" y="496" on="1"/>
        <pt x="623" y="496" on="0"/>
        <pt x="714" y="459" on="0"/>
        <pt x="780" y="394" on="0"/>
        <pt x="818" y="308" on="0"/>
        <pt x="818" y="260" on="1"/>
        <pt x="818" y="229" on="0"/>
        <pt x="815" y="216" on="1"/>
        <pt x="811" y="198" on="0"/>
        <pt x="794" y="198" on="1"/>
        <pt x="488" y="198" on="1"/>
        <pt x="493" y="167" on="0"/>
        <pt x="546" y="130" on="0"/>
        <pt x="593" y="130" on="1"/>
        <pt x="615" y="130" on="0"/>
        <pt x="668" y="139" on="0"/>
        <pt x="689" y="144" on="1"/>
        <pt x="759" y="162" on="1"/>
        <pt x="807" y="72" on="1"/>
        <pt x="765" y="37" on="0"/>
        <pt x="643" y="-8" on="0"/>
      </contour>
      <contour>
        <pt x="239" y="114" on="1"/>
        <pt x="268" y="114" on="0"/>
        <pt x="318" y="129" on="0"/>
        <pt x="337" y="137" on="1"/>
        <pt x="332" y="150" on="0"/>
        <pt x="323" y="178" on="0"/>
        <pt x="321" y="193" on="1"/>
        <pt x="204" y="193" on="1"/>
        <pt x="189" y="193" on="0"/>
        <pt x="183" y="186" on="1"/>
        <pt x="179" y="181" on="0"/>
        <pt x="179" y="170" on="1"/>
        <pt x="179" y="150" on="0"/>
        <pt x="210" y="114" on="0"/>
      </contour>
      <contour>
        <pt x="656" y="300" on="1"/>
        <pt x="652" y="334" on="0"/>
        <pt x="605" y="367" on="0"/>
        <pt x="573" y="367" on="1"/>
        <pt x="541" y="367" on="0"/>
        <pt x="493" y="335" on="0"/>
        <pt x="489" y="300" on="1"/>
      </contour>
    </TTGlyph>
    <TTGlyph name="aeacute" xMin="25" yMin="-8" xMax="818" yMax="771">
      <component glyphName="ae" x="0" y="0" flags="0x204"/>
      <component glyphName="acute" x="235" y="0" flags="0x4"/>
    </TTGlyph>
    <TTGlyph name="agrave" xMin="20" yMin="-8" xMax="551" yMax="771">
      <component glyphName="a" x="0" y="0" flags="0x204"/>
      <component glyphName="grave" x="51" y="0" flags="0x4"/>
    </TTGlyph>
    <TTGlyph name="amacron" xMin="20" yMin="-8" xMax="551" yMax="703">
      <component glyphName="a" x="0" y="0" flags="0x204"/>
      <component glyphName="macron" x="51" y="0" flags="0x4"/>
    </TTGlyph>
    <TTGlyph name="ampersand" xMin="30" yMin="-10" xMax="730" yMax="673">
      <contour>
        <pt x="543" y="504" on="1"/>
        <pt x="543" y="456" on="0"/>
        <pt x="488" y="367" on="0"/>
        <pt x="425" y="325" on="1"/>
        <pt x="500" y="256" on="1"/>
        <pt x="589" y="420" on="1"/>
        <pt x="682" y="389" on="1"/>
        <pt x="678" y="367" on="0"/>
        <pt x="661" y="312" on="0"/>
        <pt x="638" y="253" on="0"/>
        <pt x="609" y="195" on="0"/>
        <pt x="593" y="170" on="1"/>
        <pt x="640" y="126" on="1"/>
        <pt x="730" y="105" on="1"/>
        <pt x="730" y="29" on="1"/>
        <pt x="717" y="17" on="0"/>
        <pt x="667" y="-3" on="0"/>
        <pt x="638" y="-3" on="1"/>
        <pt x="600" y="-3" on="0"/>
        <pt x="532" y="22" on="0"/>
        <pt x="495" y="54" on="1"/>
        <pt x="457" y="25" on="0"/>
        <pt x="356" y="-10" on="0"/>
        <pt x="304" y="-10" on="1"/>
        <pt x="247" y="-10" on="0"/>
        <pt x="147" y="23" on="0"/>
        <pt x="73" y="81" on="0"/>
        <pt x="30" y="163" on="0"/>
        <pt x="30" y="212" on="1"/>
        <pt x="30" y="276" on="0"/>
        <pt x="103" y="357" on="0"/>
        <pt x="166" y="383" on="1"/>
        <pt x="146" y="411" on="0"/>
        <pt x="129" y="462" on="0"/>
        <pt x="129" y="493" on="1"/>
        <pt x="129" y="536" on="0"/>
        <pt x="165" y="603" on="0"/>
        <pt x="225" y="649" on="0"/>
        <pt x="301" y="673" on="0"/>
        <pt x="340" y="673" on="1"/>
        <pt x="384" y="673" on="0"/>
        <pt x="459" y="648" on="0"/>
        <pt x="513" y="603" on="0"/>
        <pt x="543" y="541" on="0"/>
      </contour>
      <contour>
        <pt x="231" y="308" on="1"/>
        <pt x="190" y="278" on="0"/>
        <pt x="190" y="234" on="1"/>
        <pt x="190" y="212" on="0"/>
        <pt x="209" y="175" on="0"/>
        <pt x="242" y="147" on="0"/>
        <pt x="287" y="131" on="0"/>
        <pt x="314" y="131" on="1"/>
        <pt x="335" y="131" on="0"/>
        <pt x="378" y="140" on="0"/>
        <pt x="397" y="149" on="1"/>
      </contour>
      <contour>
        <pt x="281" y="488" on="1"/>
        <pt x="281" y="478" on="0"/>
        <pt x="286" y="461" on="0"/>
        <pt x="299" y="443" on="0"/>
        <pt x="320" y="422" on="0"/>
        <pt x="336" y="407" on="1"/>
        <pt x="350" y="394" on="1"/>
        <pt x="361" y="405" on="1"/>
        <pt x="389" y="433" on="0"/>
        <pt x="407" y="470" on="0"/>
        <pt x="407" y="487" on="1"/>
        <pt x="407" y="511" on="0"/>
        <pt x="372" y="543" on="0"/>
        <pt x="344" y="543" on="1"/>
        <pt x="315" y="543" on="0"/>
        <pt x="281" y="511" on="0"/>
      </contour>
    </TTGlyph>
    <TTGlyph name="aogonek" xMin="20" yMin="-238" xMax="551" yMax="496">
      <contour>
        <pt x="317" y="310" on="1"/>
        <pt x="317" y="325" on="0"/>
        <pt x="309" y="343" on="0"/>
        <pt x="302" y="348" on="1"/>
        <pt x="292" y="356" on="0"/>
        <pt x="263" y="360" on="0"/>
        <pt x="246" y="360" on="1"/>
        <pt x="222" y="360" on="0"/>
        <pt x="166" y="351" on="0"/>
        <pt x="130" y="340" on="1"/>
        <pt x="89" y="328" on="1"/>
        <pt x="42" y="415" on="1"/>
        <pt x="88" y="453" on="0"/>
        <pt x="207" y="496" on="0"/>
        <pt x="267" y="496" on="1"/>
        <pt x="317" y="496" on="0"/>
        <pt x="405" y="468" on="0"/>
        <pt x="436" y="438" on="1"/>
        <pt x="459" y="415" on="0"/>
        <pt x="485" y="349" on="0"/>
        <pt x="485" y="301" on="1"/>
        <pt x="485" y="124" on="1"/>
        <pt x="551" y="108" on="1"/>
        <pt x="551" y="24" on="1"/>
        <pt x="468" y="1" on="0"/>
        <pt x="390" y="-55" on="0"/>
        <pt x="390" y="-85" on="1"/>
        <pt x="390" y="-111" on="0"/>
        <pt x="424" y="-132" on="0"/>
        <pt x="450" y="-132" on="1"/>
        <pt x="461" y="-132" on="0"/>
        <pt x="494" y="-128" on="0"/>
        <pt x="511" y="-126" on="1"/>
        <pt x="534" y="-208" on="1"/>
        <pt x="511" y="-222" on="0"/>
        <pt x="447" y="-238" on="0"/>
        <pt x="419" y="-238" on="1"/>
        <pt x="351" y="-238" on="0"/>
        <pt x="271" y="-174" on="0"/>
        <pt x="271" y="-121" on="1"/>
        <pt x="271" y="-36" on="0"/>
        <pt x="379" y="18" on="1"/>
        <pt x="363" y="28" on="0"/>
        <pt x="348" y="41" on="1"/>
        <pt x="316" y="23" on="1"/>
        <pt x="290" y="9" on="0"/>
        <pt x="230" y="-8" on="0"/>
        <pt x="201" y="-8" on="1"/>
        <pt x="161" y="-8" on="0"/>
        <pt x="95" y="16" on="0"/>
        <pt x="47" y="59" on="0"/>
        <pt x="20" y="119" on="0"/>
        <pt x="20" y="155" on="1"/>
        <pt x="20" y="191" on="0"/>
        <pt x="47" y="245" on="0"/>
        <pt x="92" y="281" on="0"/>
        <pt x="153" y="298" on="0"/>
        <pt x="187" y="298" on="1"/>
        <pt x="221" y="298" on="0"/>
        <pt x="289" y="282" on="0"/>
        <pt x="317" y="268" on="1"/>
      </contour>
      <contour>
        <pt x="317" y="179" on="1"/>
        <pt x="317" y="184" on="0"/>
        <pt x="314" y="186" on="0"/>
        <pt x="308" y="186" on="1"/>
        <pt x="200" y="186" on="1"/>
        <pt x="185" y="186" on="0"/>
        <pt x="179" y="179" on="1"/>
        <pt x="175" y="174" on="0"/>
        <pt x="175" y="163" on="1"/>
        <pt x="175" y="143" on="0"/>
        <pt x="206" y="114" on="0"/>
        <pt x="235" y="114" on="1"/>
        <pt x="252" y="114" on="0"/>
        <pt x="296" y="124" on="0"/>
        <pt x="309" y="130" on="1"/>
        <pt x="317" y="134" on="0"/>
        <pt x="317" y="141" on="1"/>
      </contour>
    </TTGlyph>
    <TTGlyph name="apple" xMin="78" yMin="0" xMax="466" yMax="650">
      <contour>
        <pt x="208" y="357" on="1"/>
        <pt x="208" y="370" on="0"/>
        <pt x="227" y="388" on="0"/>
        <pt x="239" y="388" on="1"/>
        <pt x="252" y="388" on="0"/>
        <pt x="269" y="370" on="0"/>
        <pt x="269" y="357" on="1"/>
        <pt x="269" y="344" on="0"/>
        <pt x="252" y="327" on="0"/>
        <pt x="239" y="327" on="1"/>
        <pt x="227" y="327" on="0"/>
        <pt x="208" y="344" on="0"/>
      </contour>
      <contour>
        <pt x="405" y="357" on="1"/>
        <pt x="405" y="370" on="0"/>
        <pt x="424" y="388" on="0"/>
        <pt x="436" y="388" on="1"/>
        <pt x="449" y="388" on="0"/>
        <pt x="466" y="370" on="0"/>
        <pt x="466" y="357" on="1"/>
        <pt x="466" y="344" on="0"/>
        <pt x="449" y="327" on="0"/>
        <pt x="436" y="327" on="1"/>
        <pt x="424" y="327" on="0"/>
        <pt x="405" y="344" on="0"/>
      </contour>
      <contour>
        <pt x="78" y="161" on="1"/>
        <pt x="78" y="174" on="0"/>
        <pt x="95" y="191" on="0"/>
        <pt x="108" y="191" on="1"/>
        <pt x="120" y="191" on="0"/>
        <pt x="139" y="174" on="0"/>
        <pt x="139" y="161" on="1"/>
        <pt x="139" y="148" on="0"/>
        <pt x="120" y="130" on="0"/>
        <pt x="108" y="130" on="1"/>
        <pt x="95" y="130" on="0"/>
        <pt x="78" y="148" on="0"/>
      </contour>
      <contour>
        <pt x="78" y="357" on="1"/>
        <pt x="78" y="370" on="0"/>
        <pt x="95" y="388" on="0"/>
        <pt x="108" y="388" on="1"/>
        <pt x="120" y="388" on="0"/>
        <pt x="139" y="370" on="0"/>
        <pt x="139" y="357" on="1"/>
        <pt x="139" y="344" on="0"/>
        <pt x="120" y="327" on="0"/>
        <pt x="108" y="327" on="1"/>
        <pt x="95" y="327" on="0"/>
        <pt x="78" y="344" on="0"/>
      </contour>
      <contour>
        <pt x="275" y="357" on="1"/>
        <pt x="275" y="370" on="0"/>
        <pt x="292" y="388" on="0"/>
        <pt x="305" y="388" on="1"/>
        <pt x="317" y="388" on="0"/>
        <pt x="336" y="370" on="0"/>
        <pt x="336" y="357" on="1"/>
        <pt x="336" y="344" on="0"/>
        <pt x="317" y="327" on="0"/>
        <pt x="305" y="327" on="1"/>
        <pt x="292" y="327" on="0"/>
        <pt x="275" y="344" on="0"/>
      </contour>
      <contour>
        <pt x="340" y="620" on="1"/>
        <pt x="340" y="632" on="0"/>
        <pt x="357" y="650" on="0"/>
        <pt x="371" y="650" on="1"/>
        <pt x="382" y="650" on="0"/>
        <pt x="401" y="632" on="0"/>
        <pt x="401" y="620" on="1"/>
        <pt x="401" y="606" on="0"/>
        <pt x="382" y="589" on="0"/>
        <pt x="371" y="589" on="1"/>
        <pt x="357" y="589" on="0"/>
        <pt x="340" y="606" on="0"/>
      </contour>
      <contour>
        <pt x="78" y="620" on="1"/>
        <pt x="78" y="632" on="0"/>
        <pt x="95" y="650" on="0"/>
        <pt x="108" y="650" on="1"/>
        <pt x="120" y="650" on="0"/>
        <pt x="139" y="632" on="0"/>
        <pt x="139" y="620" on="1"/>
        <pt x="139" y="606" on="0"/>
        <pt x="120" y="589" on="0"/>
        <pt x="108" y="589" on="1"/>
        <pt x="95" y="589" on="0"/>
        <pt x="78" y="606" on="0"/>
      </contour>
      <contour>
        <pt x="275" y="620" on="1"/>
        <pt x="275" y="632" on="0"/>
        <pt x="292" y="650" on="0"/>
        <pt x="305" y="650" on="1"/>
        <pt x="317" y="650" on="0"/>
        <pt x="336" y="632" on="0"/>
        <pt x="336" y="620" on="1"/>
        <pt x="336" y="606" on="0"/>
        <pt x="317" y="589" on="0"/>
        <pt x="305" y="589" on="1"/>
        <pt x="292" y="589" on="0"/>
        <pt x="275" y="606" on="0"/>
      </contour>
      <contour>
        <pt x="405" y="620" on="1"/>
        <pt x="405" y="632" on="0"/>
        <pt x="424" y="650" on="0"/>
        <pt x="436" y="650" on="1"/>
        <pt x="449" y="650" on="0"/>
        <pt x="466" y="632" on="0"/>
        <pt x="466" y="620" on="1"/>
        <pt x="466" y="606" on="0"/>
        <pt x="449" y="589" on="0"/>
        <pt x="436" y="589" on="1"/>
        <pt x="424" y="589" on="0"/>
        <pt x="405" y="606" on="0"/>
      </contour>
      <contour>
        <pt x="208" y="620" on="1"/>
        <pt x="208" y="632" on="0"/>
        <pt x="227" y="650" on="0"/>
        <pt x="239" y="650" on="1"/>
        <pt x="252" y="650" on="0"/>
        <pt x="269" y="632" on="0"/>
        <pt x="269" y="620" on="1"/>
        <pt x="269" y="606" on="0"/>
        <pt x="252" y="589" on="0"/>
        <pt x="239" y="589" on="1"/>
        <pt x="227" y="589" on="0"/>
        <pt x="208" y="606" on="0"/>
      </contour>
      <contour>
        <pt x="340" y="357" on="1"/>
        <pt x="340" y="370" on="0"/>
        <pt x="357" y="388" on="0"/>
        <pt x="371" y="388" on="1"/>
        <pt x="382" y="388" on="0"/>
        <pt x="401" y="370" on="0"/>
        <pt x="401" y="357" on="1"/>
        <pt x="401" y="344" on="0"/>
        <pt x="382" y="327" on="0"/>
        <pt x="371" y="327" on="1"/>
        <pt x="357" y="327" on="0"/>
        <pt x="340" y="344" on="0"/>
      </contour>
      <contour>
        <pt x="208" y="30" on="1"/>
        <pt x="208" y="42" on="0"/>
        <pt x="227" y="61" on="0"/>
        <pt x="239" y="61" on="1"/>
        <pt x="252" y="61" on="0"/>
        <pt x="269" y="42" on="0"/>
        <pt x="269" y="30" on="1"/>
        <pt x="269" y="17" on="0"/>
        <pt x="252" y="0" on="0"/>
        <pt x="239" y="0" on="1"/>
        <pt x="227" y="0" on="0"/>
        <pt x="208" y="17" on="0"/>
      </contour>
      <contour>
        <pt x="78" y="30" on="1"/>
        <pt x="78" y="42" on="0"/>
        <pt x="95" y="61" on="0"/>
        <pt x="108" y="61" on="1"/>
        <pt x="120" y="61" on="0"/>
        <pt x="139" y="42" on="0"/>
        <pt x="139" y="30" on="1"/>
        <pt x="139" y="17" on="0"/>
        <pt x="120" y="0" on="0"/>
        <pt x="108" y="0" on="1"/>
        <pt x="95" y="0" on="0"/>
        <pt x="78" y="17" on="0"/>
      </contour>
      <contour>
        <pt x="208" y="95" on="1"/>
        <pt x="208" y="109" on="0"/>
        <pt x="227" y="125" on="0"/>
        <pt x="239" y="125" on="1"/>
        <pt x="252" y="125" on="0"/>
        <pt x="269" y="109" on="0"/>
        <pt x="269" y="95" on="1"/>
        <pt x="269" y="82" on="0"/>
        <pt x="252" y="65" on="0"/>
        <pt x="239" y="65" on="1"/>
        <pt x="227" y="65" on="0"/>
        <pt x="208" y="82" on="0"/>
      </contour>
      <contour>
        <pt x="78" y="95" on="1"/>
        <pt x="78" y="109" on="0"/>
        <pt x="95" y="125" on="0"/>
        <pt x="108" y="125" on="1"/>
        <pt x="120" y="125" on="0"/>
        <pt x="139" y="109" on="0"/>
        <pt x="139" y="95" on="1"/>
        <pt x="139" y="82" on="0"/>
        <pt x="120" y="65" on="0"/>
        <pt x="108" y="65" on="1"/>
        <pt x="95" y="65" on="0"/>
        <pt x="78" y="82" on="0"/>
      </contour>
      <contour>
        <pt x="144" y="620" on="1"/>
        <pt x="144" y="632" on="0"/>
        <pt x="162" y="650" on="0"/>
        <pt x="174" y="650" on="1"/>
        <pt x="187" y="650" on="0"/>
        <pt x="204" y="632" on="0"/>
        <pt x="204" y="620" on="1"/>
        <pt x="204" y="606" on="0"/>
        <pt x="187" y="589" on="0"/>
        <pt x="174" y="589" on="1"/>
        <pt x="162" y="589" on="0"/>
        <pt x="144" y="606" on="0"/>
      </contour>
      <contour>
        <pt x="78" y="489" on="1"/>
        <pt x="78" y="501" on="0"/>
        <pt x="95" y="518" on="0"/>
        <pt x="108" y="518" on="1"/>
        <pt x="120" y="518" on="0"/>
        <pt x="139" y="501" on="0"/>
        <pt x="139" y="489" on="1"/>
        <pt x="139" y="476" on="0"/>
        <pt x="120" y="458" on="0"/>
        <pt x="108" y="458" on="1"/>
        <pt x="95" y="458" on="0"/>
        <pt x="78" y="476" on="0"/>
      </contour>
      <contour>
        <pt x="275" y="489" on="1"/>
        <pt x="275" y="501" on="0"/>
        <pt x="292" y="518" on="0"/>
        <pt x="305" y="518" on="1"/>
        <pt x="317" y="518" on="0"/>
        <pt x="336" y="501" on="0"/>
        <pt x="336" y="489" on="1"/>
        <pt x="336" y="476" on="0"/>
        <pt x="317" y="458" on="0"/>
        <pt x="305" y="458" on="1"/>
        <pt x="292" y="458" on="0"/>
        <pt x="275" y="476" on="0"/>
      </contour>
      <contour>
        <pt x="208" y="489" on="1"/>
        <pt x="208" y="501" on="0"/>
        <pt x="227" y="518" on="0"/>
        <pt x="239" y="518" on="1"/>
        <pt x="252" y="518" on="0"/>
        <pt x="269" y="501" on="0"/>
        <pt x="269" y="489" on="1"/>
        <pt x="269" y="476" on="0"/>
        <pt x="252" y="458" on="0"/>
        <pt x="239" y="458" on="1"/>
        <pt x="227" y="458" on="0"/>
        <pt x="208" y="476" on="0"/>
      </contour>
      <contour>
        <pt x="405" y="489" on="1"/>
        <pt x="405" y="501" on="0"/>
        <pt x="424" y="518" on="0"/>
        <pt x="436" y="518" on="1"/>
        <pt x="449" y="518" on="0"/>
        <pt x="466" y="501" on="0"/>
        <pt x="466" y="489" on="1"/>
        <pt x="466" y="476" on="0"/>
        <pt x="449" y="458" on="0"/>
        <pt x="436" y="458" on="1"/>
        <pt x="424" y="458" on="0"/>
        <pt x="405" y="476" on="0"/>
      </contour>
      <contour>
        <pt x="340" y="489" on="1"/>
        <pt x="340" y="501" on="0"/>
        <pt x="357" y="518" on="0"/>
        <pt x="371" y="518" on="1"/>
        <pt x="382" y="518" on="0"/>
        <pt x="401" y="501" on="0"/>
        <pt x="401" y="489" on="1"/>
        <pt x="401" y="476" on="0"/>
        <pt x="382" y="458" on="0"/>
        <pt x="371" y="458" on="1"/>
        <pt x="357" y="458" on="0"/>
        <pt x="340" y="476" on="0"/>
      </contour>
      <contour>
        <pt x="144" y="30" on="1"/>
        <pt x="144" y="42" on="0"/>
        <pt x="162" y="61" on="0"/>
        <pt x="174" y="61" on="1"/>
        <pt x="187" y="61" on="0"/>
        <pt x="204" y="42" on="0"/>
        <pt x="204" y="30" on="1"/>
        <pt x="204" y="17" on="0"/>
        <pt x="187" y="0" on="0"/>
        <pt x="174" y="0" on="1"/>
        <pt x="162" y="0" on="0"/>
        <pt x="144" y="17" on="0"/>
      </contour>
      <contour>
        <pt x="78" y="292" on="1"/>
        <pt x="78" y="304" on="0"/>
        <pt x="95" y="322" on="0"/>
        <pt x="108" y="322" on="1"/>
        <pt x="120" y="322" on="0"/>
        <pt x="139" y="304" on="0"/>
        <pt x="139" y="292" on="1"/>
        <pt x="139" y="279" on="0"/>
        <pt x="120" y="262" on="0"/>
        <pt x="108" y="262" on="1"/>
        <pt x="95" y="262" on="0"/>
        <pt x="78" y="279" on="0"/>
      </contour>
      <contour>
        <pt x="78" y="554" on="1"/>
        <pt x="78" y="566" on="0"/>
        <pt x="95" y="584" on="0"/>
        <pt x="108" y="584" on="1"/>
        <pt x="120" y="584" on="0"/>
        <pt x="139" y="566" on="0"/>
        <pt x="139" y="554" on="1"/>
        <pt x="139" y="541" on="0"/>
        <pt x="120" y="524" on="0"/>
        <pt x="108" y="524" on="1"/>
        <pt x="95" y="524" on="0"/>
        <pt x="78" y="541" on="0"/>
      </contour>
      <contour>
        <pt x="405" y="292" on="1"/>
        <pt x="405" y="304" on="0"/>
        <pt x="424" y="322" on="0"/>
        <pt x="436" y="322" on="1"/>
        <pt x="449" y="322" on="0"/>
        <pt x="466" y="304" on="0"/>
        <pt x="466" y="292" on="1"/>
        <pt x="466" y="279" on="0"/>
        <pt x="449" y="262" on="0"/>
        <pt x="436" y="262" on="1"/>
        <pt x="424" y="262" on="0"/>
        <pt x="405" y="279" on="0"/>
      </contour>
      <contour>
        <pt x="78" y="423" on="1"/>
        <pt x="78" y="436" on="0"/>
        <pt x="95" y="453" on="0"/>
        <pt x="108" y="453" on="1"/>
        <pt x="120" y="453" on="0"/>
        <pt x="139" y="436" on="0"/>
        <pt x="139" y="423" on="1"/>
        <pt x="139" y="410" on="0"/>
        <pt x="120" y="394" on="0"/>
        <pt x="108" y="394" on="1"/>
        <pt x="95" y="394" on="0"/>
        <pt x="78" y="410" on="0"/>
      </contour>
      <contour>
        <pt x="208" y="423" on="1"/>
        <pt x="208" y="436" on="0"/>
        <pt x="227" y="453" on="0"/>
        <pt x="239" y="453" on="1"/>
        <pt x="252" y="453" on="0"/>
        <pt x="269" y="436" on="0"/>
        <pt x="269" y="423" on="1"/>
        <pt x="269" y="410" on="0"/>
        <pt x="252" y="394" on="0"/>
        <pt x="239" y="394" on="1"/>
        <pt x="227" y="394" on="0"/>
        <pt x="208" y="410" on="0"/>
      </contour>
      <contour>
        <pt x="208" y="227" on="1"/>
        <pt x="208" y="239" on="0"/>
        <pt x="227" y="256" on="0"/>
        <pt x="239" y="256" on="1"/>
        <pt x="252" y="256" on="0"/>
        <pt x="269" y="239" on="0"/>
        <pt x="269" y="227" on="1"/>
        <pt x="269" y="214" on="0"/>
        <pt x="252" y="197" on="0"/>
        <pt x="239" y="197" on="1"/>
        <pt x="227" y="197" on="0"/>
        <pt x="208" y="214" on="0"/>
      </contour>
      <contour>
        <pt x="405" y="227" on="1"/>
        <pt x="405" y="239" on="0"/>
        <pt x="424" y="256" on="0"/>
        <pt x="436" y="256" on="1"/>
        <pt x="449" y="256" on="0"/>
        <pt x="466" y="239" on="0"/>
        <pt x="466" y="227" on="1"/>
        <pt x="466" y="214" on="0"/>
        <pt x="449" y="197" on="0"/>
        <pt x="436" y="197" on="1"/>
        <pt x="424" y="197" on="0"/>
        <pt x="405" y="214" on="0"/>
      </contour>
      <contour>
        <pt x="78" y="227" on="1"/>
        <pt x="78" y="239" on="0"/>
        <pt x="95" y="256" on="0"/>
        <pt x="108" y="256" on="1"/>
        <pt x="120" y="256" on="0"/>
        <pt x="139" y="239" on="0"/>
        <pt x="139" y="227" on="1"/>
        <pt x="139" y="214" on="0"/>
        <pt x="120" y="197" on="0"/>
        <pt x="108" y="197" on="1"/>
        <pt x="95" y="197" on="0"/>
        <pt x="78" y="214" on="0"/>
      </contour>
      <contour>
        <pt x="275" y="227" on="1"/>
        <pt x="275" y="239" on="0"/>
        <pt x="292" y="256" on="0"/>
        <pt x="305" y="256" on="1"/>
        <pt x="317" y="256" on="0"/>
        <pt x="336" y="239" on="0"/>
        <pt x="336" y="227" on="1"/>
        <pt x="336" y="214" on="0"/>
        <pt x="317" y="197" on="0"/>
        <pt x="305" y="197" on="1"/>
        <pt x="292" y="197" on="0"/>
        <pt x="275" y="214" on="0"/>
      </contour>
      <contour>
        <pt x="340" y="227" on="1"/>
        <pt x="340" y="239" on="0"/>
        <pt x="357" y="256" on="0"/>
        <pt x="371" y="256" on="1"/>
        <pt x="382" y="256" on="0"/>
        <pt x="401" y="239" on="0"/>
        <pt x="401" y="227" on="1"/>
        <pt x="401" y="214" on="0"/>
        <pt x="382" y="197" on="0"/>
        <pt x="371" y="197" on="1"/>
        <pt x="357" y="197" on="0"/>
        <pt x="340" y="214" on="0"/>
      </contour>
    </TTGlyph>
    <TTGlyph name="approxequal" xMin="56" yMin="35" xMax="524" yMax="480">
      <contour>
        <pt x="368" y="289" on="1"/>
        <pt x="345" y="289" on="0"/>
        <pt x="302" y="305" on="0"/>
        <pt x="262" y="325" on="0"/>
        <pt x="225" y="341" on="0"/>
        <pt x="209" y="341" on="1"/>
        <pt x="192" y="341" on="0"/>
        <pt x="165" y="315" on="0"/>
        <pt x="153" y="291" on="1"/>
        <pt x="56" y="325" on="1"/>
        <pt x="61" y="357" on="0"/>
        <pt x="88" y="414" on="0"/>
        <pt x="128" y="456" on="0"/>
        <pt x="181" y="480" on="0"/>
        <pt x="212" y="480" on="1"/>
        <pt x="239" y="480" on="0"/>
        <pt x="285" y="464" on="0"/>
        <pt x="324" y="445" on="0"/>
        <pt x="357" y="429" on="0"/>
        <pt x="371" y="429" on="1"/>
        <pt x="388" y="429" on="0"/>
        <pt x="415" y="455" on="0"/>
        <pt x="427" y="478" on="1"/>
        <pt x="524" y="446" on="1"/>
        <pt x="519" y="413" on="0"/>
        <pt x="492" y="356" on="0"/>
        <pt x="452" y="314" on="0"/>
        <pt x="399" y="289" on="0"/>
      </contour>
      <contour>
        <pt x="368" y="35" on="1"/>
        <pt x="345" y="35" on="0"/>
        <pt x="302" y="51" on="0"/>
        <pt x="262" y="70" on="0"/>
        <pt x="225" y="86" on="0"/>
        <pt x="209" y="86" on="1"/>
        <pt x="192" y="86" on="0"/>
        <pt x="165" y="60" on="0"/>
        <pt x="153" y="37" on="1"/>
        <pt x="56" y="70" on="1"/>
        <pt x="61" y="103" on="0"/>
        <pt x="88" y="160" on="0"/>
        <pt x="128" y="202" on="0"/>
        <pt x="181" y="226" on="0"/>
        <pt x="212" y="226" on="1"/>
        <pt x="239" y="226" on="0"/>
        <pt x="285" y="210" on="0"/>
        <pt x="324" y="190" on="0"/>
        <pt x="357" y="174" on="0"/>
        <pt x="371" y="174" on="1"/>
        <pt x="388" y="174" on="0"/>
        <pt x="415" y="200" on="0"/>
        <pt x="427" y="224" on="1"/>
        <pt x="524" y="191" on="1"/>
        <pt x="519" y="159" on="0"/>
        <pt x="492" y="102" on="0"/>
        <pt x="452" y="60" on="0"/>
        <pt x="399" y="35" on="0"/>
      </contour>
    </TTGlyph>
    <TTGlyph name="aring" xMin="20" yMin="-8" xMax="551" yMax="827">
      <component glyphName="a" x="0" y="0" flags="0x204"/>
      <component glyphName="ring" x="51" y="0" flags="0x4"/>
    </TTGlyph>
    <TTGlyph name="aringacute" xMin="20" yMin="-8" xMax="551" yMax="1023">
      <component glyphName="a" x="0" y="0" flags="0x204"/>
      <component glyphName="ring" x="61" y="-34" flags="0x4"/>
      <component glyphName="acute" x="61" y="252" flags="0x4"/>
    </TTGlyph>
    <TTGlyph name="arrowdown" xMin="142" yMin="-106" xMax="658" yMax="593">
      <contour>
        <pt x="377" y="-106" on="1"/>
        <pt x="369" y="-106" on="0"/>
        <pt x="357" y="-102" on="0"/>
        <pt x="349" y="-94" on="1"/>
        <pt x="142" y="113" on="1"/>
        <pt x="212" y="183" on="1"/>
        <pt x="328" y="89" on="1"/>
        <pt x="328" y="593" on="1"/>
        <pt x="467" y="593" on="1"/>
        <pt x="467" y="86" on="1"/>
        <pt x="588" y="183" on="1"/>
        <pt x="658" y="114" on="1"/>
        <pt x="439" y="-106" on="1"/>
      </contour>
    </TTGlyph>
    <TTGlyph name="arrowdown.cap" xMin="142" yMin="-17" xMax="658" yMax="682">
      <contour>
        <pt x="377" y="-17" on="1"/>
        <pt x="369" y="-17" on="0"/>
        <pt x="357" y="-13" on="0"/>
        <pt x="349" y="-5" on="1"/>
        <pt x="142" y="202" on="1"/>
        <pt x="212" y="272" on="1"/>
        <pt x="328" y="178" on="1"/>
        <pt x="328" y="682" on="1"/>
        <pt x="467" y="682" on="1"/>
        <pt x="467" y="175" on="1"/>
        <pt x="588" y="272" on="1"/>
        <pt x="658" y="203" on="1"/>
        <pt x="439" y="-17" on="1"/>
      </contour>
    </TTGlyph>
    <TTGlyph name="arrowleft" xMin="50" yMin="-17" xMax="749" yMax="499">
      <contour>
        <pt x="50" y="264" on="1"/>
        <pt x="50" y="274" on="0"/>
        <pt x="54" y="284" on="0"/>
        <pt x="62" y="292" on="1"/>
        <pt x="269" y="499" on="1"/>
        <pt x="339" y="429" on="1"/>
        <pt x="245" y="310" on="1"/>
        <pt x="749" y="310" on="1"/>
        <pt x="749" y="177" on="1"/>
        <pt x="242" y="177" on="1"/>
        <pt x="339" y="53" on="1"/>
        <pt x="269" y="-17" on="1"/>
        <pt x="50" y="202" on="1"/>
      </contour>
    </TTGlyph>
    <TTGlyph name="arrowleft.cap" xMin="50" yMin="71" xMax="749" yMax="587">
      <contour>
        <pt x="50" y="352" on="1"/>
        <pt x="50" y="362" on="0"/>
        <pt x="54" y="372" on="0"/>
        <pt x="62" y="380" on="1"/>
        <pt x="269" y="587" on="1"/>
        <pt x="339" y="517" on="1"/>
        <pt x="245" y="398" on="1"/>
        <pt x="749" y="398" on="1"/>
        <pt x="749" y="265" on="1"/>
        <pt x="242" y="265" on="1"/>
        <pt x="339" y="141" on="1"/>
        <pt x="269" y="71" on="1"/>
        <pt x="50" y="290" on="1"/>
      </contour>
    </TTGlyph>
    <TTGlyph name="arrowright" xMin="50" yMin="-13" xMax="749" yMax="503">
      <contour>
        <pt x="749" y="222" on="1"/>
        <pt x="749" y="212" on="0"/>
        <pt x="745" y="202" on="0"/>
        <pt x="737" y="194" on="1"/>
        <pt x="530" y="-13" on="1"/>
        <pt x="460" y="57" on="1"/>
        <pt x="554" y="176" on="1"/>
        <pt x="50" y="176" on="1"/>
        <pt x="50" y="309" on="1"/>
        <pt x="557" y="309" on="1"/>
        <pt x="460" y="433" on="1"/>
        <pt x="530" y="503" on="1"/>
        <pt x="749" y="284" on="1"/>
      </contour>
    </TTGlyph>
    <TTGlyph name="arrowright.cap" xMin="50" yMin="76" xMax="749" yMax="592">
      <contour>
        <pt x="749" y="311" on="1"/>
        <pt x="749" y="301" on="0"/>
        <pt x="745" y="291" on="0"/>
        <pt x="737" y="283" on="1"/>
        <pt x="530" y="76" on="1"/>
        <pt x="460" y="146" on="1"/>
        <pt x="554" y="265" on="1"/>
        <pt x="50" y="265" on="1"/>
        <pt x="50" y="398" on="1"/>
        <pt x="557" y="398" on="1"/>
        <pt x="460" y="522" on="1"/>
        <pt x="530" y="592" on="1"/>
        <pt x="749" y="373" on="1"/>
      </contour>
    </TTGlyph>
    <TTGlyph name="arrowup" xMin="142" yMin="-106" xMax="658" yMax="593">
      <contour>
        <pt x="423" y="593" on="1"/>
        <pt x="433" y="593" on="0"/>
        <pt x="443" y="589" on="0"/>
        <pt x="451" y="581" on="1"/>
        <pt x="658" y="374" on="1"/>
        <pt x="588" y="304" on="1"/>
        <pt x="472" y="398" on="1"/>
        <pt x="472" y="-106" on="1"/>
        <pt x="333" y="-106" on="1"/>
        <pt x="333" y="401" on="1"/>
        <pt x="212" y="304" on="1"/>
        <pt x="142" y="373" on="1"/>
        <pt x="361" y="593" on="1"/>
      </contour>
    </TTGlyph>
    <TTGlyph name="arrowup.cap" xMin="142" yMin="-17" xMax="658" yMax="682">
      <contour>
        <pt x="423" y="682" on="1"/>
        <pt x="433" y="682" on="0"/>
        <pt x="443" y="678" on="0"/>
        <pt x="451" y="670" on="1"/>
        <pt x="658" y="463" on="1"/>
        <pt x="588" y="393" on="1"/>
        <pt x="472" y="487" on="1"/>
        <pt x="472" y="-17" on="1"/>
        <pt x="333" y="-17" on="1"/>
        <pt x="333" y="490" on="1"/>
        <pt x="212" y="393" on="1"/>
        <pt x="142" y="462" on="1"/>
        <pt x="361" y="682" on="1"/>
      </contour>
    </TTGlyph>
    <TTGlyph name="asciicircum" xMin="49" yMin="358" xMax="530" yMax="673">
      <contour>
        <pt x="530" y="439" on="1"/>
        <pt x="408" y="358" on="1"/>
        <pt x="290" y="505" on="1"/>
        <pt x="289" y="505" on="1"/>
        <pt x="171" y="358" on="1"/>
        <pt x="49" y="439" on="1"/>
        <pt x="233" y="673" on="1"/>
        <pt x="346" y="673" on="1"/>
      </contour>
    </TTGlyph>
    <TTGlyph name="asciitilde" xMin="55" yMin="278" xMax="523" yMax="469">
      <contour>
        <pt x="367" y="278" on="1"/>
        <pt x="344" y="278" on="0"/>
        <pt x="301" y="294" on="0"/>
        <pt x="261" y="314" on="0"/>
        <pt x="224" y="330" on="0"/>
        <pt x="208" y="330" on="1"/>
        <pt x="191" y="330" on="0"/>
        <pt x="164" y="304" on="0"/>
        <pt x="152" y="280" on="1"/>
        <pt x="55" y="314" on="1"/>
        <pt x="60" y="346" on="0"/>
        <pt x="87" y="403" on="0"/>
        <pt x="127" y="445" on="0"/>
        <pt x="180" y="469" on="0"/>
        <pt x="211" y="469" on="1"/>
        <pt x="238" y="469" on="0"/>
        <pt x="284" y="453" on="0"/>
        <pt x="323" y="434" on="0"/>
        <pt x="356" y="418" on="0"/>
        <pt x="370" y="418" on="1"/>
        <pt x="387" y="418" on="0"/>
        <pt x="414" y="444" on="0"/>
        <pt x="426" y="467" on="1"/>
        <pt x="523" y="435" on="1"/>
        <pt x="518" y="402" on="0"/>
        <pt x="491" y="345" on="0"/>
        <pt x="451" y="303" on="0"/>
        <pt x="398" y="278" on="0"/>
      </contour>
    </TTGlyph>
    <TTGlyph name="asterisk" xMin="35" yMin="252" xMax="466" yMax="663">
      <contour>
        <pt x="343" y="265" on="1"/>
        <pt x="334" y="258" on="0"/>
        <pt x="322" y="262" on="0"/>
        <pt x="317" y="270" on="1"/>
        <pt x="250" y="400" on="1"/>
        <pt x="174" y="252" on="1"/>
        <pt x="76" y="319" on="1"/>
        <pt x="57" y="332" on="0"/>
        <pt x="78" y="350" on="1"/>
        <pt x="191" y="450" on="1"/>
        <pt x="35" y="469" on="1"/>
        <pt x="75" y="566" on="1"/>
        <pt x="80" y="577" on="0"/>
        <pt x="91" y="583" on="0"/>
        <pt x="103" y="576" on="1"/>
        <pt x="212" y="509" on="1"/>
        <pt x="177" y="663" on="1"/>
        <pt x="300" y="663" on="1"/>
        <pt x="321" y="663" on="0"/>
        <pt x="317" y="644" on="1"/>
        <pt x="287" y="511" on="1"/>
        <pt x="416" y="587" on="1"/>
        <pt x="457" y="488" on="1"/>
        <pt x="466" y="468" on="0"/>
        <pt x="440" y="465" on="1"/>
        <pt x="308" y="450" on="1"/>
        <pt x="442" y="331" on="1"/>
      </contour>
    </TTGlyph>
    <TTGlyph name="at" xMin="35" yMin="-99" xMax="733" yMax="584">
      <contour>
        <pt x="424" y="290" on="1"/>
        <pt x="424" y="304" on="0"/>
        <pt x="406" y="318" on="0"/>
        <pt x="383" y="318" on="1"/>
        <pt x="368" y="318" on="0"/>
        <pt x="329" y="312" on="0"/>
        <pt x="312" y="308" on="1"/>
        <pt x="282" y="301" on="1"/>
        <pt x="257" y="356" on="1"/>
        <pt x="284" y="380" on="0"/>
        <pt x="359" y="408" on="0"/>
        <pt x="397" y="408" on="1"/>
        <pt x="470" y="408" on="0"/>
        <pt x="506" y="371" on="1"/>
        <pt x="520" y="356" on="0"/>
        <pt x="535" y="311" on="0"/>
        <pt x="535" y="278" on="1"/>
        <pt x="535" y="198" on="1"/>
        <pt x="535" y="181" on="0"/>
        <pt x="550" y="162" on="0"/>
        <pt x="567" y="162" on="1"/>
        <pt x="575" y="162" on="0"/>
        <pt x="592" y="170" on="0"/>
        <pt x="607" y="192" on="0"/>
        <pt x="617" y="233" on="0"/>
        <pt x="617" y="265" on="1"/>
        <pt x="617" y="305" on="0"/>
        <pt x="588" y="380" on="0"/>
        <pt x="531" y="438" on="0"/>
        <pt x="448" y="473" on="0"/>
        <pt x="395" y="473" on="1"/>
        <pt x="344" y="473" on="0"/>
        <pt x="259" y="443" on="0"/>
        <pt x="198" y="386" on="0"/>
        <pt x="163" y="304" on="0"/>
        <pt x="163" y="253" on="1"/>
        <pt x="163" y="202" on="0"/>
        <pt x="194" y="114" on="0"/>
        <pt x="257" y="50" on="0"/>
        <pt x="351" y="14" on="0"/>
        <pt x="414" y="14" on="1"/>
        <pt x="451" y="14" on="0"/>
        <pt x="537" y="27" on="0"/>
        <pt x="572" y="36" on="1"/>
        <pt x="669" y="61" on="1"/>
        <pt x="702" y="-7" on="1"/>
        <pt x="679" y="-27" on="0"/>
        <pt x="610" y="-60" on="0"/>
        <pt x="529" y="-85" on="0"/>
        <pt x="439" y="-99" on="0"/>
        <pt x="395" y="-99" on="1"/>
        <pt x="315" y="-99" on="0"/>
        <pt x="183" y="-46" on="0"/>
        <pt x="88" y="46" on="0"/>
        <pt x="35" y="172" on="0"/>
        <pt x="35" y="246" on="1"/>
        <pt x="35" y="323" on="0"/>
        <pt x="91" y="448" on="0"/>
        <pt x="188" y="536" on="0"/>
        <pt x="317" y="584" on="0"/>
        <pt x="390" y="584" on="1"/>
        <pt x="465" y="584" on="0"/>
        <pt x="591" y="535" on="0"/>
        <pt x="682" y="451" on="0"/>
        <pt x="733" y="342" on="0"/>
        <pt x="733" y="282" on="1"/>
        <pt x="733" y="228" on="0"/>
        <pt x="702" y="150" on="0"/>
        <pt x="676" y="125" on="1"/>
        <pt x="651" y="100" on="0"/>
        <pt x="584" y="77" on="0"/>
        <pt x="548" y="77" on="1"/>
        <pt x="514" y="77" on="0"/>
        <pt x="463" y="97" on="0"/>
        <pt x="449" y="113" on="1"/>
        <pt x="425" y="102" on="1"/>
        <pt x="390" y="85" on="0"/>
        <pt x="358" y="85" on="1"/>
        <pt x="332" y="85" on="0"/>
        <pt x="290" y="102" on="0"/>
        <pt x="260" y="130" on="0"/>
        <pt x="243" y="169" on="0"/>
        <pt x="243" y="190" on="1"/>
        <pt x="243" y="214" on="0"/>
        <pt x="260" y="248" on="0"/>
        <pt x="289" y="271" on="0"/>
        <pt x="327" y="281" on="0"/>
        <pt x="347" y="281" on="1"/>
        <pt x="389" y="281" on="0"/>
        <pt x="424" y="265" on="1"/>
      </contour>
      <contour>
        <pt x="424" y="204" on="1"/>
        <pt x="424" y="207" on="0"/>
        <pt x="421" y="207" on="1"/>
        <pt x="357" y="207" on="1"/>
        <pt x="345" y="207" on="0"/>
        <pt x="345" y="195" on="1"/>
        <pt x="345" y="184" on="0"/>
        <pt x="363" y="168" on="0"/>
        <pt x="380" y="168" on="1"/>
        <pt x="389" y="168" on="0"/>
        <pt x="413" y="174" on="0"/>
        <pt x="421" y="178" on="1"/>
        <pt x="424" y="179" on="0"/>
        <pt x="424" y="183" on="1"/>
      </contour>
    </TTGlyph>
    <TTGlyph name="at.cap" xMin="35" yMin="-10" xMax="733" yMax="673">
      <contour>
        <pt x="424" y="379" on="1"/>
        <pt x="424" y="393" on="0"/>
        <pt x="406" y="407" on="0"/>
        <pt x="383" y="407" on="1"/>
        <pt x="368" y="407" on="0"/>
        <pt x="329" y="401" on="0"/>
        <pt x="312" y="397" on="1"/>
        <pt x="282" y="390" on="1"/>
        <pt x="257" y="445" on="1"/>
        <pt x="284" y="469" on="0"/>
        <pt x="359" y="497" on="0"/>
        <pt x="397" y="497" on="1"/>
        <pt x="470" y="497" on="0"/>
        <pt x="506" y="460" on="1"/>
        <pt x="520" y="445" on="0"/>
        <pt x="535" y="400" on="0"/>
        <pt x="535" y="367" on="1"/>
        <pt x="535" y="287" on="1"/>
        <pt x="535" y="270" on="0"/>
        <pt x="550" y="251" on="0"/>
        <pt x="567" y="251" on="1"/>
        <pt x="575" y="251" on="0"/>
        <pt x="592" y="259" on="0"/>
        <pt x="607" y="281" on="0"/>
        <pt x="617" y="322" on="0"/>
        <pt x="617" y="354" on="1"/>
        <pt x="617" y="394" on="0"/>
        <pt x="588" y="469" on="0"/>
        <pt x="531" y="527" on="0"/>
        <pt x="448" y="562" on="0"/>
        <pt x="395" y="562" on="1"/>
        <pt x="344" y="562" on="0"/>
        <pt x="259" y="532" on="0"/>
        <pt x="198" y="475" on="0"/>
        <pt x="163" y="393" on="0"/>
        <pt x="163" y="342" on="1"/>
        <pt x="163" y="291" on="0"/>
        <pt x="194" y="203" on="0"/>
        <pt x="257" y="139" on="0"/>
        <pt x="351" y="103" on="0"/>
        <pt x="414" y="103" on="1"/>
        <pt x="451" y="103" on="0"/>
        <pt x="537" y="116" on="0"/>
        <pt x="572" y="125" on="1"/>
        <pt x="669" y="150" on="1"/>
        <pt x="702" y="82" on="1"/>
        <pt x="679" y="62" on="0"/>
        <pt x="610" y="29" on="0"/>
        <pt x="529" y="4" on="0"/>
        <pt x="439" y="-10" on="0"/>
        <pt x="395" y="-10" on="1"/>
        <pt x="315" y="-10" on="0"/>
        <pt x="183" y="43" on="0"/>
        <pt x="88" y="135" on="0"/>
        <pt x="35" y="261" on="0"/>
        <pt x="35" y="335" on="1"/>
        <pt x="35" y="412" on="0"/>
        <pt x="91" y="537" on="0"/>
        <pt x="188" y="625" on="0"/>
        <pt x="317" y="673" on="0"/>
        <pt x="390" y="673" on="1"/>
        <pt x="465" y="673" on="0"/>
        <pt x="591" y="624" on="0"/>
        <pt x="682" y="540" on="0"/>
        <pt x="733" y="431" on="0"/>
        <pt x="733" y="371" on="1"/>
        <pt x="733" y="317" on="0"/>
        <pt x="702" y="239" on="0"/>
        <pt x="676" y="214" on="1"/>
        <pt x="651" y="189" on="0"/>
        <pt x="584" y="166" on="0"/>
        <pt x="548" y="166" on="1"/>
        <pt x="514" y="166" on="0"/>
        <pt x="463" y="186" on="0"/>
        <pt x="449" y="202" on="1"/>
        <pt x="425" y="191" on="1"/>
        <pt x="390" y="174" on="0"/>
        <pt x="358" y="174" on="1"/>
        <pt x="332" y="174" on="0"/>
        <pt x="290" y="191" on="0"/>
        <pt x="260" y="219" on="0"/>
        <pt x="243" y="258" on="0"/>
        <pt x="243" y="279" on="1"/>
        <pt x="243" y="303" on="0"/>
        <pt x="260" y="337" on="0"/>
        <pt x="289" y="360" on="0"/>
        <pt x="327" y="370" on="0"/>
        <pt x="347" y="370" on="1"/>
        <pt x="389" y="370" on="0"/>
        <pt x="424" y="354" on="1"/>
      </contour>
      <contour>
        <pt x="424" y="293" on="1"/>
        <pt x="424" y="296" on="0"/>
        <pt x="421" y="296" on="1"/>
        <pt x="357" y="296" on="1"/>
        <pt x="345" y="296" on="0"/>
        <pt x="345" y="284" on="1"/>
        <pt x="345" y="273" on="0"/>
        <pt x="363" y="257" on="0"/>
        <pt x="380" y="257" on="1"/>
        <pt x="389" y="257" on="0"/>
        <pt x="413" y="263" on="0"/>
        <pt x="421" y="267" on="1"/>
        <pt x="424" y="268" on="0"/>
        <pt x="424" y="272" on="1"/>
      </contour>
    </TTGlyph>
    <TTGlyph name="atilde" xMin="20" yMin="-8" xMax="551" yMax="734">
      <component glyphName="a" x="0" y="0" flags="0x204"/>
      <component glyphName="tilde" x="51" y="0" flags="0x4"/>
    </TTGlyph>
    <TTGlyph name="b" xMin="52" yMin="-8" xMax="558" yMax="709">
      <contour>
        <pt x="220" y="454" on="1"/>
        <pt x="234" y="462" on="1"/>
        <pt x="266" y="479" on="0"/>
        <pt x="323" y="496" on="0"/>
        <pt x="351" y="496" on="1"/>
        <pt x="394" y="496" on="0"/>
        <pt x="469" y="461" on="0"/>
        <pt x="525" y="395" on="0"/>
        <pt x="558" y="302" on="0"/>
        <pt x="558" y="244" on="1"/>
        <pt x="558" y="187" on="0"/>
        <pt x="526" y="94" on="0"/>
        <pt x="470" y="28" on="0"/>
        <pt x="394" y="-8" on="0"/>
        <pt x="350" y="-8" on="1"/>
        <pt x="319" y="-8" on="0"/>
        <pt x="265" y="8" on="0"/>
        <pt x="239" y="22" on="1"/>
        <pt x="199" y="44" on="1"/>
        <pt x="180" y="0" on="1"/>
        <pt x="52" y="0" on="1"/>
        <pt x="52" y="709" on="1"/>
        <pt x="220" y="709" on="1"/>
      </contour>
      <contour>
        <pt x="387" y="244" on="1"/>
        <pt x="387" y="298" on="0"/>
        <pt x="345" y="343" on="0"/>
        <pt x="299" y="343" on="1"/>
        <pt x="281" y="343" on="0"/>
        <pt x="244" y="337" on="0"/>
        <pt x="230" y="332" on="1"/>
        <pt x="225" y="330" on="0"/>
        <pt x="220" y="325" on="0"/>
        <pt x="220" y="317" on="1"/>
        <pt x="220" y="171" on="1"/>
        <pt x="220" y="163" on="0"/>
        <pt x="225" y="158" on="0"/>
        <pt x="230" y="156" on="1"/>
        <pt x="244" y="151" on="0"/>
        <pt x="281" y="144" on="0"/>
        <pt x="299" y="144" on="1"/>
        <pt x="345" y="144" on="0"/>
        <pt x="387" y="190" on="0"/>
      </contour>
    </TTGlyph>
    <TTGlyph name="backslash" xMin="-4" yMin="0" xMax="507" yMax="663">
      <contour>
        <pt x="331" y="0" on="1"/>
        <pt x="-4" y="663" on="1"/>
        <pt x="172" y="663" on="1"/>
        <pt x="507" y="0" on="1"/>
      </contour>
    </TTGlyph>
    <TTGlyph name="bar" xMin="70" yMin="-229" xMax="230" yMax="709">
      <contour>
        <pt x="70" y="709" on="1"/>
        <pt x="230" y="709" on="1"/>
        <pt x="230" y="-229" on="1"/>
        <pt x="70" y="-229" on="1"/>
      </contour>
    </TTGlyph>
    <TTGlyph name="braceleft" xMin="43" yMin="-242" xMax="406" yMax="673">
      <contour>
        <pt x="43" y="270" on="1"/>
        <pt x="73" y="283" on="0"/>
        <pt x="113" y="305" on="0"/>
        <pt x="135" y="326" on="0"/>
        <pt x="144" y="349" on="0"/>
        <pt x="144" y="364" on="1"/>
        <pt x="144" y="376" on="0"/>
        <pt x="137" y="421" on="0"/>
        <pt x="129" y="472" on="0"/>
        <pt x="122" y="523" on="0"/>
        <pt x="122" y="543" on="1"/>
        <pt x="122" y="576" on="0"/>
        <pt x="147" y="625" on="0"/>
        <pt x="190" y="657" on="0"/>
        <pt x="249" y="673" on="0"/>
        <pt x="282" y="673" on="1"/>
        <pt x="311" y="673" on="0"/>
        <pt x="379" y="662" on="0"/>
        <pt x="406" y="654" on="1"/>
        <pt x="406" y="551" on="1"/>
        <pt x="308" y="526" on="1"/>
        <pt x="300" y="524" on="0"/>
        <pt x="294" y="518" on="0"/>
        <pt x="294" y="510" on="1"/>
        <pt x="294" y="503" on="0"/>
        <pt x="300" y="469" on="0"/>
        <pt x="307" y="427" on="0"/>
        <pt x="313" y="381" on="0"/>
        <pt x="313" y="361" on="1"/>
        <pt x="313" y="337" on="0"/>
        <pt x="301" y="296" on="0"/>
        <pt x="270" y="262" on="0"/>
        <pt x="216" y="231" on="0"/>
        <pt x="174" y="216" on="1"/>
        <pt x="216" y="201" on="0"/>
        <pt x="270" y="170" on="0"/>
        <pt x="301" y="136" on="0"/>
        <pt x="313" y="95" on="0"/>
        <pt x="313" y="71" on="1"/>
        <pt x="313" y="51" on="0"/>
        <pt x="307" y="5" on="0"/>
        <pt x="300" y="-38" on="0"/>
        <pt x="294" y="-72" on="0"/>
        <pt x="294" y="-79" on="1"/>
        <pt x="294" y="-87" on="0"/>
        <pt x="300" y="-93" on="0"/>
        <pt x="308" y="-95" on="1"/>
        <pt x="406" y="-120" on="1"/>
        <pt x="406" y="-223" on="1"/>
        <pt x="379" y="-231" on="0"/>
        <pt x="311" y="-242" on="0"/>
        <pt x="282" y="-242" on="1"/>
        <pt x="249" y="-242" on="0"/>
        <pt x="190" y="-226" on="0"/>
        <pt x="147" y="-194" on="0"/>
        <pt x="122" y="-145" on="0"/>
        <pt x="122" y="-112" on="1"/>
        <pt x="122" y="-93" on="0"/>
        <pt x="129" y="-41" on="0"/>
        <pt x="137" y="11" on="0"/>
        <pt x="144" y="56" on="0"/>
        <pt x="144" y="68" on="1"/>
        <pt x="144" y="83" on="0"/>
        <pt x="135" y="106" on="0"/>
        <pt x="113" y="127" on="0"/>
        <pt x="73" y="148" on="0"/>
        <pt x="43" y="162" on="1"/>
      </contour>
    </TTGlyph>
    <TTGlyph name="braceleft.cap" xMin="39" yMin="-125" xMax="402" yMax="790">
      <component glyphName="braceleft" x="-4" y="117" flags="0x204"/>
    </TTGlyph>
    <TTGlyph name="braceright" xMin="14" yMin="-242" xMax="377" yMax="673">
      <contour>
        <pt x="377" y="162" on="1"/>
        <pt x="347" y="148" on="0"/>
        <pt x="307" y="127" on="0"/>
        <pt x="285" y="106" on="0"/>
        <pt x="276" y="83" on="0"/>
        <pt x="276" y="68" on="1"/>
        <pt x="276" y="56" on="0"/>
        <pt x="283" y="11" on="0"/>
        <pt x="291" y="-41" on="0"/>
        <pt x="298" y="-93" on="0"/>
        <pt x="298" y="-112" on="1"/>
        <pt x="298" y="-145" on="0"/>
        <pt x="273" y="-194" on="0"/>
        <pt x="230" y="-226" on="0"/>
        <pt x="171" y="-242" on="0"/>
        <pt x="138" y="-242" on="1"/>
        <pt x="109" y="-242" on="0"/>
        <pt x="41" y="-231" on="0"/>
        <pt x="14" y="-223" on="1"/>
        <pt x="14" y="-120" on="1"/>
        <pt x="112" y="-95" on="1"/>
        <pt x="120" y="-93" on="0"/>
        <pt x="126" y="-87" on="0"/>
        <pt x="126" y="-79" on="1"/>
        <pt x="126" y="-72" on="0"/>
        <pt x="120" y="-38" on="0"/>
        <pt x="113" y="5" on="0"/>
        <pt x="107" y="51" on="0"/>
        <pt x="107" y="71" on="1"/>
        <pt x="107" y="95" on="0"/>
        <pt x="119" y="136" on="0"/>
        <pt x="150" y="170" on="0"/>
        <pt x="204" y="201" on="0"/>
        <pt x="246" y="216" on="1"/>
        <pt x="204" y="231" on="0"/>
        <pt x="150" y="262" on="0"/>
        <pt x="119" y="296" on="0"/>
        <pt x="107" y="337" on="0"/>
        <pt x="107" y="361" on="1"/>
        <pt x="107" y="381" on="0"/>
        <pt x="113" y="427" on="0"/>
        <pt x="120" y="469" on="0"/>
        <pt x="126" y="503" on="0"/>
        <pt x="126" y="510" on="1"/>
        <pt x="126" y="518" on="0"/>
        <pt x="120" y="524" on="0"/>
        <pt x="112" y="526" on="1"/>
        <pt x="14" y="551" on="1"/>
        <pt x="14" y="654" on="1"/>
        <pt x="41" y="662" on="0"/>
        <pt x="109" y="673" on="0"/>
        <pt x="138" y="673" on="1"/>
        <pt x="171" y="673" on="0"/>
        <pt x="230" y="657" on="0"/>
        <pt x="273" y="625" on="0"/>
        <pt x="298" y="576" on="0"/>
        <pt x="298" y="543" on="1"/>
        <pt x="298" y="523" on="0"/>
        <pt x="291" y="472" on="0"/>
        <pt x="283" y="421" on="0"/>
        <pt x="276" y="376" on="0"/>
        <pt x="276" y="364" on="1"/>
        <pt x="276" y="349" on="0"/>
        <pt x="285" y="326" on="0"/>
        <pt x="307" y="305" on="0"/>
        <pt x="347" y="283" on="0"/>
        <pt x="377" y="270" on="1"/>
      </contour>
    </TTGlyph>
    <TTGlyph name="braceright.cap" xMin="18" yMin="-125" xMax="381" yMax="790">
      <component glyphName="braceright" x="4" y="117" flags="0x204"/>
    </TTGlyph>
    <TTGlyph name="bracketleft" xMin="74" yMin="-229" xMax="368" yMax="663">
      <contour>
        <pt x="235" y="-82" on="1"/>
        <pt x="368" y="-82" on="1"/>
        <pt x="368" y="-229" on="1"/>
        <pt x="74" y="-229" on="1"/>
        <pt x="74" y="663" on="1"/>
        <pt x="368" y="663" on="1"/>
        <pt x="368" y="516" on="1"/>
        <pt x="235" y="516" on="1"/>
      </contour>
    </TTGlyph>
    <TTGlyph name="bracketleft.cap" xMin="70" yMin="-114" xMax="364" yMax="778">
      <component glyphName="bracketleft" x="-4" y="115" flags="0x204"/>
    </TTGlyph>
    <TTGlyph name="bracketright" xMin="16" yMin="-229" xMax="310" yMax="663">
      <contour>
        <pt x="149" y="516" on="1"/>
        <pt x="16" y="516" on="1"/>
        <pt x="16" y="663" on="1"/>
        <pt x="310" y="663" on="1"/>
        <pt x="310" y="-229" on="1"/>
        <pt x="16" y="-229" on="1"/>
        <pt x="16" y="-82" on="1"/>
        <pt x="149" y="-82" on="1"/>
      </contour>
    </TTGlyph>
    <TTGlyph name="bracketright.cap" xMin="20" yMin="-114" xMax="314" yMax="778">
      <component glyphName="bracketright" x="4" y="115" flags="0x204"/>
    </TTGlyph>
    <TTGlyph name="breve" xMin="38" yMin="559" xMax="396" yMax="738">
      <contour>
        <pt x="217" y="559" on="1"/>
        <pt x="176" y="559" on="0"/>
        <pt x="113" y="584" on="0"/>
        <pt x="68" y="628" on="0"/>
        <pt x="41" y="687" on="0"/>
        <pt x="38" y="720" on="1"/>
        <pt x="144" y="738" on="1"/>
        <pt x="155" y="706" on="0"/>
        <pt x="189" y="673" on="0"/>
        <pt x="217" y="673" on="1"/>
        <pt x="245" y="673" on="0"/>
        <pt x="279" y="706" on="0"/>
        <pt x="290" y="738" on="1"/>
        <pt x="396" y="720" on="1"/>
        <pt x="393" y="687" on="0"/>
        <pt x="366" y="628" on="0"/>
        <pt x="321" y="584" on="0"/>
        <pt x="257" y="559" on="0"/>
      </contour>
    </TTGlyph>
    <TTGlyph name="breve.cap" xMin="38" yMin="729" xMax="396" yMax="908">
      <contour>
        <pt x="217" y="729" on="1"/>
        <pt x="176" y="729" on="0"/>
        <pt x="113" y="754" on="0"/>
        <pt x="68" y="798" on="0"/>
        <pt x="41" y="857" on="0"/>
        <pt x="38" y="890" on="1"/>
        <pt x="144" y="908" on="1"/>
        <pt x="155" y="876" on="0"/>
        <pt x="189" y="843" on="0"/>
        <pt x="217" y="843" on="1"/>
        <pt x="245" y="843" on="0"/>
        <pt x="279" y="876" on="0"/>
        <pt x="290" y="908" on="1"/>
        <pt x="396" y="890" on="1"/>
        <pt x="393" y="857" on="0"/>
        <pt x="366" y="798" on="0"/>
        <pt x="321" y="754" on="0"/>
        <pt x="257" y="729" on="0"/>
      </contour>
    </TTGlyph>
    <TTGlyph name="brokenbar" xMin="70" yMin="-229" xMax="230" yMax="709">
      <contour>
        <pt x="70" y="709" on="1"/>
        <pt x="230" y="709" on="1"/>
        <pt x="230" y="291" on="1"/>
        <pt x="70" y="291" on="1"/>
      </contour>
      <contour>
        <pt x="70" y="189" on="1"/>
        <pt x="230" y="189" on="1"/>
        <pt x="230" y="-229" on="1"/>
        <pt x="70" y="-229" on="1"/>
      </contour>
    </TTGlyph>
    <TTGlyph name="bullet" xMin="57" yMin="160" xMax="319" yMax="409">
      <contour>
        <pt x="319" y="160" on="1"/>
        <pt x="57" y="160" on="1"/>
        <pt x="57" y="409" on="1"/>
        <pt x="261" y="409" on="1"/>
        <pt x="319" y="409" on="0"/>
        <pt x="319" y="352" on="1"/>
      </contour>
    </TTGlyph>
    <TTGlyph name="bullet.cap" xMin="57" yMin="206" xMax="319" yMax="455">
      <component glyphName="bullet" x="0" y="46" flags="0x204"/>
    </TTGlyph>
    <TTGlyph name="c" xMin="24" yMin="-8" xMax="514" yMax="496">
      <contour>
        <pt x="514" y="94" on="1"/>
        <pt x="495" y="73" on="0"/>
        <pt x="442" y="36" on="0"/>
        <pt x="379" y="8" on="0"/>
        <pt x="311" y="-8" on="0"/>
        <pt x="277" y="-8" on="1"/>
        <pt x="221" y="-8" on="0"/>
        <pt x="129" y="28" on="0"/>
        <pt x="61" y="94" on="0"/>
        <pt x="24" y="188" on="0"/>
        <pt x="24" y="246" on="1"/>
        <pt x="24" y="303" on="0"/>
        <pt x="65" y="396" on="0"/>
        <pt x="134" y="461" on="0"/>
        <pt x="224" y="496" on="0"/>
        <pt x="273" y="496" on="1"/>
        <pt x="320" y="496" on="0"/>
        <pt x="398" y="468" on="0"/>
        <pt x="457" y="419" on="0"/>
        <pt x="497" y="353" on="0"/>
        <pt x="506" y="316" on="1"/>
        <pt x="396" y="264" on="1"/>
        <pt x="354" y="306" on="1"/>
        <pt x="328" y="332" on="0"/>
        <pt x="294" y="351" on="0"/>
        <pt x="272" y="351" on="1"/>
        <pt x="240" y="351" on="0"/>
        <pt x="195" y="298" on="0"/>
        <pt x="195" y="248" on="1"/>
        <pt x="195" y="191" on="0"/>
        <pt x="251" y="138" on="0"/>
        <pt x="299" y="138" on="1"/>
        <pt x="319" y="138" on="0"/>
        <pt x="371" y="150" on="0"/>
        <pt x="391" y="158" on="1"/>
        <pt x="462" y="184" on="1"/>
      </contour>
    </TTGlyph>
    <TTGlyph name="cacute" xMin="24" yMin="-8" xMax="514" yMax="771">
      <component glyphName="c" x="0" y="0" flags="0x204"/>
      <component glyphName="acute" x="58" y="0" flags="0x4"/>
    </TTGlyph>
    <TTGlyph name="caron" xMin="27" yMin="559" xMax="406" yMax="766">
      <contour>
        <pt x="217" y="676" on="1"/>
        <pt x="344" y="766" on="1"/>
        <pt x="406" y="705" on="1"/>
        <pt x="278" y="572" on="1"/>
        <pt x="270" y="564" on="0"/>
        <pt x="258" y="559" on="0"/>
        <pt x="246" y="559" on="1"/>
        <pt x="187" y="559" on="1"/>
        <pt x="175" y="559" on="0"/>
        <pt x="163" y="564" on="0"/>
        <pt x="155" y="572" on="1"/>
        <pt x="27" y="705" on="1"/>
        <pt x="89" y="766" on="1"/>
        <pt x="216" y="676" on="1"/>
      </contour>
    </TTGlyph>
    <TTGlyph name="caron.cap" xMin="27" yMin="729" xMax="406" yMax="936">
      <contour>
        <pt x="217" y="846" on="1"/>
        <pt x="344" y="936" on="1"/>
        <pt x="406" y="875" on="1"/>
        <pt x="278" y="742" on="1"/>
        <pt x="270" y="734" on="0"/>
        <pt x="258" y="729" on="0"/>
        <pt x="246" y="729" on="1"/>
        <pt x="187" y="729" on="1"/>
        <pt x="175" y="729" on="0"/>
        <pt x="163" y="734" on="0"/>
        <pt x="155" y="742" on="1"/>
        <pt x="27" y="875" on="1"/>
        <pt x="89" y="936" on="1"/>
        <pt x="216" y="846" on="1"/>
      </contour>
    </TTGlyph>
    <TTGlyph name="ccaron" xMin="24" yMin="-8" xMax="514" yMax="766">
      <component glyphName="c" x="0" y="0" flags="0x204"/>
      <component glyphName="caron" x="58" y="0" flags="0x4"/>
    </TTGlyph>
    <TTGlyph name="ccedilla" xMin="24" yMin="-248" xMax="514" yMax="496">
      <contour>
        <pt x="514" y="96" on="1"/>
        <pt x="497" y="78" on="0"/>
        <pt x="452" y="44" on="0"/>
        <pt x="399" y="17" on="0"/>
        <pt x="340" y="-2" on="0"/>
        <pt x="310" y="-6" on="1"/>
        <pt x="300" y="-21" on="0"/>
        <pt x="300" y="-31" on="1"/>
        <pt x="300" y="-41" on="0"/>
        <pt x="332" y="-51" on="0"/>
        <pt x="371" y="-67" on="0"/>
        <pt x="404" y="-96" on="0"/>
        <pt x="404" y="-125" on="1"/>
        <pt x="404" y="-182" on="0"/>
        <pt x="304" y="-248" on="0"/>
        <pt x="203" y="-248" on="1"/>
        <pt x="186" y="-161" on="1"/>
        <pt x="239" y="-153" on="1"/>
        <pt x="271" y="-149" on="0"/>
        <pt x="271" y="-135" on="1"/>
        <pt x="271" y="-128" on="0"/>
        <pt x="243" y="-118" on="0"/>
        <pt x="209" y="-104" on="0"/>
        <pt x="181" y="-82" on="0"/>
        <pt x="181" y="-63" on="1"/>
        <pt x="181" y="-48" on="0"/>
        <pt x="199" y="-16" on="0"/>
        <pt x="215" y="-2" on="1"/>
        <pt x="172" y="7" on="0"/>
        <pt x="101" y="49" on="0"/>
        <pt x="51" y="113" on="0"/>
        <pt x="24" y="196" on="0"/>
        <pt x="24" y="246" on="1"/>
        <pt x="24" y="303" on="0"/>
        <pt x="65" y="396" on="0"/>
        <pt x="134" y="461" on="0"/>
        <pt x="224" y="496" on="0"/>
        <pt x="273" y="496" on="1"/>
        <pt x="320" y="496" on="0"/>
        <pt x="398" y="468" on="0"/>
        <pt x="457" y="419" on="0"/>
        <pt x="497" y="353" on="0"/>
        <pt x="506" y="316" on="1"/>
        <pt x="396" y="264" on="1"/>
        <pt x="354" y="306" on="1"/>
        <pt x="328" y="332" on="0"/>
        <pt x="294" y="351" on="0"/>
        <pt x="272" y="351" on="1"/>
        <pt x="240" y="351" on="0"/>
        <pt x="195" y="298" on="0"/>
        <pt x="195" y="248" on="1"/>
        <pt x="195" y="191" on="0"/>
        <pt x="251" y="138" on="0"/>
        <pt x="299" y="138" on="1"/>
        <pt x="319" y="138" on="0"/>
        <pt x="371" y="150" on="0"/>
        <pt x="391" y="158" on="1"/>
        <pt x="462" y="184" on="1"/>
      </contour>
    </TTGlyph>
    <TTGlyph name="ccircumflex" xMin="24" yMin="-8" xMax="514" yMax="753">
      <component glyphName="c" x="0" y="0" flags="0x204"/>
      <component glyphName="circumflex" x="58" y="0" flags="0x4"/>
    </TTGlyph>
    <TTGlyph name="cdotaccent" xMin="24" yMin="-8" xMax="514" yMax="713">
      <component glyphName="c" x="0" y="0" flags="0x204"/>
      <component glyphName="dotaccent" x="58" y="0" flags="0x4"/>
    </TTGlyph>
    <TTGlyph name="cedilla" xMin="105" yMin="-248" xMax="328" yMax="37">
      <contour>
        <pt x="189" y="37" on="1"/>
        <pt x="248" y="11" on="1"/>
        <pt x="237" y="-1" on="0"/>
        <pt x="224" y="-23" on="0"/>
        <pt x="224" y="-31" on="1"/>
        <pt x="224" y="-41" on="0"/>
        <pt x="256" y="-51" on="0"/>
        <pt x="295" y="-67" on="0"/>
        <pt x="328" y="-96" on="0"/>
        <pt x="328" y="-125" on="1"/>
        <pt x="328" y="-182" on="0"/>
        <pt x="228" y="-248" on="0"/>
        <pt x="127" y="-248" on="1"/>
        <pt x="110" y="-161" on="1"/>
        <pt x="163" y="-153" on="1"/>
        <pt x="195" y="-149" on="0"/>
        <pt x="195" y="-135" on="1"/>
        <pt x="195" y="-128" on="0"/>
        <pt x="167" y="-118" on="0"/>
        <pt x="133" y="-104" on="0"/>
        <pt x="105" y="-82" on="0"/>
        <pt x="105" y="-63" on="1"/>
        <pt x="105" y="-44" on="0"/>
        <pt x="133" y="-6" on="0"/>
        <pt x="155" y="11" on="1"/>
      </contour>
    </TTGlyph>
    <TTGlyph name="cent" xMin="100" yMin="-131" xMax="590" yMax="629">
      <contour>
        <pt x="420" y="486" on="1"/>
        <pt x="484" y="468" on="0"/>
        <pt x="567" y="376" on="0"/>
        <pt x="582" y="316" on="1"/>
        <pt x="472" y="264" on="1"/>
        <pt x="430" y="306" on="1"/>
        <pt x="404" y="332" on="0"/>
        <pt x="370" y="351" on="0"/>
        <pt x="348" y="351" on="1"/>
        <pt x="316" y="351" on="0"/>
        <pt x="271" y="298" on="0"/>
        <pt x="271" y="248" on="1"/>
        <pt x="271" y="191" on="0"/>
        <pt x="327" y="138" on="0"/>
        <pt x="375" y="138" on="1"/>
        <pt x="395" y="138" on="0"/>
        <pt x="447" y="150" on="0"/>
        <pt x="467" y="158" on="1"/>
        <pt x="538" y="184" on="1"/>
        <pt x="590" y="94" on="1"/>
        <pt x="561" y="62" on="0"/>
        <pt x="471" y="11" on="0"/>
        <pt x="420" y="0" on="1"/>
        <pt x="400" y="-131" on="1"/>
        <pt x="302" y="-131" on="1"/>
        <pt x="302" y="-4" on="1"/>
        <pt x="257" y="3" on="0"/>
        <pt x="182" y="45" on="0"/>
        <pt x="129" y="109" on="0"/>
        <pt x="100" y="195" on="0"/>
        <pt x="100" y="246" on="1"/>
        <pt x="100" y="296" on="0"/>
        <pt x="132" y="380" on="0"/>
        <pt x="187" y="443" on="0"/>
        <pt x="260" y="483" on="0"/>
        <pt x="302" y="491" on="1"/>
        <pt x="322" y="629" on="1"/>
        <pt x="420" y="629" on="1"/>
      </contour>
    </TTGlyph>
    <TTGlyph name="cent.lprop" xMin="41" yMin="-131" xMax="531" yMax="629">
      <component glyphName="cent" x="-59" y="0" flags="0x4"/>
    </TTGlyph>
    <TTGlyph name="cent.oprop" xMin="65" yMin="-131" xMax="497" yMax="565">
      <component glyphName="cent.otab" x="-54" y="0" flags="0x4"/>
    </TTGlyph>
    <TTGlyph name="cent.otab" xMin="119" yMin="-131" xMax="551" yMax="565">
      <contour>
        <pt x="414" y="426" on="1"/>
        <pt x="465" y="408" on="0"/>
        <pt x="531" y="328" on="0"/>
        <pt x="544" y="278" on="1"/>
        <pt x="446" y="231" on="1"/>
        <pt x="412" y="266" on="1"/>
        <pt x="390" y="289" on="0"/>
        <pt x="360" y="303" on="0"/>
        <pt x="342" y="303" on="1"/>
        <pt x="316" y="303" on="0"/>
        <pt x="273" y="260" on="0"/>
        <pt x="273" y="219" on="1"/>
        <pt x="273" y="171" on="0"/>
        <pt x="323" y="129" on="0"/>
        <pt x="364" y="129" on="1"/>
        <pt x="381" y="129" on="0"/>
        <pt x="419" y="137" on="0"/>
        <pt x="437" y="143" on="1"/>
        <pt x="500" y="164" on="1"/>
        <pt x="551" y="80" on="1"/>
        <pt x="527" y="55" on="0"/>
        <pt x="456" y="12" on="0"/>
        <pt x="414" y="1" on="1"/>
        <pt x="394" y="-131" on="1"/>
        <pt x="289" y="-131" on="1"/>
        <pt x="289" y="-2" on="1"/>
        <pt x="213" y="14" on="0"/>
        <pt x="119" y="129" on="0"/>
        <pt x="119" y="217" on="1"/>
        <pt x="119" y="260" on="0"/>
        <pt x="145" y="332" on="0"/>
        <pt x="191" y="388" on="0"/>
        <pt x="253" y="425" on="0"/>
        <pt x="289" y="433" on="1"/>
        <pt x="309" y="565" on="1"/>
        <pt x="414" y="565" on="1"/>
      </contour>
    </TTGlyph>
    <TTGlyph name="circumflex" xMin="27" yMin="546" xMax="406" yMax="753">
      <contour>
        <pt x="246" y="753" on="1"/>
        <pt x="258" y="753" on="0"/>
        <pt x="270" y="748" on="0"/>
        <pt x="278" y="740" on="1"/>
        <pt x="406" y="607" on="1"/>
        <pt x="344" y="546" on="1"/>
        <pt x="217" y="636" on="1"/>
        <pt x="216" y="636" on="1"/>
        <pt x="89" y="546" on="1"/>
        <pt x="27" y="607" on="1"/>
        <pt x="155" y="740" on="1"/>
        <pt x="163" y="748" on="0"/>
        <pt x="175" y="753" on="0"/>
        <pt x="187" y="753" on="1"/>
      </contour>
    </TTGlyph>
    <TTGlyph name="circumflex.cap" xMin="27" yMin="716" xMax="406" yMax="923">
      <contour>
        <pt x="246" y="923" on="1"/>
        <pt x="258" y="923" on="0"/>
        <pt x="270" y="918" on="0"/>
        <pt x="278" y="910" on="1"/>
        <pt x="406" y="777" on="1"/>
        <pt x="344" y="716" on="1"/>
        <pt x="217" y="806" on="1"/>
        <pt x="216" y="806" on="1"/>
        <pt x="89" y="716" on="1"/>
        <pt x="27" y="777" on="1"/>
        <pt x="155" y="910" on="1"/>
        <pt x="163" y="918" on="0"/>
        <pt x="175" y="923" on="0"/>
        <pt x="187" y="923" on="1"/>
      </contour>
    </TTGlyph>
    <TTGlyph name="colon" xMin="41" yMin="0" xMax="217" yMax="469">
      <contour>
        <pt x="173" y="171" on="1"/>
        <pt x="198" y="171" on="0"/>
        <pt x="217" y="153" on="0"/>
        <pt x="217" y="132" on="1"/>
        <pt x="217" y="0" on="1"/>
        <pt x="41" y="0" on="1"/>
        <pt x="41" y="171" on="1"/>
      </contour>
      <contour>
        <pt x="173" y="469" on="1"/>
        <pt x="198" y="469" on="0"/>
        <pt x="217" y="451" on="0"/>
        <pt x="217" y="430" on="1"/>
        <pt x="217" y="298" on="1"/>
        <pt x="41" y="298" on="1"/>
        <pt x="41" y="469" on="1"/>
      </contour>
    </TTGlyph>
    <TTGlyph name="comma" xMin="17" yMin="-178" xMax="216" yMax="171">
      <contour>
        <pt x="40" y="171" on="1"/>
        <pt x="172" y="171" on="1"/>
        <pt x="197" y="171" on="0"/>
        <pt x="216" y="152" on="0"/>
        <pt x="216" y="131" on="1"/>
        <pt x="216" y="60" on="1"/>
        <pt x="216" y="25" on="0"/>
        <pt x="209" y="-28" on="0"/>
        <pt x="180" y="-79" on="0"/>
        <pt x="125" y="-137" on="0"/>
        <pt x="77" y="-178" on="1"/>
        <pt x="17" y="-133" on="1"/>
        <pt x="88" y="-17" on="1"/>
        <pt x="98" y="-2" on="0"/>
        <pt x="82" y="7" on="1"/>
        <pt x="67" y="16" on="1"/>
        <pt x="50" y="27" on="0"/>
        <pt x="40" y="43" on="0"/>
        <pt x="40" y="62" on="1"/>
      </contour>
    </TTGlyph>
    <TTGlyph name="commaaccent" xMin="137" yMin="-323" xMax="296" yMax="-58">
      <contour>
        <pt x="137" y="-309" on="1"/>
        <pt x="154" y="-58" on="1"/>
        <pt x="246" y="-58" on="1"/>
        <pt x="257" y="-58" on="0"/>
        <pt x="267" y="-63" on="0"/>
        <pt x="272" y="-68" on="1"/>
        <pt x="296" y="-95" on="0"/>
        <pt x="296" y="-124" on="1"/>
        <pt x="296" y="-138" on="0"/>
        <pt x="282" y="-180" on="0"/>
        <pt x="261" y="-220" on="1"/>
        <pt x="207" y="-323" on="1"/>
      </contour>
    </TTGlyph>
    <TTGlyph name="copyright" xMin="51" yMin="-10" xMax="735" yMax="673">
      <contour>
        <pt x="735" y="332" on="1"/>
        <pt x="735" y="255" on="0"/>
        <pt x="679" y="129" on="0"/>
        <pt x="585" y="39" on="0"/>
        <pt x="461" y="-10" on="0"/>
        <pt x="393" y="-10" on="1"/>
        <pt x="325" y="-10" on="0"/>
        <pt x="201" y="39" on="0"/>
        <pt x="107" y="129" on="0"/>
        <pt x="51" y="255" on="0"/>
        <pt x="51" y="332" on="1"/>
        <pt x="51" y="409" on="0"/>
        <pt x="107" y="535" on="0"/>
        <pt x="201" y="624" on="0"/>
        <pt x="325" y="673" on="0"/>
        <pt x="393" y="673" on="1"/>
        <pt x="461" y="673" on="0"/>
        <pt x="585" y="624" on="0"/>
        <pt x="679" y="535" on="0"/>
        <pt x="735" y="409" on="0"/>
      </contour>
      <contour>
        <pt x="621" y="332" on="1"/>
        <pt x="621" y="384" on="0"/>
        <pt x="591" y="470" on="0"/>
        <pt x="532" y="531" on="0"/>
        <pt x="447" y="564" on="0"/>
        <pt x="393" y="564" on="1"/>
        <pt x="339" y="564" on="0"/>
        <pt x="254" y="531" on="0"/>
        <pt x="195" y="470" on="0"/>
        <pt x="165" y="384" on="0"/>
        <pt x="165" y="332" on="1"/>
        <pt x="165" y="279" on="0"/>
        <pt x="195" y="194" on="0"/>
        <pt x="254" y="132" on="0"/>
        <pt x="339" y="99" on="0"/>
        <pt x="393" y="99" on="1"/>
        <pt x="447" y="99" on="0"/>
        <pt x="532" y="132" on="0"/>
        <pt x="591" y="194" on="0"/>
        <pt x="621" y="279" on="0"/>
      </contour>
      <contour>
        <pt x="522" y="255" on="1"/>
        <pt x="499" y="226" on="0"/>
        <pt x="427" y="191" on="0"/>
        <pt x="391" y="191" on="1"/>
        <pt x="361" y="191" on="0"/>
        <pt x="310" y="212" on="0"/>
        <pt x="273" y="250" on="0"/>
        <pt x="252" y="303" on="0"/>
        <pt x="252" y="335" on="1"/>
        <pt x="252" y="366" on="0"/>
        <pt x="273" y="418" on="0"/>
        <pt x="310" y="456" on="0"/>
        <pt x="362" y="477" on="0"/>
        <pt x="393" y="477" on="1"/>
        <pt x="433" y="477" on="0"/>
        <pt x="499" y="431" on="0"/>
        <pt x="516" y="390" on="1"/>
        <pt x="461" y="348" on="1"/>
        <pt x="430" y="374" on="1"/>
        <pt x="419" y="384" on="0"/>
        <pt x="401" y="393" on="0"/>
        <pt x="390" y="393" on="1"/>
        <pt x="368" y="393" on="0"/>
        <pt x="347" y="362" on="0"/>
        <pt x="347" y="334" on="1"/>
        <pt x="347" y="277" on="0"/>
        <pt x="398" y="277" on="1"/>
        <pt x="411" y="277" on="0"/>
        <pt x="436" y="285" on="0"/>
        <pt x="449" y="291" on="1"/>
        <pt x="487" y="309" on="1"/>
      </contour>
    </TTGlyph>
    <TTGlyph name="currency" xMin="68" yMin="61" xMax="614" yMax="601">
      <contour>
        <pt x="559" y="331" on="1"/>
        <pt x="559" y="305" on="0"/>
        <pt x="548" y="259" on="0"/>
        <pt x="538" y="239" on="1"/>
        <pt x="614" y="163" on="1"/>
        <pt x="512" y="61" on="1"/>
        <pt x="430" y="141" on="1"/>
        <pt x="387" y="124" on="0"/>
        <pt x="341" y="124" on="1"/>
        <pt x="294" y="124" on="0"/>
        <pt x="251" y="141" on="1"/>
        <pt x="170" y="61" on="1"/>
        <pt x="68" y="163" on="1"/>
        <pt x="144" y="239" on="1"/>
        <pt x="123" y="279" on="0"/>
        <pt x="123" y="331" on="1"/>
        <pt x="123" y="382" on="0"/>
        <pt x="144" y="423" on="1"/>
        <pt x="68" y="499" on="1"/>
        <pt x="170" y="601" on="1"/>
        <pt x="251" y="520" on="1"/>
        <pt x="293" y="538" on="0"/>
        <pt x="341" y="538" on="1"/>
        <pt x="388" y="538" on="0"/>
        <pt x="430" y="520" on="1"/>
        <pt x="512" y="601" on="1"/>
        <pt x="614" y="499" on="1"/>
        <pt x="538" y="423" on="1"/>
        <pt x="548" y="403" on="0"/>
        <pt x="559" y="357" on="0"/>
      </contour>
      <contour>
        <pt x="409" y="331" on="1"/>
        <pt x="409" y="375" on="0"/>
        <pt x="373" y="406" on="0"/>
        <pt x="341" y="406" on="1"/>
        <pt x="309" y="406" on="0"/>
        <pt x="273" y="375" on="0"/>
        <pt x="273" y="331" on="1"/>
        <pt x="273" y="287" on="0"/>
        <pt x="309" y="256" on="0"/>
        <pt x="341" y="256" on="1"/>
        <pt x="373" y="256" on="0"/>
        <pt x="409" y="287" on="0"/>
      </contour>
    </TTGlyph>
    <TTGlyph name="d" xMin="26" yMin="-8" xMax="533" yMax="709">
      <contour>
        <pt x="386" y="44" on="1"/>
        <pt x="345" y="22" on="1"/>
        <pt x="289" y="-8" on="0"/>
        <pt x="233" y="-8" on="1"/>
        <pt x="188" y="-8" on="0"/>
        <pt x="112" y="27" on="0"/>
        <pt x="57" y="93" on="0"/>
        <pt x="26" y="186" on="0"/>
        <pt x="26" y="244" on="1"/>
        <pt x="26" y="301" on="0"/>
        <pt x="59" y="394" on="0"/>
        <pt x="118" y="460" on="0"/>
        <pt x="197" y="496" on="0"/>
        <pt x="242" y="496" on="1"/>
        <pt x="274" y="496" on="0"/>
        <pt x="333" y="476" on="0"/>
        <pt x="365" y="459" on="1"/>
        <pt x="365" y="709" on="1"/>
        <pt x="533" y="709" on="1"/>
        <pt x="533" y="0" on="1"/>
        <pt x="405" y="0" on="1"/>
      </contour>
      <contour>
        <pt x="197" y="244" on="1"/>
        <pt x="197" y="189" on="0"/>
        <pt x="240" y="144" on="0"/>
        <pt x="286" y="144" on="1"/>
        <pt x="304" y="144" on="0"/>
        <pt x="341" y="151" on="0"/>
        <pt x="355" y="156" on="1"/>
        <pt x="360" y="158" on="0"/>
        <pt x="365" y="163" on="0"/>
        <pt x="365" y="171" on="1"/>
        <pt x="365" y="321" on="1"/>
        <pt x="365" y="328" on="0"/>
        <pt x="360" y="332" on="0"/>
        <pt x="355" y="334" on="1"/>
        <pt x="343" y="338" on="0"/>
        <pt x="305" y="344" on="0"/>
        <pt x="285" y="344" on="1"/>
        <pt x="240" y="344" on="0"/>
        <pt x="197" y="298" on="0"/>
      </contour>
    </TTGlyph>
    <TTGlyph name="dagger" xMin="51" yMin="-229" xMax="563" yMax="663">
      <contour>
        <pt x="563" y="447" on="1"/>
        <pt x="563" y="299" on="1"/>
        <pt x="506" y="299" on="1"/>
        <pt x="489" y="299" on="0"/>
        <pt x="458" y="301" on="0"/>
        <pt x="439" y="304" on="1"/>
        <pt x="376" y="314" on="1"/>
        <pt x="381" y="286" on="1"/>
        <pt x="383" y="272" on="0"/>
        <pt x="386" y="247" on="0"/>
        <pt x="386" y="223" on="1"/>
        <pt x="386" y="29" on="1"/>
        <pt x="386" y="9" on="0"/>
        <pt x="383" y="-28" on="0"/>
        <pt x="380" y="-56" on="1"/>
        <pt x="360" y="-229" on="1"/>
        <pt x="255" y="-229" on="1"/>
        <pt x="235" y="-56" on="1"/>
        <pt x="232" y="-28" on="0"/>
        <pt x="229" y="9" on="0"/>
        <pt x="229" y="29" on="1"/>
        <pt x="229" y="223" on="1"/>
        <pt x="229" y="247" on="0"/>
        <pt x="232" y="272" on="0"/>
        <pt x="234" y="286" on="1"/>
        <pt x="239" y="314" on="1"/>
        <pt x="176" y="304" on="1"/>
        <pt x="157" y="301" on="0"/>
        <pt x="126" y="299" on="0"/>
        <pt x="109" y="299" on="1"/>
        <pt x="51" y="299" on="1"/>
        <pt x="51" y="447" on="1"/>
        <pt x="109" y="447" on="1"/>
        <pt x="126" y="447" on="0"/>
        <pt x="157" y="445" on="0"/>
        <pt x="176" y="442" on="1"/>
        <pt x="239" y="432" on="1"/>
        <pt x="234" y="461" on="1"/>
        <pt x="231" y="478" on="0"/>
        <pt x="229" y="503" on="0"/>
        <pt x="229" y="525" on="1"/>
        <pt x="229" y="663" on="1"/>
        <pt x="386" y="663" on="1"/>
        <pt x="386" y="525" on="1"/>
        <pt x="386" y="503" on="0"/>
        <pt x="384" y="478" on="0"/>
        <pt x="381" y="461" on="1"/>
        <pt x="376" y="432" on="1"/>
        <pt x="439" y="442" on="1"/>
        <pt x="458" y="445" on="0"/>
        <pt x="489" y="447" on="0"/>
        <pt x="506" y="447" on="1"/>
      </contour>
    </TTGlyph>
    <TTGlyph name="daggerdbl" xMin="51" yMin="-229" xMax="563" yMax="663">
      <contour>
        <pt x="386" y="217" on="1"/>
        <pt x="386" y="193" on="0"/>
        <pt x="383" y="162" on="0"/>
        <pt x="381" y="148" on="1"/>
        <pt x="376" y="120" on="1"/>
        <pt x="439" y="130" on="1"/>
        <pt x="458" y="133" on="0"/>
        <pt x="489" y="135" on="0"/>
        <pt x="506" y="135" on="1"/>
        <pt x="563" y="135" on="1"/>
        <pt x="563" y="-13" on="1"/>
        <pt x="506" y="-13" on="1"/>
        <pt x="489" y="-13" on="0"/>
        <pt x="458" y="-11" on="0"/>
        <pt x="439" y="-8" on="1"/>
        <pt x="376" y="2" on="1"/>
        <pt x="381" y="-27" on="1"/>
        <pt x="384" y="-44" on="0"/>
        <pt x="386" y="-69" on="0"/>
        <pt x="386" y="-91" on="1"/>
        <pt x="386" y="-229" on="1"/>
        <pt x="229" y="-229" on="1"/>
        <pt x="229" y="-91" on="1"/>
        <pt x="229" y="-69" on="0"/>
        <pt x="231" y="-44" on="0"/>
        <pt x="234" y="-27" on="1"/>
        <pt x="239" y="2" on="1"/>
        <pt x="176" y="-8" on="1"/>
        <pt x="157" y="-11" on="0"/>
        <pt x="126" y="-13" on="0"/>
        <pt x="109" y="-13" on="1"/>
        <pt x="51" y="-13" on="1"/>
        <pt x="51" y="135" on="1"/>
        <pt x="109" y="135" on="1"/>
        <pt x="126" y="135" on="0"/>
        <pt x="157" y="133" on="0"/>
        <pt x="176" y="130" on="1"/>
        <pt x="239" y="120" on="1"/>
        <pt x="234" y="148" on="1"/>
        <pt x="232" y="162" on="0"/>
        <pt x="229" y="193" on="0"/>
        <pt x="229" y="217" on="1"/>
        <pt x="229" y="241" on="0"/>
        <pt x="232" y="272" on="0"/>
        <pt x="234" y="286" on="1"/>
        <pt x="239" y="314" on="1"/>
        <pt x="176" y="304" on="1"/>
        <pt x="157" y="301" on="0"/>
        <pt x="126" y="299" on="0"/>
        <pt x="109" y="299" on="1"/>
        <pt x="51" y="299" on="1"/>
        <pt x="51" y="447" on="1"/>
        <pt x="109" y="447" on="1"/>
        <pt x="126" y="447" on="0"/>
        <pt x="157" y="445" on="0"/>
        <pt x="176" y="442" on="1"/>
        <pt x="239" y="432" on="1"/>
        <pt x="234" y="461" on="1"/>
        <pt x="231" y="478" on="0"/>
        <pt x="229" y="503" on="0"/>
        <pt x="229" y="525" on="1"/>
        <pt x="229" y="663" on="1"/>
        <pt x="386" y="663" on="1"/>
        <pt x="386" y="525" on="1"/>
        <pt x="386" y="503" on="0"/>
        <pt x="384" y="478" on="0"/>
        <pt x="381" y="461" on="1"/>
        <pt x="376" y="432" on="1"/>
        <pt x="439" y="442" on="1"/>
        <pt x="458" y="445" on="0"/>
        <pt x="489" y="447" on="0"/>
        <pt x="506" y="447" on="1"/>
        <pt x="563" y="447" on="1"/>
        <pt x="563" y="299" on="1"/>
        <pt x="506" y="299" on="1"/>
        <pt x="489" y="299" on="0"/>
        <pt x="458" y="301" on="0"/>
        <pt x="439" y="304" on="1"/>
        <pt x="376" y="314" on="1"/>
        <pt x="381" y="286" on="1"/>
        <pt x="383" y="272" on="0"/>
        <pt x="386" y="241" on="0"/>
      </contour>
    </TTGlyph>
    <TTGlyph name="dcaron" xMin="26" yMin="-8" xMax="746" yMax="709">
      <component glyphName="d" x="0" y="0" flags="0x4"/>
      <component glyphName="commaaccent" x="450" y="767" flags="0x4"/>
    </TTGlyph>
    <TTGlyph name="dcroat" xMin="26" yMin="-8" xMax="601" yMax="709">
      <contour>
        <pt x="386" y="44" on="1"/>
        <pt x="345" y="22" on="1"/>
        <pt x="289" y="-8" on="0"/>
        <pt x="233" y="-8" on="1"/>
        <pt x="188" y="-8" on="0"/>
        <pt x="112" y="27" on="0"/>
        <pt x="57" y="93" on="0"/>
        <pt x="26" y="186" on="0"/>
        <pt x="26" y="244" on="1"/>
        <pt x="26" y="301" on="0"/>
        <pt x="59" y="394" on="0"/>
        <pt x="118" y="460" on="0"/>
        <pt x="197" y="496" on="0"/>
        <pt x="242" y="496" on="1"/>
        <pt x="274" y="496" on="0"/>
        <pt x="333" y="476" on="0"/>
        <pt x="365" y="459" on="1"/>
        <pt x="365" y="547" on="1"/>
        <pt x="241" y="547" on="1"/>
        <pt x="241" y="641" on="1"/>
        <pt x="365" y="641" on="1"/>
        <pt x="365" y="709" on="1"/>
        <pt x="533" y="709" on="1"/>
        <pt x="533" y="641" on="1"/>
        <pt x="601" y="630" on="1"/>
        <pt x="601" y="547" on="1"/>
        <pt x="533" y="547" on="1"/>
        <pt x="533" y="0" on="1"/>
        <pt x="405" y="0" on="1"/>
      </contour>
      <contour>
        <pt x="197" y="244" on="1"/>
        <pt x="197" y="189" on="0"/>
        <pt x="240" y="144" on="0"/>
        <pt x="286" y="144" on="1"/>
        <pt x="304" y="144" on="0"/>
        <pt x="341" y="151" on="0"/>
        <pt x="355" y="156" on="1"/>
        <pt x="360" y="158" on="0"/>
        <pt x="365" y="163" on="0"/>
        <pt x="365" y="171" on="1"/>
        <pt x="365" y="321" on="1"/>
        <pt x="365" y="328" on="0"/>
        <pt x="360" y="332" on="0"/>
        <pt x="355" y="334" on="1"/>
        <pt x="343" y="338" on="0"/>
        <pt x="305" y="344" on="0"/>
        <pt x="285" y="344" on="1"/>
        <pt x="240" y="344" on="0"/>
        <pt x="197" y="298" on="0"/>
      </contour>
    </TTGlyph>
    <TTGlyph name="degree" xMin="43" yMin="309" xMax="417" yMax="673">
      <contour>
        <pt x="417" y="491" on="1"/>
        <pt x="417" y="448" on="0"/>
        <pt x="385" y="380" on="0"/>
        <pt x="332" y="334" on="0"/>
        <pt x="265" y="309" on="0"/>
        <pt x="230" y="309" on="1"/>
        <pt x="195" y="309" on="0"/>
        <pt x="128" y="334" on="0"/>
        <pt x="75" y="380" on="0"/>
        <pt x="43" y="448" on="0"/>
        <pt x="43" y="491" on="1"/>
        <pt x="43" y="534" on="0"/>
        <pt x="75" y="602" on="0"/>
        <pt x="128" y="648" on="0"/>
        <pt x="195" y="673" on="0"/>
        <pt x="230" y="673" on="1"/>
        <pt x="265" y="673" on="0"/>
        <pt x="332" y="648" on="0"/>
        <pt x="385" y="602" on="0"/>
        <pt x="417" y="534" on="0"/>
      </contour>
      <contour>
        <pt x="286" y="491" on="1"/>
        <pt x="286" y="549" on="0"/>
        <pt x="230" y="549" on="1"/>
        <pt x="174" y="549" on="0"/>
        <pt x="174" y="491" on="1"/>
        <pt x="174" y="433" on="0"/>
        <pt x="230" y="433" on="1"/>
        <pt x="286" y="433" on="0"/>
      </contour>
    </TTGlyph>
    <TTGlyph name="dieresis" xMin="31" yMin="570" xMax="403" yMax="714">
      <contour>
        <pt x="144" y="714" on="1"/>
        <pt x="165" y="714" on="0"/>
        <pt x="179" y="700" on="0"/>
        <pt x="179" y="682" on="1"/>
        <pt x="179" y="570" on="1"/>
        <pt x="31" y="570" on="1"/>
        <pt x="31" y="714" on="1"/>
      </contour>
      <contour>
        <pt x="368" y="714" on="1"/>
        <pt x="389" y="714" on="0"/>
        <pt x="403" y="700" on="0"/>
        <pt x="403" y="682" on="1"/>
        <pt x="403" y="570" on="1"/>
        <pt x="255" y="570" on="1"/>
        <pt x="255" y="714" on="1"/>
      </contour>
    </TTGlyph>
    <TTGlyph name="dieresis.cap" xMin="31" yMin="740" xMax="403" yMax="884">
      <contour>
        <pt x="144" y="884" on="1"/>
        <pt x="165" y="884" on="0"/>
        <pt x="179" y="870" on="0"/>
        <pt x="179" y="852" on="1"/>
        <pt x="179" y="740" on="1"/>
        <pt x="31" y="740" on="1"/>
        <pt x="31" y="884" on="1"/>
      </contour>
      <contour>
        <pt x="368" y="884" on="1"/>
        <pt x="389" y="884" on="0"/>
        <pt x="403" y="870" on="0"/>
        <pt x="403" y="852" on="1"/>
        <pt x="403" y="740" on="1"/>
        <pt x="255" y="740" on="1"/>
        <pt x="255" y="884" on="1"/>
      </contour>
    </TTGlyph>
    <TTGlyph name="divide" xMin="70" yMin="0" xMax="509" yMax="527">
      <contour>
        <pt x="70" y="193" on="1"/>
        <pt x="70" y="334" on="1"/>
        <pt x="509" y="334" on="1"/>
        <pt x="509" y="193" on="1"/>
      </contour>
      <contour>
        <pt x="334" y="527" on="1"/>
        <pt x="355" y="527" on="0"/>
        <pt x="368" y="514" on="0"/>
        <pt x="368" y="496" on="1"/>
        <pt x="368" y="374" on="1"/>
        <pt x="212" y="374" on="1"/>
        <pt x="212" y="527" on="1"/>
      </contour>
      <contour>
        <pt x="334" y="153" on="1"/>
        <pt x="355" y="153" on="0"/>
        <pt x="368" y="140" on="0"/>
        <pt x="368" y="122" on="1"/>
        <pt x="368" y="0" on="1"/>
        <pt x="212" y="0" on="1"/>
        <pt x="212" y="153" on="1"/>
      </contour>
    </TTGlyph>
    <TTGlyph name="dollar" xMin="62" yMin="-131" xMax="619" yMax="793">
      <contour>
        <pt x="172" y="169" on="1"/>
        <pt x="225" y="158" on="0"/>
        <pt x="317" y="146" on="0"/>
        <pt x="349" y="146" on="1"/>
        <pt x="450" y="146" on="0"/>
        <pt x="450" y="201" on="1"/>
        <pt x="450" y="224" on="0"/>
        <pt x="411" y="247" on="0"/>
        <pt x="360" y="259" on="1"/>
        <pt x="294" y="275" on="1"/>
        <pt x="243" y="287" on="0"/>
        <pt x="161" y="321" on="0"/>
        <pt x="104" y="369" on="0"/>
        <pt x="73" y="434" on="0"/>
        <pt x="73" y="477" on="1"/>
        <pt x="73" y="521" on="0"/>
        <pt x="103" y="588" on="0"/>
        <pt x="159" y="635" on="0"/>
        <pt x="235" y="663" on="0"/>
        <pt x="282" y="669" on="1"/>
        <pt x="302" y="793" on="1"/>
        <pt x="410" y="793" on="1"/>
        <pt x="410" y="669" on="1"/>
        <pt x="456" y="664" on="0"/>
        <pt x="548" y="640" on="0"/>
        <pt x="587" y="622" on="1"/>
        <pt x="558" y="501" on="1"/>
        <pt x="479" y="509" on="1"/>
        <pt x="444" y="513" on="0"/>
        <pt x="375" y="517" on="0"/>
        <pt x="347" y="517" on="1"/>
        <pt x="292" y="517" on="0"/>
        <pt x="240" y="503" on="0"/>
        <pt x="240" y="481" on="1"/>
        <pt x="240" y="464" on="0"/>
        <pt x="278" y="445" on="0"/>
        <pt x="326" y="434" on="1"/>
        <pt x="388" y="419" on="1"/>
        <pt x="450" y="404" on="0"/>
        <pt x="538" y="370" on="0"/>
        <pt x="593" y="323" on="0"/>
        <pt x="619" y="259" on="0"/>
        <pt x="619" y="215" on="1"/>
        <pt x="619" y="168" on="0"/>
        <pt x="589" y="92" on="0"/>
        <pt x="534" y="36" on="0"/>
        <pt x="457" y="1" on="0"/>
        <pt x="410" y="-6" on="1"/>
        <pt x="390" y="-131" on="1"/>
        <pt x="282" y="-131" on="1"/>
        <pt x="282" y="-5" on="1"/>
        <pt x="221" y="2" on="0"/>
        <pt x="110" y="40" on="0"/>
        <pt x="62" y="66" on="1"/>
        <pt x="102" y="183" on="1"/>
      </contour>
    </TTGlyph>
    <TTGlyph name="dollar.lprop" xMin="51" yMin="-131" xMax="608" yMax="793">
      <component glyphName="dollar" x="-11" y="0" flags="0x4"/>
    </TTGlyph>
    <TTGlyph name="dollar.oprop" xMin="54" yMin="-131" xMax="507" yMax="619">
      <component glyphName="dollar.otab" x="-60" y="0" flags="0x4"/>
    </TTGlyph>
    <TTGlyph name="dollar.otab" xMin="114" yMin="-131" xMax="567" yMax="619">
      <contour>
        <pt x="516" y="353" on="1"/>
        <pt x="460" y="359" on="1"/>
        <pt x="426" y="363" on="0"/>
        <pt x="365" y="367" on="0"/>
        <pt x="343" y="367" on="1"/>
        <pt x="301" y="367" on="0"/>
        <pt x="272" y="359" on="0"/>
        <pt x="272" y="348" on="1"/>
        <pt x="272" y="340" on="0"/>
        <pt x="290" y="331" on="0"/>
        <pt x="315" y="326" on="1"/>
        <pt x="378" y="314" on="1"/>
        <pt x="423" y="305" on="0"/>
        <pt x="493" y="283" on="0"/>
        <pt x="541" y="248" on="0"/>
        <pt x="567" y="197" on="0"/>
        <pt x="567" y="159" on="1"/>
        <pt x="567" y="97" on="0"/>
        <pt x="489" y="9" on="0"/>
        <pt x="408" y="-3" on="1"/>
        <pt x="388" y="-131" on="1"/>
        <pt x="280" y="-131" on="1"/>
        <pt x="280" y="-2" on="1"/>
        <pt x="234" y="5" on="0"/>
        <pt x="146" y="34" on="0"/>
        <pt x="114" y="54" on="1"/>
        <pt x="150" y="154" on="1"/>
        <pt x="213" y="140" on="1"/>
        <pt x="255" y="131" on="0"/>
        <pt x="326" y="121" on="0"/>
        <pt x="354" y="121" on="1"/>
        <pt x="418" y="121" on="0"/>
        <pt x="418" y="147" on="1"/>
        <pt x="418" y="157" on="0"/>
        <pt x="401" y="165" on="0"/>
        <pt x="384" y="169" on="1"/>
        <pt x="313" y="183" on="1"/>
        <pt x="268" y="192" on="0"/>
        <pt x="199" y="217" on="0"/>
        <pt x="175" y="235" on="1"/>
        <pt x="124" y="274" on="0"/>
        <pt x="124" y="344" on="1"/>
        <pt x="124" y="406" on="0"/>
        <pt x="207" y="480" on="0"/>
        <pt x="280" y="491" on="1"/>
        <pt x="301" y="619" on="1"/>
        <pt x="409" y="619" on="1"/>
        <pt x="409" y="492" on="1"/>
        <pt x="444" y="487" on="0"/>
        <pt x="512" y="471" on="0"/>
        <pt x="541" y="458" on="1"/>
      </contour>
    </TTGlyph>
    <TTGlyph name="dotaccent" xMin="140" yMin="564" xMax="293" yMax="713">
      <contour>
        <pt x="257" y="713" on="1"/>
        <pt x="279" y="713" on="0"/>
        <pt x="293" y="699" on="0"/>
        <pt x="293" y="680" on="1"/>
        <pt x="293" y="564" on="1"/>
        <pt x="140" y="564" on="1"/>
        <pt x="140" y="713" on="1"/>
      </contour>
    </TTGlyph>
    <TTGlyph name="dotaccent.cap" xMin="140" yMin="734" xMax="293" yMax="883">
      <contour>
        <pt x="257" y="883" on="1"/>
        <pt x="279" y="883" on="0"/>
        <pt x="293" y="869" on="0"/>
        <pt x="293" y="850" on="1"/>
        <pt x="293" y="734" on="1"/>
        <pt x="140" y="734" on="1"/>
        <pt x="140" y="883" on="1"/>
      </contour>
    </TTGlyph>
    <TTGlyph name="dotlessi" xMin="54" yMin="0" xMax="222" yMax="488">
      <contour>
        <pt x="54" y="488" on="1"/>
        <pt x="222" y="488" on="1"/>
        <pt x="222" y="0" on="1"/>
        <pt x="54" y="0" on="1"/>
      </contour>
    </TTGlyph>
    <TTGlyph name="e" xMin="24" yMin="-8" xMax="524" yMax="496">
      <contour>
        <pt x="194" y="198" on="1"/>
        <pt x="199" y="167" on="0"/>
        <pt x="252" y="130" on="0"/>
        <pt x="299" y="130" on="1"/>
        <pt x="321" y="130" on="0"/>
        <pt x="374" y="139" on="0"/>
        <pt x="395" y="144" on="1"/>
        <pt x="465" y="162" on="1"/>
        <pt x="513" y="72" on="1"/>
        <pt x="471" y="37" on="0"/>
        <pt x="349" y="-8" on="0"/>
        <pt x="286" y="-8" on="1"/>
        <pt x="229" y="-8" on="0"/>
        <pt x="130" y="28" on="0"/>
        <pt x="95" y="63" on="1"/>
        <pt x="62" y="95" on="0"/>
        <pt x="24" y="187" on="0"/>
        <pt x="24" y="243" on="1"/>
        <pt x="24" y="301" on="0"/>
        <pt x="65" y="394" on="0"/>
        <pt x="134" y="460" on="0"/>
        <pt x="225" y="496" on="0"/>
        <pt x="275" y="496" on="1"/>
        <pt x="329" y="496" on="0"/>
        <pt x="420" y="459" on="0"/>
        <pt x="486" y="394" on="0"/>
        <pt x="524" y="308" on="0"/>
        <pt x="524" y="260" on="1"/>
        <pt x="524" y="229" on="0"/>
        <pt x="521" y="216" on="1"/>
        <pt x="517" y="198" on="0"/>
        <pt x="500" y="198" on="1"/>
      </contour>
      <contour>
        <pt x="362" y="301" on="1"/>
        <pt x="358" y="335" on="0"/>
        <pt x="311" y="367" on="0"/>
        <pt x="279" y="367" on="1"/>
        <pt x="247" y="367" on="0"/>
        <pt x="199" y="336" on="0"/>
        <pt x="195" y="301" on="1"/>
      </contour>
    </TTGlyph>
    <TTGlyph name="eacute" xMin="24" yMin="-8" xMax="524" yMax="771">
      <component glyphName="e" x="0" y="0" flags="0x204"/>
      <component glyphName="acute" x="58" y="0" flags="0x4"/>
    </TTGlyph>
    <TTGlyph name="ebreve" xMin="24" yMin="-8" xMax="524" yMax="738">
      <component glyphName="e" x="0" y="0" flags="0x204"/>
      <component glyphName="breve" x="60" y="0" flags="0x4"/>
    </TTGlyph>
    <TTGlyph name="ecaron" xMin="24" yMin="-8" xMax="524" yMax="766">
      <component glyphName="e" x="0" y="0" flags="0x204"/>
      <component glyphName="caron" x="60" y="0" flags="0x4"/>
    </TTGlyph>
    <TTGlyph name="ecircumflex" xMin="24" yMin="-8" xMax="524" yMax="753">
      <component glyphName="e" x="0" y="0" flags="0x204"/>
      <component glyphName="circumflex" x="60" y="0" flags="0x4"/>
    </TTGlyph>
    <TTGlyph name="edieresis" xMin="24" yMin="-8" xMax="524" yMax="714">
      <component glyphName="e" x="0" y="0" flags="0x204"/>
      <component glyphName="dieresis" x="60" y="0" flags="0x4"/>
    </TTGlyph>
    <TTGlyph name="edotaccent" xMin="24" yMin="-8" xMax="524" yMax="713">
      <component glyphName="e" x="0" y="0" flags="0x204"/>
      <component glyphName="dotaccent" x="60" y="0" flags="0x4"/>
    </TTGlyph>
    <TTGlyph name="egrave" xMin="24" yMin="-8" xMax="524" yMax="771">
      <component glyphName="e" x="0" y="0" flags="0x204"/>
      <component glyphName="grave" x="60" y="0" flags="0x4"/>
    </TTGlyph>
    <TTGlyph name="eight" xMin="50" yMin="-10" xMax="632" yMax="673">
      <contour>
        <pt x="156" y="352" on="1"/>
        <pt x="124" y="374" on="0"/>
        <pt x="79" y="440" on="0"/>
        <pt x="79" y="485" on="1"/>
        <pt x="79" y="525" on="0"/>
        <pt x="117" y="594" on="0"/>
        <pt x="186" y="645" on="0"/>
        <pt x="282" y="673" on="0"/>
        <pt x="341" y="673" on="1"/>
        <pt x="393" y="673" on="0"/>
        <pt x="490" y="648" on="0"/>
        <pt x="564" y="599" on="0"/>
        <pt x="609" y="527" on="0"/>
        <pt x="609" y="480" on="1"/>
        <pt x="609" y="445" on="0"/>
        <pt x="570" y="374" on="0"/>
        <pt x="542" y="351" on="1"/>
        <pt x="582" y="329" on="0"/>
        <pt x="632" y="265" on="0"/>
        <pt x="632" y="214" on="1"/>
        <pt x="632" y="164" on="0"/>
        <pt x="588" y="82" on="0"/>
        <pt x="512" y="23" on="0"/>
        <pt x="406" y="-10" on="0"/>
        <pt x="345" y="-10" on="1"/>
        <pt x="279" y="-10" on="0"/>
        <pt x="170" y="23" on="0"/>
        <pt x="93" y="81" on="0"/>
        <pt x="50" y="161" on="0"/>
        <pt x="50" y="208" on="1"/>
        <pt x="50" y="236" on="0"/>
        <pt x="68" y="282" on="0"/>
        <pt x="98" y="318" on="0"/>
        <pt x="136" y="343" on="0"/>
      </contour>
      <contour>
        <pt x="281" y="293" on="1"/>
        <pt x="269" y="298" on="0"/>
        <pt x="255" y="292" on="0"/>
        <pt x="249" y="287" on="1"/>
        <pt x="235" y="276" on="0"/>
        <pt x="220" y="246" on="0"/>
        <pt x="220" y="229" on="1"/>
        <pt x="220" y="191" on="0"/>
        <pt x="286" y="141" on="0"/>
        <pt x="344" y="141" on="1"/>
        <pt x="395" y="141" on="0"/>
        <pt x="457" y="181" on="0"/>
        <pt x="457" y="210" on="1"/>
        <pt x="457" y="227" on="0"/>
        <pt x="427" y="242" on="0"/>
        <pt x="395" y="253" on="1"/>
      </contour>
      <contour>
        <pt x="398" y="400" on="1"/>
        <pt x="412" y="395" on="0"/>
        <pt x="424" y="399" on="0"/>
        <pt x="430" y="405" on="1"/>
        <pt x="438" y="413" on="0"/>
        <pt x="452" y="440" on="0"/>
        <pt x="452" y="452" on="1"/>
        <pt x="452" y="488" on="0"/>
        <pt x="384" y="529" on="0"/>
        <pt x="335" y="529" on="1"/>
        <pt x="297" y="529" on="0"/>
        <pt x="244" y="505" on="0"/>
        <pt x="244" y="480" on="1"/>
        <pt x="244" y="463" on="0"/>
        <pt x="273" y="444" on="0"/>
        <pt x="310" y="431" on="1"/>
      </contour>
    </TTGlyph>
    <TTGlyph name="eight.lprop" xMin="38" yMin="-10" xMax="620" yMax="673">
      <component glyphName="eight" x="-12" y="0" flags="0x4"/>
    </TTGlyph>
    <TTGlyph name="eight.oprop" xMin="40" yMin="-8" xMax="601" yMax="671">
      <contour>
        <pt x="141" y="353" on="1"/>
        <pt x="111" y="374" on="0"/>
        <pt x="66" y="439" on="0"/>
        <pt x="66" y="484" on="1"/>
        <pt x="66" y="527" on="0"/>
        <pt x="106" y="596" on="0"/>
        <pt x="175" y="645" on="0"/>
        <pt x="268" y="671" on="0"/>
        <pt x="322" y="671" on="1"/>
        <pt x="380" y="671" on="0"/>
        <pt x="474" y="642" on="0"/>
        <pt x="542" y="591" on="0"/>
        <pt x="579" y="522" on="0"/>
        <pt x="579" y="482" on="1"/>
        <pt x="579" y="440" on="0"/>
        <pt x="539" y="378" on="0"/>
        <pt x="507" y="352" on="1"/>
        <pt x="548" y="330" on="0"/>
        <pt x="601" y="266" on="0"/>
        <pt x="601" y="215" on="1"/>
        <pt x="601" y="166" on="0"/>
        <pt x="559" y="84" on="0"/>
        <pt x="485" y="25" on="0"/>
        <pt x="383" y="-8" on="0"/>
        <pt x="324" y="-8" on="1"/>
        <pt x="261" y="-8" on="0"/>
        <pt x="156" y="25" on="0"/>
        <pt x="81" y="83" on="0"/>
        <pt x="40" y="161" on="0"/>
        <pt x="40" y="206" on="1"/>
        <pt x="40" y="258" on="0"/>
        <pt x="96" y="329" on="0"/>
      </contour>
      <contour>
        <pt x="265" y="294" on="1"/>
        <pt x="250" y="300" on="0"/>
        <pt x="236" y="291" on="1"/>
        <pt x="221" y="280" on="0"/>
        <pt x="201" y="248" on="0"/>
        <pt x="201" y="226" on="1"/>
        <pt x="201" y="188" on="0"/>
        <pt x="262" y="135" on="0"/>
        <pt x="323" y="135" on="1"/>
        <pt x="378" y="135" on="0"/>
        <pt x="435" y="178" on="0"/>
        <pt x="435" y="205" on="1"/>
        <pt x="435" y="221" on="0"/>
        <pt x="408" y="239" on="0"/>
        <pt x="373" y="253" on="1"/>
      </contour>
      <contour>
        <pt x="373" y="402" on="1"/>
        <pt x="381" y="399" on="0"/>
        <pt x="394" y="399" on="0"/>
        <pt x="401" y="406" on="1"/>
        <pt x="415" y="420" on="0"/>
        <pt x="429" y="450" on="0"/>
        <pt x="429" y="470" on="1"/>
        <pt x="429" y="504" on="0"/>
        <pt x="369" y="538" on="0"/>
        <pt x="320" y="538" on="1"/>
        <pt x="274" y="538" on="0"/>
        <pt x="224" y="513" on="0"/>
        <pt x="224" y="488" on="1"/>
        <pt x="224" y="470" on="0"/>
        <pt x="256" y="447" on="0"/>
        <pt x="288" y="435" on="1"/>
      </contour>
    </TTGlyph>
    <TTGlyph name="eight.otab" xMin="61" yMin="-8" xMax="622" yMax="671">
      <contour>
        <pt x="162" y="353" on="1"/>
        <pt x="132" y="374" on="0"/>
        <pt x="87" y="439" on="0"/>
        <pt x="87" y="484" on="1"/>
        <pt x="87" y="527" on="0"/>
        <pt x="127" y="596" on="0"/>
        <pt x="196" y="645" on="0"/>
        <pt x="289" y="671" on="0"/>
        <pt x="343" y="671" on="1"/>
        <pt x="401" y="671" on="0"/>
        <pt x="495" y="642" on="0"/>
        <pt x="563" y="591" on="0"/>
        <pt x="600" y="522" on="0"/>
        <pt x="600" y="482" on="1"/>
        <pt x="600" y="440" on="0"/>
        <pt x="560" y="378" on="0"/>
        <pt x="528" y="352" on="1"/>
        <pt x="569" y="330" on="0"/>
        <pt x="622" y="266" on="0"/>
        <pt x="622" y="215" on="1"/>
        <pt x="622" y="166" on="0"/>
        <pt x="580" y="84" on="0"/>
        <pt x="506" y="25" on="0"/>
        <pt x="404" y="-8" on="0"/>
        <pt x="345" y="-8" on="1"/>
        <pt x="282" y="-8" on="0"/>
        <pt x="177" y="25" on="0"/>
        <pt x="102" y="83" on="0"/>
        <pt x="61" y="161" on="0"/>
        <pt x="61" y="206" on="1"/>
        <pt x="61" y="258" on="0"/>
        <pt x="117" y="329" on="0"/>
      </contour>
      <contour>
        <pt x="286" y="294" on="1"/>
        <pt x="271" y="300" on="0"/>
        <pt x="257" y="291" on="1"/>
        <pt x="242" y="280" on="0"/>
        <pt x="222" y="248" on="0"/>
        <pt x="222" y="226" on="1"/>
        <pt x="222" y="188" on="0"/>
        <pt x="283" y="135" on="0"/>
        <pt x="344" y="135" on="1"/>
        <pt x="399" y="135" on="0"/>
        <pt x="456" y="178" on="0"/>
        <pt x="456" y="205" on="1"/>
        <pt x="456" y="221" on="0"/>
        <pt x="429" y="239" on="0"/>
        <pt x="394" y="253" on="1"/>
      </contour>
      <contour>
        <pt x="394" y="402" on="1"/>
        <pt x="402" y="399" on="0"/>
        <pt x="415" y="399" on="0"/>
        <pt x="422" y="406" on="1"/>
        <pt x="436" y="420" on="0"/>
        <pt x="450" y="450" on="0"/>
        <pt x="450" y="470" on="1"/>
        <pt x="450" y="504" on="0"/>
        <pt x="390" y="538" on="0"/>
        <pt x="341" y="538" on="1"/>
        <pt x="295" y="538" on="0"/>
        <pt x="245" y="513" on="0"/>
        <pt x="245" y="488" on="1"/>
        <pt x="245" y="470" on="0"/>
        <pt x="277" y="447" on="0"/>
        <pt x="309" y="435" on="1"/>
      </contour>
    </TTGlyph>
    <TTGlyph name="ellipsis" xMin="41" yMin="0" xMax="729" yMax="171">
      <contour>
        <pt x="173" y="171" on="1"/>
        <pt x="198" y="171" on="0"/>
        <pt x="217" y="153" on="0"/>
        <pt x="217" y="132" on="1"/>
        <pt x="217" y="0" on="1"/>
        <pt x="41" y="0" on="1"/>
        <pt x="41" y="171" on="1"/>
      </contour>
      <contour>
        <pt x="429" y="171" on="1"/>
        <pt x="454" y="171" on="0"/>
        <pt x="473" y="153" on="0"/>
        <pt x="473" y="132" on="1"/>
        <pt x="473" y="0" on="1"/>
        <pt x="297" y="0" on="1"/>
        <pt x="297" y="171" on="1"/>
      </contour>
      <contour>
        <pt x="685" y="171" on="1"/>
        <pt x="710" y="171" on="0"/>
        <pt x="729" y="153" on="0"/>
        <pt x="729" y="132" on="1"/>
        <pt x="729" y="0" on="1"/>
        <pt x="553" y="0" on="1"/>
        <pt x="553" y="171" on="1"/>
      </contour>
    </TTGlyph>
    <TTGlyph name="emacron" xMin="24" yMin="-8" xMax="524" yMax="703">
      <component glyphName="e" x="0" y="0" flags="0x204"/>
      <component glyphName="macron" x="60" y="0" flags="0x4"/>
    </TTGlyph>
    <TTGlyph name="emdash" xMin="41" yMin="176" xMax="1041" yMax="309">
      <contour>
        <pt x="41" y="176" on="1"/>
        <pt x="41" y="309" on="1"/>
        <pt x="1041" y="309" on="1"/>
        <pt x="1041" y="176" on="1"/>
      </contour>
    </TTGlyph>
    <TTGlyph name="emdash.cap" xMin="41" yMin="264" xMax="1041" yMax="397">
      <component glyphName="emdash" x="0" y="88" flags="0x204"/>
    </TTGlyph>
    <TTGlyph name="endash" xMin="41" yMin="176" xMax="541" yMax="309">
      <contour>
        <pt x="41" y="176" on="1"/>
        <pt x="41" y="309" on="1"/>
        <pt x="541" y="309" on="1"/>
        <pt x="541" y="176" on="1"/>
      </contour>
    </TTGlyph>
    <TTGlyph name="endash.cap" xMin="41" yMin="264" xMax="541" yMax="397">
      <component glyphName="endash" x="0" y="88" flags="0x204"/>
    </TTGlyph>
    <TTGlyph name="eng" xMin="52" yMin="-213" xMax="528" yMax="496">
      <contour>
        <pt x="360" y="292" on="1"/>
        <pt x="360" y="318" on="0"/>
        <pt x="348" y="329" on="1"/>
        <pt x="334" y="342" on="0"/>
        <pt x="293" y="342" on="1"/>
        <pt x="256" y="342" on="0"/>
        <pt x="228" y="333" on="1"/>
        <pt x="222" y="331" on="0"/>
        <pt x="220" y="324" on="0"/>
        <pt x="220" y="319" on="1"/>
        <pt x="220" y="0" on="1"/>
        <pt x="52" y="0" on="1"/>
        <pt x="52" y="488" on="1"/>
        <pt x="182" y="488" on="1"/>
        <pt x="200" y="443" on="1"/>
        <pt x="225" y="458" on="1"/>
        <pt x="255" y="476" on="0"/>
        <pt x="312" y="496" on="0"/>
        <pt x="345" y="496" on="1"/>
        <pt x="382" y="496" on="0"/>
        <pt x="447" y="470" on="0"/>
        <pt x="472" y="447" on="1"/>
        <pt x="499" y="421" on="0"/>
        <pt x="528" y="349" on="0"/>
        <pt x="528" y="298" on="1"/>
        <pt x="528" y="-6" on="1"/>
        <pt x="528" y="-57" on="0"/>
        <pt x="514" y="-128" on="0"/>
        <pt x="496" y="-154" on="1"/>
        <pt x="476" y="-183" on="0"/>
        <pt x="406" y="-213" on="0"/>
        <pt x="359" y="-213" on="1"/>
        <pt x="330" y="-213" on="0"/>
        <pt x="277" y="-200" on="0"/>
        <pt x="255" y="-190" on="1"/>
        <pt x="255" y="-107" on="1"/>
        <pt x="313" y="-93" on="1"/>
        <pt x="344" y="-86" on="0"/>
        <pt x="360" y="-68" on="0"/>
        <pt x="360" y="-45" on="1"/>
      </contour>
    </TTGlyph>
    <TTGlyph name="eogonek" xMin="24" yMin="-229" xMax="524" yMax="496">
      <contour>
        <pt x="362" y="300" on="1"/>
        <pt x="358" y="334" on="0"/>
        <pt x="311" y="367" on="0"/>
        <pt x="279" y="367" on="1"/>
        <pt x="247" y="367" on="0"/>
        <pt x="199" y="335" on="0"/>
        <pt x="195" y="300" on="1"/>
      </contour>
      <contour>
        <pt x="286" y="-8" on="1"/>
        <pt x="229" y="-8" on="0"/>
        <pt x="130" y="28" on="0"/>
        <pt x="95" y="63" on="1"/>
        <pt x="62" y="95" on="0"/>
        <pt x="24" y="187" on="0"/>
        <pt x="24" y="243" on="1"/>
        <pt x="24" y="301" on="0"/>
        <pt x="65" y="394" on="0"/>
        <pt x="134" y="460" on="0"/>
        <pt x="225" y="496" on="0"/>
        <pt x="275" y="496" on="1"/>
        <pt x="329" y="496" on="0"/>
        <pt x="420" y="459" on="0"/>
        <pt x="486" y="394" on="0"/>
        <pt x="524" y="308" on="0"/>
        <pt x="524" y="260" on="1"/>
        <pt x="524" y="229" on="0"/>
        <pt x="521" y="216" on="1"/>
        <pt x="517" y="198" on="0"/>
        <pt x="500" y="198" on="1"/>
        <pt x="194" y="198" on="1"/>
        <pt x="199" y="167" on="0"/>
        <pt x="252" y="130" on="0"/>
        <pt x="299" y="130" on="1"/>
        <pt x="321" y="130" on="0"/>
        <pt x="374" y="139" on="0"/>
        <pt x="395" y="144" on="1"/>
        <pt x="465" y="162" on="1"/>
        <pt x="513" y="72" on="1"/>
        <pt x="438" y="25" on="0"/>
        <pt x="365" y="-44" on="0"/>
        <pt x="365" y="-76" on="1"/>
        <pt x="365" y="-98" on="0"/>
        <pt x="392" y="-123" on="0"/>
        <pt x="421" y="-123" on="1"/>
        <pt x="434" y="-123" on="0"/>
        <pt x="470" y="-119" on="0"/>
        <pt x="486" y="-117" on="1"/>
        <pt x="509" y="-199" on="1"/>
        <pt x="486" y="-212" on="0"/>
        <pt x="422" y="-229" on="0"/>
        <pt x="394" y="-229" on="1"/>
        <pt x="328" y="-229" on="0"/>
        <pt x="248" y="-162" on="0"/>
        <pt x="248" y="-110" on="1"/>
        <pt x="248" y="-78" on="0"/>
        <pt x="282" y="-27" on="0"/>
        <pt x="310" y="-7" on="1"/>
        <pt x="305" y="-7" on="0"/>
        <pt x="291" y="-8" on="0"/>
      </contour>
    </TTGlyph>
    <TTGlyph name="equal" xMin="70" yMin="73" xMax="509" yMax="422">
      <contour>
        <pt x="70" y="281" on="1"/>
        <pt x="70" y="422" on="1"/>
        <pt x="509" y="422" on="1"/>
        <pt x="509" y="281" on="1"/>
      </contour>
      <contour>
        <pt x="70" y="73" on="1"/>
        <pt x="70" y="214" on="1"/>
        <pt x="509" y="214" on="1"/>
        <pt x="509" y="73" on="1"/>
      </contour>
    </TTGlyph>
    <TTGlyph name="estimated" xMin="51" yMin="-10" xMax="814" yMax="673">
      <contour>
        <pt x="197" y="323" on="1"/>
        <pt x="189" y="323" on="0"/>
        <pt x="189" y="317" on="1"/>
        <pt x="189" y="130" on="1"/>
        <pt x="189" y="123" on="0"/>
        <pt x="195" y="115" on="0"/>
        <pt x="201" y="109" on="1"/>
        <pt x="245" y="64" on="0"/>
        <pt x="366" y="11" on="0"/>
        <pt x="435" y="11" on="1"/>
        <pt x="509" y="11" on="0"/>
        <pt x="634" y="71" on="0"/>
        <pt x="679" y="121" on="1"/>
        <pt x="735" y="121" on="1"/>
        <pt x="681" y="61" on="0"/>
        <pt x="525" y="-10" on="0"/>
        <pt x="434" y="-10" on="1"/>
        <pt x="355" y="-10" on="0"/>
        <pt x="215" y="43" on="0"/>
        <pt x="111" y="135" on="0"/>
        <pt x="51" y="260" on="0"/>
        <pt x="51" y="331" on="1"/>
        <pt x="51" y="402" on="0"/>
        <pt x="111" y="527" on="0"/>
        <pt x="215" y="620" on="0"/>
        <pt x="355" y="673" on="0"/>
        <pt x="434" y="673" on="1"/>
        <pt x="512" y="673" on="0"/>
        <pt x="650" y="620" on="0"/>
        <pt x="753" y="527" on="0"/>
        <pt x="814" y="402" on="0"/>
        <pt x="814" y="331" on="1"/>
        <pt x="814" y="323" on="1"/>
      </contour>
      <contour>
        <pt x="675" y="537" on="1"/>
        <pt x="675" y="543" on="0"/>
        <pt x="668" y="553" on="0"/>
        <pt x="662" y="559" on="1"/>
        <pt x="620" y="603" on="0"/>
        <pt x="501" y="653" on="0"/>
        <pt x="435" y="653" on="1"/>
        <pt x="366" y="653" on="0"/>
        <pt x="246" y="601" on="0"/>
        <pt x="201" y="556" on="1"/>
        <pt x="195" y="550" on="0"/>
        <pt x="189" y="540" on="0"/>
        <pt x="189" y="532" on="1"/>
        <pt x="189" y="347" on="1"/>
        <pt x="189" y="342" on="0"/>
        <pt x="197" y="342" on="1"/>
        <pt x="667" y="342" on="1"/>
        <pt x="675" y="342" on="0"/>
        <pt x="675" y="347" on="1"/>
      </contour>
    </TTGlyph>
</ttFont>
